<svg xmlns="http://www.w3.org/2000/svg" width="44.556" height="38.99" viewBox="0 0 44.556 38.99">
  <g id="Group_1357" data-name="Group 1357" transform="translate(-757.038 -362.604)">
    <path id="Path_3073" data-name="Path 3073"
          d="M801.593,399.244a6.7,6.7,0,0,1-.387.96,2.722,2.722,0,0,1-2.321,1.386c-.1.006-.2,0-.3,0h-38.55a2.807,2.807,0,0,1-2.864-1.956,2.877,2.877,0,0,1,.348-2.414q3.335-5.7,6.659-11.413,6.3-10.794,12.591-21.589a2.975,2.975,0,0,1,1.858-1.525,2.748,2.748,0,0,1,3.12,1.337c.89,1.493,1.755,3,2.631,4.5q8.268,14.173,16.53,28.349c.274.47.462.991.69,1.488ZM776.53,380.708c0,1.391-.022,2.783.006,4.174a2.777,2.777,0,0,0,2.757,2.783,2.742,2.742,0,0,0,2.788-2.7c.042-2.84.031-5.682,0-8.522a2.707,2.707,0,0,0-1.814-2.522,2.774,2.774,0,0,0-3.736,2.656C776.51,377.953,776.529,379.331,776.53,380.708Zm2.785,9.749a2.782,2.782,0,1,0,2.78,2.8A2.806,2.806,0,0,0,779.315,390.457Z"
          transform="translate(0)" fill="#fff"/>
    <path id="Path_3074" data-name="Path 3074"
          d="M936.148,472.056c0-1.377-.02-2.754,0-4.131a2.774,2.774,0,0,1,3.736-2.656,2.707,2.707,0,0,1,1.814,2.522c.029,2.841.039,5.682,0,8.522a2.742,2.742,0,0,1-2.788,2.7,2.777,2.777,0,0,1-2.757-2.783C936.126,474.839,936.148,473.447,936.148,472.056Z"
          transform="translate(-159.618 -91.348)" fill="#cc202e"/>
    <path id="Path_3075" data-name="Path 3075"
          d="M939.013,618.63a2.782,2.782,0,1,1-2.783,2.758A2.8,2.8,0,0,1,939.013,618.63Z"
          transform="translate(-159.698 -228.173)" fill="#cc202e"/>
  </g>
</svg>
