<svg xmlns="http://www.w3.org/2000/svg" viewBox="0 0 21.82 24.97">
  <defs>
    <style>.cls-1{fill:#fff;}</style>
  </defs>
  <title>book iconAsset 3</title>
  <g id="Layer_2" data-name="Layer 2">
    <g id="Layer_1-2" data-name="Layer 1">
      <path class="cls-1"
            d="M4,3.16C4,2.31,4,1.51,4,.71A.71.71,0,0,1,5.42.48a1.38,1.38,0,0,1,0,.41c0,.64,0,1.27,0,1.91,0,.11,0,.21,0,.34h10.3c0-.09,0-.18,0-.27,0-.7,0-1.39,0-2.09a.7.7,0,0,1,.7-.77.71.71,0,0,1,.73.78c0,.68,0,1.35,0,2,0,.1,0,.21,0,.35H21c.58,0,.85.27.85.84q0,10,0,20.1c0,.61-.27.87-.89.87H.86A.76.76,0,0,1,0,24.11Q0,14.07,0,4c0-.62.26-.88.87-.88H4ZM15.77,4.61H5.52a3.76,3.76,0,0,1-.18.71.63.63,0,0,1-.64.33c-.42,0-.57-.23-.71-1H1.46V23.5h18.9V4.61H17.27c-.1.8-.29,1.05-.78,1S15.85,5.37,15.77,4.61ZM9.54,12.16l-3.07.45,2.22,2.17-.53,3.06,2.75-1.45,2.75,1.45-.53-3.06,2.22-2.17-3.07-.45L10.91,9.38Z"/>
    </g>
  </g>
</svg>
