<svg xmlns="http://www.w3.org/2000/svg" width="21.82" height="24.975" viewBox="0 0 21.82 24.975">
  <path id="Path_308" data-name="Path 308"
        d="M1533.953,44.619c0-.844-.005-1.646,0-2.448a.713.713,0,0,1,1.386-.234,1.365,1.365,0,0,1,.046.4c0,.637,0,1.273,0,1.91V44.6h10.3c.005-.087.014-.18.014-.273,0-.695,0-1.391,0-2.086a.7.7,0,0,1,.7-.773.715.715,0,0,1,.731.778c.006.676,0,1.352,0,2.028v.351h.378q1.689,0,3.379,0c.578,0,.848.267.848.842q0,10.05,0,20.1c0,.606-.274.873-.886.873h-20.069a.757.757,0,0,1-.863-.867q0-10.035,0-20.069c0-.62.258-.876.873-.878.94,0,1.881,0,2.821,0Zm11.745,1.45h-10.25a3.687,3.687,0,0,1-.18.711.625.625,0,0,1-.638.334c-.421-.018-.568-.23-.713-1.034h-2.529V64.965h18.9V46.075H1547.2c-.1.8-.293,1.052-.778,1.039C1545.964,47.1,1545.771,46.83,1545.7,46.069Zm-6.239,7.556-3.074.446,2.225,2.169-.526,3.062,2.75-1.446,2.75,1.446-.525-3.062,2.225-2.169-3.075-.446-1.375-2.786Z"
        transform="translate(-1529.924 -41.46)" fill="#fff"/>
</svg>
