<svg xmlns="http://www.w3.org/2000/svg" viewBox="0 0 9.76 11.17">
  <defs>
    <style>.cls-1{fill:#fff;}</style>
  </defs>
  <title>calender iconAsset 9</title>
  <g id="Layer_2" data-name="Layer 2">
    <g id="Layer_1-2" data-name="Layer 1">
      <path class="cls-1"
            d="M9.38,1.41H7.7V1.26c0-.3,0-.6,0-.91A.32.32,0,0,0,7.37,0a.31.31,0,0,0-.31.35c0,.31,0,.62,0,.93,0,0,0,.08,0,.12H2.44V1.25c0-.28,0-.57,0-.85a.59.59,0,0,0,0-.18.32.32,0,0,0-.62.1c0,.36,0,.72,0,1.09H.39c-.27,0-.39.12-.39.39q0,4.49,0,9a.34.34,0,0,0,.39.39h9c.27,0,.4-.12.4-.39q0-4.49,0-9C9.76,1.53,9.64,1.41,9.38,1.41Zm-.27,9.1H.65V2.07H1.79c.06.36.13.46.32.46a.28.28,0,0,0,.29-.15,1.68,1.68,0,0,0,.08-.32H7.05c0,.34.12.46.32.47s.3-.11.35-.46H9.11Z"/>
      <path class="cls-1"
            d="M2.56,3.84A.62.62,0,0,0,2,4.43.63.63,0,0,0,2.58,5a.62.62,0,0,0,.59-.62A.61.61,0,0,0,2.56,3.84Z"/>
      <path class="cls-1"
            d="M2.59,8.09A.57.57,0,0,0,2,8.68a.59.59,0,0,0,.58.56.58.58,0,0,0,.57-.57A.57.57,0,0,0,2.59,8.09Z"/>
      <path class="cls-1" d="M2.58,6A.57.57,0,0,0,2,6.56a.59.59,0,0,0,.58.57.59.59,0,0,0,.58-.59A.57.57,0,0,0,2.58,6Z"/>
      <path class="cls-1"
            d="M4.87,3.84a.62.62,0,0,0-.59.59A.63.63,0,0,0,4.89,5a.63.63,0,0,0,.59-.62A.61.61,0,0,0,4.87,3.84Z"/>
      <path class="cls-1"
            d="M4.9,8.09a.57.57,0,0,0-.58.58.59.59,0,0,0,.59.56.58.58,0,0,0,.57-.57A.57.57,0,0,0,4.9,8.09Z"/>
      <path class="cls-1" d="M4.89,6a.57.57,0,0,0-.58.58.58.58,0,1,0,1.15,0A.57.57,0,0,0,4.89,6Z"/>
      <path class="cls-1"
            d="M7.18,3.84a.62.62,0,0,0-.59.59A.63.63,0,0,0,7.2,5a.63.63,0,0,0,.59-.62A.61.61,0,0,0,7.18,3.84Z"/>
      <path class="cls-1" d="M7.2,6a.57.57,0,0,0-.58.58.58.58,0,1,0,1.15,0A.57.57,0,0,0,7.2,6Z"/>
    </g>
  </g>
</svg>
