<svg xmlns="http://www.w3.org/2000/svg" viewBox="0 0 1006 8.4">
  <title>header lineAsset 16</title>
  <g id="Layer_2" data-name="Layer 2">
    <g id="Layer_1-2" data-name="Layer 1">
      <path
        d="M998.5,5h-2a1,1,0,1,1,0-2h2a1,1,0,0,1,0,2Zm-8,0h-2a1,1,0,1,1,0-2h2a1,1,0,0,1,0,2Zm-8,0h-2a1,1,0,1,1,0-2h2a1,1,0,0,1,0,2Zm-8,0h-2a1,1,0,1,1,0-2h2a1,1,0,0,1,0,2Zm-8,0h-2a1,1,0,1,1,0-2h2a1,1,0,0,1,0,2Zm-8,0h-2a1,1,0,1,1,0-2h2a1,1,0,0,1,0,2Zm-8,0h-2a1,1,0,1,1,0-2h2a1,1,0,0,1,0,2Zm-8,0h-2a1,1,0,1,1,0-2h2a1,1,0,0,1,0,2Zm-8,0h-2a1,1,0,1,1,0-2h2a1,1,0,0,1,0,2Zm-8,0h-2a1,1,0,1,1,0-2h2a1,1,0,0,1,0,2Zm-8,0h-2a1,1,0,1,1,0-2h2a1,1,0,0,1,0,2Zm-8,0h-2a1,1,0,1,1,0-2h2a1,1,0,0,1,0,2Zm-8,0h-2a1,1,0,1,1,0-2h2a1,1,0,0,1,0,2Zm-8,0h-2a1,1,0,1,1,0-2h2a1,1,0,0,1,0,2Zm-8,0h-2a1,1,0,1,1,0-2h2a1,1,0,0,1,0,2Zm-8,0h-2a1,1,0,1,1,0-2h2a1,1,0,0,1,0,2Zm-8,0h-2a1,1,0,1,1,0-2h2a1,1,0,0,1,0,2Zm-8,0h-2a1,1,0,1,1,0-2h2a1,1,0,0,1,0,2Zm-8,0h-2a1,1,0,1,1,0-2h2a1,1,0,0,1,0,2Zm-8,0h-2a1,1,0,1,1,0-2h2a1,1,0,0,1,0,2Zm-8,0h-2a1,1,0,1,1,0-2h2a1,1,0,0,1,0,2Zm-8,0h-2a1,1,0,1,1,0-2h2a1,1,0,0,1,0,2Zm-8,0h-2a1,1,0,1,1,0-2h2a1,1,0,0,1,0,2Zm-8,0h-2a1,1,0,1,1,0-2h2a1,1,0,0,1,0,2Zm-8,0h-2a1,1,0,1,1,0-2h2a1,1,0,0,1,0,2Zm-8,0h-2a1,1,0,1,1,0-2h2a1,1,0,0,1,0,2Zm-8,0h-2a1,1,0,1,1,0-2h2a1,1,0,0,1,0,2Zm-8,0h-2a1,1,0,1,1,0-2h2a1,1,0,0,1,0,2Zm-8,0h-2a1,1,0,1,1,0-2h2a1,1,0,0,1,0,2Zm-8,0h-2a1,1,0,1,1,0-2h2a1,1,0,0,1,0,2Zm-8,0h-2a1,1,0,1,1,0-2h2a1,1,0,0,1,0,2Zm-8,0h-2a1,1,0,1,1,0-2h2a1,1,0,0,1,0,2Zm-8,0h-2a1,1,0,1,1,0-2h2a1,1,0,0,1,0,2Zm-8,0h-2a1,1,0,1,1,0-2h2a1,1,0,0,1,0,2Zm-8,0h-2a1,1,0,1,1,0-2h2a1,1,0,0,1,0,2Zm-8,0h-2a1,1,0,1,1,0-2h2a1,1,0,0,1,0,2Zm-8,0h-2a1,1,0,1,1,0-2h2a1,1,0,0,1,0,2Zm-8,0h-2a1,1,0,1,1,0-2h2a1,1,0,0,1,0,2Zm-8,0h-2a1,1,0,1,1,0-2h2a1,1,0,0,1,0,2Zm-8,0h-2a1,1,0,1,1,0-2h2a1,1,0,0,1,0,2Zm-8,0h-2a1,1,0,1,1,0-2h2a1,1,0,0,1,0,2Zm-8,0h-2a1,1,0,1,1,0-2h2a1,1,0,0,1,0,2Zm-8,0h-2a1,1,0,1,1,0-2h2a1,1,0,0,1,0,2Zm-8,0h-2a1,1,0,1,1,0-2h2a1,1,0,0,1,0,2Zm-8,0h-2a1,1,0,1,1,0-2h2a1,1,0,0,1,0,2Zm-8,0h-2a1,1,0,1,1,0-2h2a1,1,0,0,1,0,2Zm-8,0h-2a1,1,0,1,1,0-2h2a1,1,0,0,1,0,2Zm-8,0h-2a1,1,0,1,1,0-2h2a1,1,0,0,1,0,2Zm-8,0h-2a1,1,0,1,1,0-2h2a1,1,0,0,1,0,2Zm-8,0h-2a1,1,0,1,1,0-2h2a1,1,0,0,1,0,2Zm-8,0h-2a1,1,0,1,1,0-2h2a1,1,0,0,1,0,2Zm-8,0h-2a1,1,0,1,1,0-2h2a1,1,0,0,1,0,2Zm-8,0h-2a1,1,0,1,1,0-2h2a1,1,0,0,1,0,2Zm-8,0h-2a1,1,0,1,1,0-2h2a1,1,0,0,1,0,2Zm-8,0h-2a1,1,0,1,1,0-2h2a1,1,0,0,1,0,2Zm-8,0h-2a1,1,0,1,1,0-2h2a1,1,0,0,1,0,2Zm-8,0h-2a1,1,0,1,1,0-2h2a1,1,0,0,1,0,2Zm-8,0h-2a1,1,0,1,1,0-2h2a1,1,0,0,1,0,2Zm-8,0h-2a1,1,0,1,1,0-2h2a1,1,0,0,1,0,2Zm-8,0h-2a1,1,0,1,1,0-2h2a1,1,0,0,1,0,2Zm-8,0h-2a1,1,0,1,1,0-2h2a1,1,0,0,1,0,2Zm-8,0h-2a1,1,0,1,1,0-2h2a1,1,0,0,1,0,2Zm-8,0h-2a1,1,0,1,1,0-2h2a1,1,0,0,1,0,2Zm-8,0h-2a1,1,0,1,1,0-2h2a1,1,0,0,1,0,2Zm-8,0h-2a1,1,0,1,1,0-2h2a1,1,0,0,1,0,2Zm-8,0h-2a1,1,0,1,1,0-2h2a1,1,0,0,1,0,2Zm-8,0h-2a1,1,0,1,1,0-2h2a1,1,0,0,1,0,2Zm-8,0h-2a1,1,0,1,1,0-2h2a1,1,0,0,1,0,2Zm-8,0h-2a1,1,0,1,1,0-2h2a1,1,0,0,1,0,2Zm-8,0h-2a1,1,0,1,1,0-2h2a1,1,0,0,1,0,2Zm-8,0h-2a1,1,0,1,1,0-2h2a1,1,0,0,1,0,2Zm-8,0h-2a1,1,0,1,1,0-2h2a1,1,0,0,1,0,2Zm-8,0h-2a1,1,0,1,1,0-2h2a1,1,0,0,1,0,2Zm-8,0h-2a1,1,0,1,1,0-2h2a1,1,0,0,1,0,2Zm-8,0h-2a1,1,0,1,1,0-2h2a1,1,0,0,1,0,2Zm-8,0h-2a1,1,0,1,1,0-2h2a1,1,0,0,1,0,2Zm-8,0h-2a1,1,0,1,1,0-2h2a1,1,0,0,1,0,2Zm-8,0h-2a1,1,0,1,1,0-2h2a1,1,0,0,1,0,2Zm-8,0h-2a1,1,0,1,1,0-2h2a1,1,0,0,1,0,2Zm-8,0h-2a1,1,0,1,1,0-2h2a1,1,0,0,1,0,2Zm-8,0h-2a1,1,0,1,1,0-2h2a1,1,0,0,1,0,2Zm-8,0h-2a1,1,0,1,1,0-2h2a1,1,0,0,1,0,2Zm-8,0h-2a1,1,0,1,1,0-2h2a1,1,0,0,1,0,2Zm-8,0h-2a1,1,0,1,1,0-2h2a1,1,0,0,1,0,2Zm-8,0h-2a1,1,0,1,1,0-2h2a1,1,0,0,1,0,2Zm-8,0h-2a1,1,0,1,1,0-2h2a1,1,0,0,1,0,2Zm-8,0h-2a1,1,0,1,1,0-2h2a1,1,0,0,1,0,2Zm-8,0h-2a1,1,0,1,1,0-2h2a1,1,0,0,1,0,2Zm-8,0h-2a1,1,0,1,1,0-2h2a1,1,0,0,1,0,2Zm-8,0h-2a1,1,0,1,1,0-2h2a1,1,0,0,1,0,2Zm-8,0h-2a1,1,0,1,1,0-2h2a1,1,0,0,1,0,2Zm-8,0h-2a1,1,0,1,1,0-2h2a1,1,0,0,1,0,2Zm-8,0h-2a1,1,0,1,1,0-2h2a1,1,0,0,1,0,2Zm-8,0h-2a1,1,0,1,1,0-2h2a1,1,0,0,1,0,2Zm-8,0h-2a1,1,0,1,1,0-2h2a1,1,0,0,1,0,2Zm-8,0h-2a1,1,0,1,1,0-2h2a1,1,0,0,1,0,2Zm-8,0h-2a1,1,0,1,1,0-2h2a1,1,0,0,1,0,2Zm-8,0h-2a1,1,0,1,1,0-2h2a1,1,0,0,1,0,2Zm-8,0h-2a1,1,0,1,1,0-2h2a1,1,0,0,1,0,2Zm-8,0h-2a1,1,0,1,1,0-2h2a1,1,0,0,1,0,2Zm-8,0h-2a1,1,0,1,1,0-2h2a1,1,0,0,1,0,2Zm-8,0h-2a1,1,0,1,1,0-2h2a1,1,0,0,1,0,2Zm-8,0h-2a1,1,0,1,1,0-2h2a1,1,0,0,1,0,2Zm-8,0h-2a1,1,0,1,1,0-2h2a1,1,0,0,1,0,2Zm-8,0h-2a1,1,0,1,1,0-2h2a1,1,0,0,1,0,2Zm-8,0h-2a1,1,0,1,1,0-2h2a1,1,0,0,1,0,2Zm-8,0h-2a1,1,0,1,1,0-2h2a1,1,0,0,1,0,2Zm-8,0h-2a1,1,0,1,1,0-2h2a1,1,0,0,1,0,2Zm-8,0h-2a1,1,0,1,1,0-2h2a1,1,0,0,1,0,2Zm-8,0h-2a1,1,0,1,1,0-2h2a1,1,0,0,1,0,2Zm-8,0h-2a1,1,0,1,1,0-2h2a1,1,0,0,1,0,2Zm-8,0h-2a1,1,0,1,1,0-2h2a1,1,0,0,1,0,2Zm-8,0h-2a1,1,0,1,1,0-2h2a1,1,0,0,1,0,2Zm-8,0h-2a1,1,0,1,1,0-2h2a1,1,0,0,1,0,2Zm-8,0h-2a1,1,0,1,1,0-2h2a1,1,0,0,1,0,2Zm-8,0h-2a1,1,0,1,1,0-2h2a1,1,0,0,1,0,2Zm-8,0h-2a1,1,0,1,1,0-2h2a1,1,0,0,1,0,2Zm-8,0h-2a1,1,0,1,1,0-2h2a1,1,0,0,1,0,2Zm-8,0h-2a1,1,0,1,1,0-2h2a1,1,0,0,1,0,2Zm-8,0h-2a1,1,0,1,1,0-2h2a1,1,0,0,1,0,2Zm-8,0h-2a1,1,0,1,1,0-2h2a1,1,0,0,1,0,2Zm-8,0h-2a1,1,0,1,1,0-2h2a1,1,0,0,1,0,2Zm-8,0h-2a1,1,0,1,1,0-2h2a1,1,0,0,1,0,2Zm-8,0h-2a1,1,0,1,1,0-2h2a1,1,0,0,1,0,2Zm-8,0h-2a1,1,0,0,1,0-2h2a1,1,0,0,1,0,2Z"/>
      <circle cx="1002" cy="4" r="4"/>
      <circle cx="4" cy="4.4" r="4"/>
    </g>
  </g>
</svg>
