<svg xmlns="http://www.w3.org/2000/svg" width="229.667" height="2.799"
     viewBox="0 0 229.667 2.799">
  <defs>
    <clipPath id="clip-path">
      <rect width="228.5" height="2.666" fill="none"/>
    </clipPath>
  </defs>
  <g id="Group_2578" data-name="Group 2578" transform="translate(-500.5 -902.201)">
    <g id="Repeat_Grid_2" data-name="Repeat Grid 2" transform="translate(501.667 902.201)" clip-path="url(#clip-path)">
      <g id="Group_2579" data-name="Group 2579" transform="translate(-501.667 -902.201)">
        <path id="Path_1870" data-name="Path 1870"
              d="M730.167,903.534a1.333,1.333,0,1,1-1.334-1.333A1.333,1.333,0,0,1,730.167,903.534Zm-.834.333h-.666a.333.333,0,1,1,0-.666h.666a.333.333,0,1,1,0,.666Zm-2.666,0H726a.333.333,0,0,1,0-.666h.667a.333.333,0,0,1,0,.666Zm-2.667,0h-.667a.333.333,0,0,1,0-.666H724a.333.333,0,0,1,0,.666Zm-2.667,0h-.666a.333.333,0,1,1,0-.666h.666a.333.333,0,1,1,0,.666Zm-2.666,0H718a.333.333,0,0,1,0-.666h.667a.333.333,0,0,1,0,.666Zm-2.667,0h-.667a.333.333,0,0,1,0-.666H716a.333.333,0,0,1,0,.666Zm-2.667,0h-.666a.333.333,0,1,1,0-.666h.666a.333.333,0,1,1,0,.666Zm-2.666,0H710a.333.333,0,0,1,0-.666h.667a.333.333,0,0,1,0,.666Zm-2.667,0h-.667a.333.333,0,0,1,0-.666H708a.333.333,0,0,1,0,.666Zm-2.667,0h-.666a.333.333,0,1,1,0-.666h.666a.333.333,0,1,1,0,.666Zm-2.666,0H702a.333.333,0,0,1,0-.666h.667a.333.333,0,0,1,0,.666Zm-2.667,0h-.667a.333.333,0,0,1,0-.666H700a.333.333,0,0,1,0,.666Zm-2.667,0h-.666a.333.333,0,1,1,0-.666h.666a.333.333,0,1,1,0,.666Zm-2.666,0H694a.333.333,0,0,1,0-.666h.667a.333.333,0,0,1,0,.666Zm-2.667,0h-.667a.333.333,0,0,1,0-.666H692a.333.333,0,0,1,0,.666Zm-2.667,0h-.666a.333.333,0,1,1,0-.666h.666a.333.333,0,1,1,0,.666Zm-2.666,0H686a.333.333,0,0,1,0-.666h.667a.333.333,0,0,1,0,.666Zm-2.667,0h-.667a.333.333,0,0,1,0-.666H684a.333.333,0,0,1,0,.666Zm-2.667,0h-.666a.333.333,0,1,1,0-.666h.666a.333.333,0,1,1,0,.666Zm-2.666,0H678a.333.333,0,0,1,0-.666h.667a.333.333,0,0,1,0,.666Zm-2.667,0h-.667a.333.333,0,0,1,0-.666H676a.333.333,0,0,1,0,.666Zm-2.667,0h-.666a.333.333,0,1,1,0-.666h.666a.333.333,0,1,1,0,.666Zm-2.666,0H670a.333.333,0,0,1,0-.666h.667a.333.333,0,0,1,0,.666Zm-2.667,0h-.667a.333.333,0,0,1,0-.666H668a.333.333,0,0,1,0,.666Zm-2.667,0h-.666a.333.333,0,1,1,0-.666h.666a.333.333,0,1,1,0,.666Zm-2.666,0H662a.333.333,0,0,1,0-.666h.667a.333.333,0,0,1,0,.666Zm-2.667,0h-.667a.333.333,0,0,1,0-.666H660a.333.333,0,0,1,0,.666Zm-2.667,0h-.666a.333.333,0,1,1,0-.666h.666a.333.333,0,1,1,0,.666Zm-2.666,0H654a.333.333,0,0,1,0-.666h.667a.333.333,0,0,1,0,.666Zm-2.667,0h-.667a.333.333,0,0,1,0-.666H652a.333.333,0,0,1,0,.666Zm-2.667,0h-.666a.333.333,0,1,1,0-.666h.666a.333.333,0,1,1,0,.666Zm-2.666,0H646a.333.333,0,0,1,0-.666h.667a.333.333,0,0,1,0,.666Zm-2.667,0h-.667a.333.333,0,0,1,0-.666H644a.333.333,0,0,1,0,.666Zm-2.667,0h-.666a.333.333,0,1,1,0-.666h.666a.333.333,0,1,1,0,.666Zm-2.666,0H638a.333.333,0,0,1,0-.666h.667a.333.333,0,0,1,0,.666Zm-2.667,0h-.667a.333.333,0,0,1,0-.666H636a.333.333,0,0,1,0,.666Zm-2.667,0h-.666a.333.333,0,1,1,0-.666h.666a.333.333,0,1,1,0,.666Zm-2.666,0H630a.333.333,0,0,1,0-.666h.667a.333.333,0,0,1,0,.666Zm-2.667,0h-.667a.333.333,0,0,1,0-.666H628a.333.333,0,0,1,0,.666Zm-2.667,0h-.666a.333.333,0,1,1,0-.666h.666a.333.333,0,1,1,0,.666Zm-2.666,0H622a.333.333,0,0,1,0-.666h.667a.333.333,0,0,1,0,.666Zm-2.667,0h-.667a.333.333,0,0,1,0-.666H620a.333.333,0,0,1,0,.666Zm-2.667,0h-.666a.333.333,0,1,1,0-.666h.666a.333.333,0,1,1,0,.666Zm-2.666,0H614a.333.333,0,0,1,0-.666h.667a.333.333,0,0,1,0,.666Zm-2.667,0h-.667a.333.333,0,0,1,0-.666H612a.333.333,0,0,1,0,.666Zm-2.667,0h-.666a.333.333,0,1,1,0-.666h.666a.333.333,0,1,1,0,.666Zm-2.666,0H606a.333.333,0,0,1,0-.666h.667a.333.333,0,0,1,0,.666Zm-2.667,0h-.667a.333.333,0,0,1,0-.666H604a.333.333,0,0,1,0,.666Zm-2.667,0h-.666a.333.333,0,1,1,0-.666h.666a.333.333,0,1,1,0,.666Zm-2.666,0H598a.333.333,0,0,1,0-.666h.667a.333.333,0,0,1,0,.666Zm-2.667,0h-.667a.333.333,0,0,1,0-.666H596a.333.333,0,0,1,0,.666Zm-2.667,0h-.666a.333.333,0,1,1,0-.666h.666a.333.333,0,1,1,0,.666Zm-2.666,0H590a.333.333,0,0,1,0-.666h.667a.333.333,0,0,1,0,.666Zm-2.667,0h-.667a.333.333,0,0,1,0-.666H588a.333.333,0,0,1,0,.666Zm-2.667,0h-.666a.333.333,0,1,1,0-.666h.666a.333.333,0,1,1,0,.666Zm-2.666,0H582a.333.333,0,0,1,0-.666h.667a.333.333,0,0,1,0,.666Zm-2.667,0h-.667a.333.333,0,0,1,0-.666H580a.333.333,0,0,1,0,.666Zm-2.667,0h-.666a.333.333,0,1,1,0-.666h.666a.333.333,0,1,1,0,.666Zm-2.666,0H574a.333.333,0,0,1,0-.666h.667a.333.333,0,0,1,0,.666Zm-2.667,0h-.667a.333.333,0,0,1,0-.666H572a.333.333,0,0,1,0,.666Zm-2.667,0h-.666a.333.333,0,1,1,0-.666h.666a.333.333,0,1,1,0,.666Zm-2.666,0H566a.333.333,0,0,1,0-.666h.667a.333.333,0,0,1,0,.666Zm-2.667,0h-.667a.333.333,0,0,1,0-.666H564a.333.333,0,0,1,0,.666Zm-2.667,0h-.666a.333.333,0,1,1,0-.666h.666a.333.333,0,1,1,0,.666Zm-2.666,0H558a.333.333,0,0,1,0-.666h.667a.333.333,0,0,1,0,.666Zm-2.667,0h-.667a.333.333,0,0,1,0-.666H556a.333.333,0,0,1,0,.666Zm-2.667,0h-.666a.333.333,0,1,1,0-.666h.666a.333.333,0,1,1,0,.666Zm-2.666,0H550a.333.333,0,0,1,0-.666h.667a.333.333,0,0,1,0,.666Zm-2.667,0h-.667a.333.333,0,0,1,0-.666H548a.333.333,0,0,1,0,.666Zm-2.667,0h-.666a.333.333,0,1,1,0-.666h.666a.333.333,0,1,1,0,.666Zm-2.666,0H542a.333.333,0,0,1,0-.666h.667a.333.333,0,0,1,0,.666Zm-2.667,0h-.667a.333.333,0,0,1,0-.666H540a.333.333,0,0,1,0,.666Zm-2.667,0h-.666a.333.333,0,1,1,0-.666h.666a.333.333,0,1,1,0,.666Zm-2.666,0H534a.333.333,0,0,1,0-.666h.667a.333.333,0,0,1,0,.666Zm-2.667,0h-.667a.333.333,0,0,1,0-.666H532a.333.333,0,0,1,0,.666Zm-2.667,0h-.666a.333.333,0,1,1,0-.666h.666a.333.333,0,1,1,0,.666Zm-2.666,0H526a.333.333,0,0,1,0-.666h.667a.333.333,0,0,1,0,.666Zm-2.667,0h-.667a.333.333,0,0,1,0-.666H524a.333.333,0,0,1,0,.666Zm-2.667,0h-.666a.333.333,0,1,1,0-.666h.666a.333.333,0,1,1,0,.666Zm-2.666,0H518a.333.333,0,0,1,0-.666h.667a.333.333,0,0,1,0,.666Zm-2.667,0h-.667a.333.333,0,0,1,0-.666H516a.333.333,0,0,1,0,.666Zm-2.667,0h-.666a.333.333,0,1,1,0-.666h.666a.333.333,0,1,1,0,.666Zm-2.666,0H510a.333.333,0,0,1,0-.666h.667a.333.333,0,0,1,0,.666Zm-2.667,0h-.667a.333.333,0,0,1,0-.666H508a.333.333,0,0,1,0,.666Zm-2.667,0h-.666a.333.333,0,1,1,0-.666h.666a.333.333,0,1,1,0,.666Zm-2.666,0H502a.333.333,0,0,1,0-.666h.667a.333.333,0,0,1,0,.666Z"
              fill="#000"/>
      </g>
    </g>
    <circle id="Ellipse_387" data-name="Ellipse 387" cx="1.333" cy="1.333" r="1.333"
            transform="translate(500.5 902.333)" fill="#000"/>
  </g>
</svg>
