<svg xmlns="http://www.w3.org/2000/svg" width="335.036" height="4.676" viewBox="0 0 335.036 4.676">
  <g id="Group_1559" data-name="Group 1559" transform="translate(-395.316 -2406.906)">
    <path id="Path_1002" data-name="Path 1002"
          d="M563.153,2411.581a.333.333,0,0,1-.235-.568l.471-.471a.333.333,0,0,1,.471.471l-.471.471A.332.332,0,0,1,563.153,2411.581Zm-1.413-.773a.332.332,0,0,1-.235-.1l-.471-.471a.333.333,0,0,1,.471-.471l.471.471a.334.334,0,0,1-.236.569Zm3.3-1.111a.333.333,0,0,1-.235-.568l.471-.471a.333.333,0,0,1,.471.471l-.471.471A.333.333,0,0,1,565.037,2409.7Zm-5.181-.773a.327.327,0,0,1-.235-.1l-.256-.255h-.028a.333.333,0,0,1,0-.666h.3l.451.451a.333.333,0,0,1-.236.568Zm167.9-.353h-.666a.333.333,0,0,1,0-.666h.666a.333.333,0,0,1,0,.666Zm-2.664,0h-.667a.333.333,0,0,1,0-.666h.667a.333.333,0,0,1,0,.666Zm-2.665,0h-.666a.333.333,0,0,1,0-.666h.666a.333.333,0,0,1,0,.666Zm-2.664,0H719.1a.333.333,0,0,1,0-.666h.666a.333.333,0,0,1,0,.666Zm-2.664,0h-.666a.333.333,0,0,1,0-.666h.666a.333.333,0,0,1,0,.666Zm-2.665,0h-.666a.333.333,0,0,1,0-.666h.666a.333.333,0,0,1,0,.666Zm-2.664,0h-.666a.333.333,0,0,1,0-.666h.666a.333.333,0,0,1,0,.666Zm-2.664,0h-.666a.333.333,0,0,1,0-.666h.666a.333.333,0,0,1,0,.666Zm-2.665,0h-.666a.333.333,0,0,1,0-.666h.666a.333.333,0,0,1,0,.666Zm-2.664,0h-.666a.333.333,0,0,1,0-.666h.666a.333.333,0,0,1,0,.666Zm-2.664,0h-.666a.333.333,0,0,1,0-.666h.666a.333.333,0,0,1,0,.666Zm-2.664,0h-.667a.333.333,0,0,1,0-.666h.667a.333.333,0,0,1,0,.666Zm-2.665,0h-.666a.333.333,0,0,1,0-.666h.666a.333.333,0,0,1,0,.666Zm-2.664,0h-.666a.333.333,0,0,1,0-.666h.666a.333.333,0,0,1,0,.666Zm-2.664,0h-.666a.333.333,0,0,1,0-.666h.666a.333.333,0,0,1,0,.666Zm-2.665,0h-.666a.333.333,0,0,1,0-.666h.666a.333.333,0,0,1,0,.666Zm-2.664,0h-.666a.333.333,0,0,1,0-.666h.666a.333.333,0,0,1,0,.666Zm-2.664,0H681.8a.333.333,0,0,1,0-.666h.666a.333.333,0,0,1,0,.666Zm-2.665,0h-.666a.333.333,0,0,1,0-.666h.666a.333.333,0,0,1,0,.666Zm-2.664,0h-.666a.333.333,0,0,1,0-.666h.666a.333.333,0,0,1,0,.666Zm-2.664,0h-.666a.333.333,0,0,1,0-.666h.666a.333.333,0,0,1,0,.666Zm-2.664,0h-.667a.333.333,0,0,1,0-.666h.667a.333.333,0,0,1,0,.666Zm-2.665,0h-.666a.333.333,0,0,1,0-.666h.666a.333.333,0,0,1,0,.666Zm-2.664,0h-.666a.333.333,0,0,1,0-.666h.666a.333.333,0,0,1,0,.666Zm-2.664,0h-.666a.333.333,0,0,1,0-.666h.666a.333.333,0,0,1,0,.666Zm-2.665,0h-.666a.333.333,0,0,1,0-.666h.666a.333.333,0,0,1,0,.666Zm-2.664,0h-.666a.333.333,0,0,1,0-.666h.666a.333.333,0,0,1,0,.666Zm-2.664,0h-.666a.333.333,0,0,1,0-.666h.666a.333.333,0,0,1,0,.666Zm-2.665,0h-.666a.333.333,0,0,1,0-.666h.666a.333.333,0,1,1,0,.666Zm-2.664,0h-.666a.333.333,0,0,1,0-.666h.666a.333.333,0,0,1,0,.666Zm-2.664,0h-.666a.333.333,0,0,1,0-.666h.666a.333.333,0,0,1,0,.666Zm-2.664,0H644.5a.333.333,0,0,1,0-.666h.667a.333.333,0,0,1,0,.666Zm-2.665,0h-.666a.333.333,0,0,1,0-.666h.666a.333.333,0,0,1,0,.666Zm-2.664,0h-.666a.333.333,0,0,1,0-.666h.666a.333.333,0,0,1,0,.666Zm-2.664,0h-.666a.333.333,0,0,1,0-.666h.666a.333.333,0,0,1,0,.666Zm-2.665,0h-.666a.333.333,0,0,1,0-.666h.666a.333.333,0,0,1,0,.666Zm-2.664,0h-.666a.333.333,0,0,1,0-.666h.666a.333.333,0,0,1,0,.666Zm-2.664,0h-.666a.333.333,0,0,1,0-.666h.666a.333.333,0,0,1,0,.666Zm-2.665,0h-.666a.333.333,0,0,1,0-.666h.666a.333.333,0,1,1,0,.666Zm-2.664,0h-.666a.333.333,0,0,1,0-.666h.666a.333.333,0,0,1,0,.666Zm-2.664,0h-.666a.333.333,0,0,1,0-.666h.666a.333.333,0,0,1,0,.666Zm-2.664,0h-.666a.333.333,0,1,1,0-.666h.666a.333.333,0,0,1,0,.666Zm-2.665,0h-.666a.333.333,0,0,1,0-.666h.666a.333.333,0,0,1,0,.666Zm-2.664,0h-.666a.333.333,0,0,1,0-.666h.666a.333.333,0,0,1,0,.666Zm-2.664,0h-.666a.333.333,0,0,1,0-.666h.666a.333.333,0,0,1,0,.666Zm-2.665,0H607.2a.333.333,0,0,1,0-.666h.666a.333.333,0,0,1,0,.666Zm-2.664,0h-.666a.333.333,0,0,1,0-.666h.666a.333.333,0,0,1,0,.666Zm-2.664,0h-.666a.333.333,0,0,1,0-.666h.666a.333.333,0,0,1,0,.666Zm-2.665,0h-.666a.333.333,0,0,1,0-.666h.666a.333.333,0,1,1,0,.666Zm-2.664,0h-.666a.333.333,0,0,1,0-.666h.666a.333.333,0,0,1,0,.666Zm-2.664,0h-.666a.333.333,0,0,1,0-.666h.666a.333.333,0,0,1,0,.666Zm-2.664,0h-.666a.333.333,0,1,1,0-.666h.666a.333.333,0,0,1,0,.666Zm-2.665,0h-.666a.333.333,0,0,1,0-.666h.666a.333.333,0,0,1,0,.666Zm-2.664,0h-.666a.333.333,0,0,1,0-.666h.666a.333.333,0,0,1,0,.666Zm-2.664,0h-.666a.333.333,0,0,1,0-.666h.666a.333.333,0,0,1,0,.666Zm-2.665,0h-.666a.333.333,0,0,1,0-.666h.666a.333.333,0,0,1,0,.666Zm-2.664,0h-.666a.333.333,0,0,1,0-.666h.666a.333.333,0,0,1,0,.666Zm-2.664,0h-.666a.333.333,0,0,1,0-.666h.666a.333.333,0,0,1,0,.666Zm-2.664,0h-.667a.333.333,0,0,1,0-.666h.667a.333.333,0,0,1,0,.666Zm-2.665,0H569.9a.333.333,0,0,1,0-.666h.666a.333.333,0,0,1,0,.666Zm-2.664,0h-.666a.333.333,0,0,1,0-.666h.666a.333.333,0,0,1,0,.666Zm-10.563,0h-.666a.333.333,0,0,1,0-.666h.666a.333.333,0,0,1,0,.666Zm-2.664,0h-.666a.333.333,0,0,1,0-.666h.666a.333.333,0,0,1,0,.666Zm-2.664,0h-.666a.333.333,0,0,1,0-.666h.666a.333.333,0,0,1,0,.666Zm-2.665,0h-.666a.333.333,0,0,1,0-.666h.666a.333.333,0,1,1,0,.666Zm-2.664,0h-.666a.333.333,0,0,1,0-.666h.666a.333.333,0,0,1,0,.666Zm-2.664,0h-.666a.333.333,0,0,1,0-.666h.666a.333.333,0,0,1,0,.666Zm-2.664,0h-.666a.333.333,0,1,1,0-.666h.666a.333.333,0,0,1,0,.666Zm-2.665,0h-.666a.333.333,0,0,1,0-.666h.666a.333.333,0,0,1,0,.666Zm-2.664,0h-.666a.333.333,0,0,1,0-.666h.666a.333.333,0,0,1,0,.666Zm-2.664,0h-.666a.333.333,0,0,1,0-.666h.666a.333.333,0,0,1,0,.666Zm-2.665,0h-.666a.333.333,0,0,1,0-.666h.666a.333.333,0,0,1,0,.666Zm-2.664,0h-.666a.333.333,0,0,1,0-.666h.666a.333.333,0,0,1,0,.666Zm-2.664,0H524.7a.333.333,0,0,1,0-.666h.666a.333.333,0,0,1,0,.666Zm-2.665,0h-.666a.333.333,0,0,1,0-.666h.666a.333.333,0,1,1,0,.666Zm-2.664,0h-.666a.333.333,0,0,1,0-.666h.666a.333.333,0,0,1,0,.666Zm-2.664,0h-.666a.333.333,0,0,1,0-.666h.666a.333.333,0,0,1,0,.666Zm-2.664,0h-.666a.333.333,0,1,1,0-.666h.666a.333.333,0,0,1,0,.666Zm-2.665,0h-.666a.333.333,0,0,1,0-.666h.666a.333.333,0,0,1,0,.666Zm-2.664,0h-.666a.333.333,0,0,1,0-.666h.666a.333.333,0,0,1,0,.666Zm-2.664,0h-.666a.333.333,0,0,1,0-.666h.666a.333.333,0,0,1,0,.666Zm-2.665,0h-.666a.333.333,0,0,1,0-.666h.666a.333.333,0,0,1,0,.666Zm-2.664,0h-.666a.333.333,0,0,1,0-.666h.666a.333.333,0,0,1,0,.666Zm-2.664,0h-.666a.333.333,0,0,1,0-.666h.666a.333.333,0,0,1,0,.666Zm-2.664,0h-.667a.333.333,0,1,1,0-.666h.667a.333.333,0,0,1,0,.666Zm-2.665,0h-.666a.333.333,0,0,1,0-.666h.666a.333.333,0,0,1,0,.666Zm-2.664,0h-.666a.333.333,0,1,1,0-.666h.666a.333.333,0,0,1,0,.666Zm-2.664,0H487.4a.333.333,0,1,1,0-.666h.666a.333.333,0,0,1,0,.666Zm-2.665,0h-.666a.333.333,0,0,1,0-.666h.666a.333.333,0,0,1,0,.666Zm-2.664,0h-.666a.333.333,0,0,1,0-.666h.666a.333.333,0,0,1,0,.666Zm-2.664,0h-.666a.333.333,0,0,1,0-.666h.666a.333.333,0,0,1,0,.666Zm-2.665,0h-.666a.333.333,0,0,1,0-.666h.666a.333.333,0,0,1,0,.666Zm-2.664,0h-.666a.333.333,0,0,1,0-.666h.666a.333.333,0,0,1,0,.666Zm-2.664,0h-.666a.333.333,0,0,1,0-.666h.666a.333.333,0,0,1,0,.666Zm-2.664,0h-.667a.333.333,0,0,1,0-.666h.667a.333.333,0,0,1,0,.666Zm-2.665,0h-.666a.333.333,0,1,1,0-.666h.666a.333.333,0,0,1,0,.666Zm-2.664,0h-.666a.333.333,0,0,1,0-.666h.666a.333.333,0,0,1,0,.666Zm-2.664,0h-.666a.333.333,0,1,1,0-.666h.666a.333.333,0,0,1,0,.666Zm-2.665,0h-.666a.333.333,0,0,1,0-.666h.666a.333.333,0,0,1,0,.666Zm-2.664,0h-.666a.333.333,0,0,1,0-.666h.666a.333.333,0,0,1,0,.666Zm-2.664,0h-.666a.333.333,0,0,1,0-.666h.666a.333.333,0,0,1,0,.666Zm-2.665,0H450.1a.333.333,0,0,1,0-.666h.666a.333.333,0,0,1,0,.666Zm-2.664,0h-.666a.333.333,0,0,1,0-.666h.666a.333.333,0,0,1,0,.666Zm-2.664,0h-.666a.333.333,0,0,1,0-.666h.666a.333.333,0,0,1,0,.666Zm-2.664,0h-.667a.333.333,0,1,1,0-.666h.667a.333.333,0,0,1,0,.666Zm-2.665,0h-.666a.333.333,0,0,1,0-.666h.666a.333.333,0,0,1,0,.666Zm-2.664,0h-.666a.333.333,0,0,1,0-.666h.666a.333.333,0,0,1,0,.666Zm-2.664,0h-.666a.333.333,0,0,1,0-.666h.666a.333.333,0,0,1,0,.666Zm-2.665,0h-.666a.333.333,0,1,1,0-.666h.666a.333.333,0,0,1,0,.666Zm-2.664,0h-.666a.333.333,0,0,1,0-.666h.666a.333.333,0,0,1,0,.666Zm-2.664,0h-.666a.333.333,0,1,1,0-.666h.666a.333.333,0,0,1,0,.666Zm-2.665,0h-.666a.333.333,0,0,1,0-.666h.666a.333.333,0,0,1,0,.666Zm-2.664,0h-.666a.333.333,0,0,1,0-.666h.666a.333.333,0,0,1,0,.666Zm-2.664,0h-.666a.333.333,0,0,1,0-.666h.666a.333.333,0,0,1,0,.666Zm-2.664,0h-.667a.333.333,0,0,1,0-.666h.667a.333.333,0,0,1,0,.666Zm-2.665,0H412.8a.333.333,0,0,1,0-.666h.666a.333.333,0,0,1,0,.666Zm-2.664,0h-.666a.333.333,0,0,1,0-.666h.666a.333.333,0,0,1,0,.666Zm-2.664,0h-.666a.333.333,0,0,1,0-.666h.666a.333.333,0,0,1,0,.666Zm-2.665,0h-.666a.333.333,0,0,1,0-.666h.666a.333.333,0,0,1,0,.666Zm-2.664,0h-.666a.333.333,0,1,1,0-.666h.666a.333.333,0,0,1,0,.666Zm-2.664,0h-.666a.333.333,0,0,1,0-.666h.666a.333.333,0,0,1,0,.666Zm-2.665,0h-.666a.333.333,0,0,1,0-.666h.666a.333.333,0,0,1,0,.666Z"
          fill="#cc202e"/>
    <circle id="Ellipse_267" data-name="Ellipse 267" cx="1.332" cy="1.332" r="1.332"
            transform="translate(727.687 2406.906)" fill="#cc202e"/>
    <circle id="Ellipse_268" data-name="Ellipse 268" cx="1.332" cy="1.332" r="1.332"
            transform="translate(395.316 2407.038)" fill="#cc202e"/>
  </g>
</svg>
