<svg xmlns="http://www.w3.org/2000/svg" viewBox="0 0 1006 14.04">
  <title>dotted line with arrowAsset 1</title>
  <g id="Layer_2" data-name="Layer 2">
    <g id="Layer_1-2" data-name="Layer 1">
      <path
        d="M504,14a1,1,0,0,1-.71-1.71l1.41-1.41a1,1,0,1,1,1.41,1.41l-1.41,1.41A1,1,0,0,1,504,14Zm-4.24-2.32a1,1,0,0,1-.71-.29L497.6,10A1,1,0,1,1,499,8.6L500.42,10a1,1,0,0,1-.71,1.71Zm9.9-3.33a1,1,0,0,1-.71-1.71l1.41-1.41a1,1,0,1,1,1.41,1.41l-1.41,1.41A1,1,0,0,1,509.62,8.38ZM494.06,6.06a1,1,0,0,1-.71-.29L492.59,5h-.09a1,1,0,1,1,0-2h.91l1.35,1.35a1,1,0,0,1-.71,1.71ZM998.22,5h-2a1,1,0,1,1,0-2h2a1,1,0,0,1,0,2Zm-8,0h-2a1,1,0,1,1,0-2h2a1,1,0,0,1,0,2Zm-8,0h-2a1,1,0,1,1,0-2h2a1,1,0,0,1,0,2Zm-8,0h-2a1,1,0,1,1,0-2h2a1,1,0,0,1,0,2Zm-8,0h-2a1,1,0,1,1,0-2h2a1,1,0,0,1,0,2Zm-8,0h-2a1,1,0,1,1,0-2h2a1,1,0,0,1,0,2Zm-8,0h-2a1,1,0,1,1,0-2h2a1,1,0,0,1,0,2Zm-8,0h-2a1,1,0,1,1,0-2h2a1,1,0,0,1,0,2Zm-8,0h-2a1,1,0,1,1,0-2h2a1,1,0,0,1,0,2Zm-8,0h-2a1,1,0,1,1,0-2h2a1,1,0,0,1,0,2Zm-8,0h-2a1,1,0,1,1,0-2h2a1,1,0,0,1,0,2Zm-8,0h-2a1,1,0,1,1,0-2h2a1,1,0,0,1,0,2Zm-8,0h-2a1,1,0,1,1,0-2h2a1,1,0,0,1,0,2Zm-8,0h-2a1,1,0,1,1,0-2h2a1,1,0,0,1,0,2Zm-8,0h-2a1,1,0,1,1,0-2h2a1,1,0,0,1,0,2Zm-8,0h-2a1,1,0,1,1,0-2h2a1,1,0,0,1,0,2Zm-8,0h-2a1,1,0,1,1,0-2h2a1,1,0,0,1,0,2Zm-8,0h-2a1,1,0,1,1,0-2h2a1,1,0,0,1,0,2Zm-8,0h-2a1,1,0,1,1,0-2h2a1,1,0,0,1,0,2Zm-8,0h-2a1,1,0,1,1,0-2h2a1,1,0,0,1,0,2Zm-8,0h-2a1,1,0,1,1,0-2h2a1,1,0,0,1,0,2Zm-8,0h-2a1,1,0,1,1,0-2h2a1,1,0,0,1,0,2Zm-8,0h-2a1,1,0,1,1,0-2h2a1,1,0,0,1,0,2Zm-8,0h-2a1,1,0,1,1,0-2h2a1,1,0,0,1,0,2Zm-8,0h-2a1,1,0,1,1,0-2h2a1,1,0,0,1,0,2Zm-8,0h-2a1,1,0,1,1,0-2h2a1,1,0,0,1,0,2Zm-8,0h-2a1,1,0,1,1,0-2h2a1,1,0,0,1,0,2Zm-8,0h-2a1,1,0,1,1,0-2h2a1,1,0,0,1,0,2Zm-8,0h-2a1,1,0,1,1,0-2h2a1,1,0,0,1,0,2Zm-8,0h-2a1,1,0,1,1,0-2h2a1,1,0,0,1,0,2Zm-8,0h-2a1,1,0,1,1,0-2h2a1,1,0,0,1,0,2Zm-8,0h-2a1,1,0,1,1,0-2h2a1,1,0,0,1,0,2Zm-8,0h-2a1,1,0,1,1,0-2h2a1,1,0,0,1,0,2Zm-8,0h-2a1,1,0,1,1,0-2h2a1,1,0,0,1,0,2Zm-8,0h-2a1,1,0,1,1,0-2h2a1,1,0,0,1,0,2Zm-8,0h-2a1,1,0,1,1,0-2h2a1,1,0,0,1,0,2Zm-8,0h-2a1,1,0,1,1,0-2h2a1,1,0,0,1,0,2Zm-8,0h-2a1,1,0,1,1,0-2h2a1,1,0,0,1,0,2Zm-8,0h-2a1,1,0,1,1,0-2h2a1,1,0,0,1,0,2Zm-8,0h-2a1,1,0,1,1,0-2h2a1,1,0,0,1,0,2Zm-8,0h-2a1,1,0,1,1,0-2h2a1,1,0,0,1,0,2Zm-8,0h-2a1,1,0,1,1,0-2h2a1,1,0,0,1,0,2Zm-8,0h-2a1,1,0,1,1,0-2h2a1,1,0,0,1,0,2Zm-8,0h-2a1,1,0,1,1,0-2h2a1,1,0,0,1,0,2Zm-8,0h-2a1,1,0,1,1,0-2h2a1,1,0,0,1,0,2Zm-8,0h-2a1,1,0,1,1,0-2h2a1,1,0,0,1,0,2Zm-8,0h-2a1,1,0,1,1,0-2h2a1,1,0,0,1,0,2Zm-8,0h-2a1,1,0,1,1,0-2h2a1,1,0,0,1,0,2Zm-8,0h-2a1,1,0,1,1,0-2h2a1,1,0,0,1,0,2Zm-8,0h-2a1,1,0,1,1,0-2h2a1,1,0,0,1,0,2Zm-8,0h-2a1,1,0,1,1,0-2h2a1,1,0,0,1,0,2Zm-8,0h-2a1,1,0,1,1,0-2h2a1,1,0,0,1,0,2Zm-8,0h-2a1,1,0,1,1,0-2h2a1,1,0,0,1,0,2Zm-8,0h-2a1,1,0,1,1,0-2h2a1,1,0,0,1,0,2Zm-8,0h-2a1,1,0,1,1,0-2h2a1,1,0,0,1,0,2Zm-8,0h-2a1,1,0,1,1,0-2h2a1,1,0,0,1,0,2Zm-8,0h-2a1,1,0,1,1,0-2h2a1,1,0,0,1,0,2Zm-8,0h-2a1,1,0,1,1,0-2h2a1,1,0,0,1,0,2Zm-8,0h-2a1,1,0,1,1,0-2h2a1,1,0,0,1,0,2Zm-8,0h-2a1,1,0,1,1,0-2h2a1,1,0,0,1,0,2Zm-8,0h-2a1,1,0,1,1,0-2h2a1,1,0,0,1,0,2ZM486.5,5h-2a1,1,0,1,1,0-2h2a1,1,0,0,1,0,2Zm-8,0h-2a1,1,0,1,1,0-2h2a1,1,0,0,1,0,2Zm-8,0h-2a1,1,0,1,1,0-2h2a1,1,0,0,1,0,2Zm-8,0h-2a1,1,0,1,1,0-2h2a1,1,0,0,1,0,2Zm-8,0h-2a1,1,0,1,1,0-2h2a1,1,0,0,1,0,2Zm-8,0h-2a1,1,0,1,1,0-2h2a1,1,0,0,1,0,2Zm-8,0h-2a1,1,0,1,1,0-2h2a1,1,0,0,1,0,2Zm-8,0h-2a1,1,0,1,1,0-2h2a1,1,0,0,1,0,2Zm-8,0h-2a1,1,0,1,1,0-2h2a1,1,0,0,1,0,2Zm-8,0h-2a1,1,0,1,1,0-2h2a1,1,0,0,1,0,2Zm-8,0h-2a1,1,0,1,1,0-2h2a1,1,0,0,1,0,2Zm-8,0h-2a1,1,0,1,1,0-2h2a1,1,0,0,1,0,2Zm-8,0h-2a1,1,0,1,1,0-2h2a1,1,0,0,1,0,2Zm-8,0h-2a1,1,0,1,1,0-2h2a1,1,0,0,1,0,2Zm-8,0h-2a1,1,0,1,1,0-2h2a1,1,0,0,1,0,2Zm-8,0h-2a1,1,0,1,1,0-2h2a1,1,0,0,1,0,2Zm-8,0h-2a1,1,0,1,1,0-2h2a1,1,0,0,1,0,2Zm-8,0h-2a1,1,0,1,1,0-2h2a1,1,0,0,1,0,2Zm-8,0h-2a1,1,0,1,1,0-2h2a1,1,0,0,1,0,2Zm-8,0h-2a1,1,0,1,1,0-2h2a1,1,0,0,1,0,2Zm-8,0h-2a1,1,0,1,1,0-2h2a1,1,0,0,1,0,2Zm-8,0h-2a1,1,0,1,1,0-2h2a1,1,0,0,1,0,2Zm-8,0h-2a1,1,0,1,1,0-2h2a1,1,0,0,1,0,2Zm-8,0h-2a1,1,0,1,1,0-2h2a1,1,0,0,1,0,2Zm-8,0h-2a1,1,0,1,1,0-2h2a1,1,0,0,1,0,2Zm-8,0h-2a1,1,0,1,1,0-2h2a1,1,0,0,1,0,2Zm-8,0h-2a1,1,0,1,1,0-2h2a1,1,0,0,1,0,2Zm-8,0h-2a1,1,0,1,1,0-2h2a1,1,0,0,1,0,2Zm-8,0h-2a1,1,0,1,1,0-2h2a1,1,0,0,1,0,2Zm-8,0h-2a1,1,0,1,1,0-2h2a1,1,0,0,1,0,2Zm-8,0h-2a1,1,0,1,1,0-2h2a1,1,0,0,1,0,2Zm-8,0h-2a1,1,0,1,1,0-2h2a1,1,0,0,1,0,2Zm-8,0h-2a1,1,0,1,1,0-2h2a1,1,0,0,1,0,2Zm-8,0h-2a1,1,0,1,1,0-2h2a1,1,0,0,1,0,2Zm-8,0h-2a1,1,0,1,1,0-2h2a1,1,0,0,1,0,2Zm-8,0h-2a1,1,0,1,1,0-2h2a1,1,0,0,1,0,2Zm-8,0h-2a1,1,0,1,1,0-2h2a1,1,0,0,1,0,2Zm-8,0h-2a1,1,0,1,1,0-2h2a1,1,0,0,1,0,2Zm-8,0h-2a1,1,0,1,1,0-2h2a1,1,0,0,1,0,2Zm-8,0h-2a1,1,0,1,1,0-2h2a1,1,0,0,1,0,2Zm-8,0h-2a1,1,0,1,1,0-2h2a1,1,0,0,1,0,2Zm-8,0h-2a1,1,0,1,1,0-2h2a1,1,0,0,1,0,2Zm-8,0h-2a1,1,0,1,1,0-2h2a1,1,0,0,1,0,2Zm-8,0h-2a1,1,0,1,1,0-2h2a1,1,0,0,1,0,2Zm-8,0h-2a1,1,0,1,1,0-2h2a1,1,0,0,1,0,2Zm-8,0h-2a1,1,0,1,1,0-2h2a1,1,0,0,1,0,2Zm-8,0h-2a1,1,0,1,1,0-2h2a1,1,0,0,1,0,2Zm-8,0h-2a1,1,0,1,1,0-2h2a1,1,0,0,1,0,2Zm-8,0h-2a1,1,0,1,1,0-2h2a1,1,0,0,1,0,2Zm-8,0h-2a1,1,0,1,1,0-2h2a1,1,0,0,1,0,2Zm-8,0h-2a1,1,0,1,1,0-2h2a1,1,0,0,1,0,2Zm-8,0h-2a1,1,0,1,1,0-2h2a1,1,0,0,1,0,2Zm-8,0h-2a1,1,0,1,1,0-2h2a1,1,0,0,1,0,2Zm-8,0h-2a1,1,0,1,1,0-2h2a1,1,0,0,1,0,2Zm-8,0h-2a1,1,0,1,1,0-2h2a1,1,0,0,1,0,2Zm-8,0h-2a1,1,0,1,1,0-2h2a1,1,0,0,1,0,2Zm-8,0h-2a1,1,0,1,1,0-2h2a1,1,0,0,1,0,2Zm-8,0h-2a1,1,0,1,1,0-2h2a1,1,0,0,1,0,2Zm-8,0h-2a1,1,0,1,1,0-2h2a1,1,0,0,1,0,2Zm-8,0h-2a1,1,0,1,1,0-2h2a1,1,0,0,1,0,2Zm-8,0h-2a1,1,0,0,1,0-2h2a1,1,0,0,1,0,2Z"/>
      <circle cx="1002" cy="4" r="4"/>
      <circle cx="4" cy="4.4" r="4"/>
    </g>
  </g>
</svg>
