<svg xmlns:xlink="http://www.w3.org/1999/xlink" xmlns="http://www.w3.org/2000/svg" viewBox="0 0 331.05 108.67">
  <defs>
    <style>.cls-1{fill:url(#New_Gradient_Swatch_2);}.cls-2{fill:url(#New_Gradient_Swatch_2-2);}</style>
    <linearGradient id="New_Gradient_Swatch_2" x1="15.96" y1="78.3" x2="62.16" y2="78.3" gradientUnits="userSpaceOnUse">
      <stop offset="0" stop-color="#ebc17d"/>
      <stop offset="0.01" stop-color="#ebc17d"/>
      <stop offset="0.19" stop-color="#edd089"/>
      <stop offset="0.41" stop-color="#f4e8d9"/>
      <stop offset="0.46" stop-color="#ebd6ba"/>
      <stop offset="0.59" stop-color="#d3aa6c"/>
      <stop offset="0.68" stop-color="#c58e3c"/>
      <stop offset="0.73" stop-color="#bf8329"/>
      <stop offset="0.79" stop-color="#c88f3b"/>
      <stop offset="0.9" stop-color="#deae68"/>
      <stop offset="0.95" stop-color="#eabe81"/>
      <stop offset="1" stop-color="#eabe81"/>
    </linearGradient>
    <linearGradient id="New_Gradient_Swatch_2-2" x1="9.8" y1="30.63" x2="67.94" y2="30.63"
                    xlink:href="#New_Gradient_Swatch_2"/>
  </defs>
  <title>logo 3Asset 29</title>
  <g id="Layer_2" data-name="Layer 2">
    <g id="Layer_1-2" data-name="Layer 1">
      <polygon
        points="103.5 19.89 103.5 31.41 124.35 31.41 124.35 37.87 103.5 37.87 103.5 49.64 127.52 49.64 127.52 56.1 96.31 56.1 96.31 13.43 126.79 13.43 126.79 19.89 103.5 19.89"/>
      <polygon
        points="175.38 56.1 175.31 24.22 161.84 51.65 157.15 51.65 143.68 24.22 143.68 56.1 136.91 56.1 136.91 13.43 145.44 13.43 159.53 41.77 173.55 13.43 182.02 13.43 182.02 56.1 175.38 56.1"/>
      <path
        d="M201.1,36.78h9.51c6.58,0,10.3-2.8,10.3-8.59,0-5.61-3.72-8.29-10.3-8.29H201.1Zm9.81-23.35c10.73,0,16.89,5.3,16.89,14.57,0,9.63-6.16,15.24-16.89,15.24H201.1V56.1h-7.19V13.43Z"/>
      <rect x="235.55" y="13.43" width="7.19" height="42.67"/>
      <path
        d="M271.88,36.78c6.58,0,10.36-2.8,10.36-8.59,0-5.61-3.78-8.29-10.36-8.29H261.76V36.78Zm1.95,6.4c-.61.06-1.28.06-1.95.06H261.76V56.1h-7.19V13.43h17.31c10.91,0,17.19,5.3,17.19,14.57,0,6.83-3.17,11.64-8.84,13.84L289.8,56.1h-8.17Z"/>
      <polygon
        points="306.45 19.89 306.45 31.41 327.29 31.41 327.29 37.87 306.45 37.87 306.45 49.64 330.46 49.64 330.46 56.1 299.25 56.1 299.25 13.43 329.73 13.43 329.73 19.89 306.45 19.89"/>
      <path
        d="M116.93,76.11l-1.6,2a9.8,9.8,0,0,0-6.9-2.94,9.21,9.21,0,1,0,0,18.41,10.18,10.18,0,0,0,6.9-2.8L117,92.65a12.89,12.89,0,0,1-8.67,3.6,11.78,11.78,0,1,1,.1-23.54,12.62,12.62,0,0,1,8.54,3.4"/>
      <rect x="135.43" y="72.78" width="2.67" height="23.34"/>
      <polygon
        points="175.52 96.12 161.51 77.38 161.51 96.12 158.84 96.12 158.84 72.78 161.61 72.78 175.62 91.55 175.62 72.78 178.25 72.78 178.25 96.12 175.52 96.12"/>
      <polygon
        points="201.69 75.34 201.69 83.01 213.47 83.01 213.47 85.58 201.69 85.58 201.69 93.58 215.3 93.58 215.3 96.12 199.03 96.12 199.03 72.78 214.87 72.78 214.87 75.34 201.69 75.34"/>
      <polygon
        points="255.55 96.12 255.52 76.88 247.01 93.65 245.41 93.65 236.94 76.88 236.94 96.12 234.41 96.12 234.41 72.78 237.71 72.78 246.25 89.58 254.75 72.78 258.01 72.78 258.01 96.12 255.55 96.12"/>
      <path d="M287.16,75.81,282,87.65h10.47Zm-6.34,14.41-2.6,5.9h-2.84l10.47-23.34h2.77l10.44,23.34h-2.9l-2.6-5.9Z"/>
      <path
        d="M330.48,74.84l-1.14,2.5a12.06,12.06,0,0,0-6.44-2c-3,0-5,1.14-5,3.1,0,6,13.14,2.87,13.1,11.34,0,3.9-3.44,6.4-8.44,6.4a13.32,13.32,0,0,1-8.94-3.57l1.2-2.4a11.61,11.61,0,0,0,7.77,3.3c3.37,0,5.47-1.37,5.47-3.6,0-6.14-13.11-2.87-13.11-11.24,0-3.67,3.24-6,8.07-6a13.82,13.82,0,0,1,7.4,2.17"/>
      <path d="M0,0V108.67H77.74V0Z"/>
      <path class="cls-1"
            d="M61.28,87c-.92,3.18-1.83,6.35-2.76,9.52a.44.44,0,0,1,0,.09,12.57,12.57,0,0,1-2.95.07H18.72a9,9,0,0,1-2.38-.06c-1.67-.7,2.63-4.3,2.82-5.19,0-.59,0-1.17,0-1.77,0-1.31,0-2.64,0-3.95V67.18a8.37,8.37,0,0,0-.08-2.32,3,3,0,0,0-.54-.78c-.79-1-2.35-2.09-2.6-3.28-.16-.69.65-.76,1.08-1H54.3c1.3,0,3.93-.16,4.79.49a1.5,1.5,0,0,1,.47.65A17.54,17.54,0,0,1,60,63.55c.19,1.46.39,2.91.57,4.36a9.8,9.8,0,0,1,.26,2.49c-.14.8-.93,1.36-1.64.7a5.31,5.31,0,0,1-.9-1.56c-1-2-1.78-4.52-4.1-5.5-1.56-.65-3.75-.41-5.63-.41h-17a4.16,4.16,0,0,0-1.67.11l-.06.09a12.25,12.25,0,0,0-.09,3v9.2H43.55A4.61,4.61,0,0,0,44.92,76c1.14-.41,1.76-2.31,2-3.32.07-.3.06-.87.31-1.08s1.29-.12,1.7-.12V84.7c0,.22,0,.75-.16.85s-1.23.21-1.46-.07a2.63,2.63,0,0,1-.34-1c-.28-.9-.77-3.06-1.86-3.32l-1.31-.05H33.53c-.54,0-3.64-.07-3.77.14a8.07,8.07,0,0,0-.11,2.59v9H51.16a6.48,6.48,0,0,0,2-.14,4.14,4.14,0,0,0,1.33-1,11.36,11.36,0,0,0,1.47-2l2.49-4.17c.24-.41.74-1.43,1.17-1.65a8.79,8.79,0,0,1,2.59-.11C61.86,84.94,61.56,86,61.28,87Z"/>
      <path class="cls-2"
            d="M67.93,13.59l-1.71,8.16q-1.88,8.88-3.76,17.75-.69,3.31-1.4,6.62a18.38,18.38,0,0,0-.56,2.83h-.08c0,.14-.36.08-.5.08H40.23a4.08,4.08,0,0,0-1.32.08H23c-.78,0-5.3.11-5.58-.13S17,47.62,17,47.25c-.38-1.83-.78-3.66-1.16-5.48q-2.24-10.54-4.49-21.08l-1.13-5.4A6,6,0,0,1,9.83,13c.09-.48.4-.65.77-.89a2.16,2.16,0,0,1,1,.44,6.25,6.25,0,0,1,.93,1.27l1.54,2.39L20,25.35l1.75,2.71.78,1.27h.17c.12-.33.25-.66.38-1L24,26.1,28.27,16c.38-.86,1.19-3.94,2.52-3.71s2,2.91,2.41,3.88l5.62,13.08h.08l5.82-13.47c.38-.86,1.22-3.79,2.59-3.55,1.08.19,1.91,3.14,2.31,4l5.49,13.07h.09l9-13.94c.45-.71,2.23-4.24,3.47-3A1.5,1.5,0,0,1,67.93,13.59Z"/>
    </g>
  </g>
</svg>
