<svg xmlns:xlink="http://www.w3.org/1999/xlink" xmlns="http://www.w3.org/2000/svg" viewBox="0 0 510.5 102.35">
  <defs>
    <style>.cls-1{fill:url(#New_Gradient_Swatch_2);}.cls-2{fill:url(#New_Gradient_Swatch_2-2);}</style>
    <linearGradient id="New_Gradient_Swatch_2" x1="8.3" y1="27.76" x2="65.4" y2="27.76" gradientUnits="userSpaceOnUse">
      <stop offset="0" stop-color="#ebc17d"/>
      <stop offset="0.01" stop-color="#ebc17d"/>
      <stop offset="0.19" stop-color="#edd089"/>
      <stop offset="0.41" stop-color="#f4e8d9"/>
      <stop offset="0.46" stop-color="#ebd6ba"/>
      <stop offset="0.59" stop-color="#d3aa6c"/>
      <stop offset="0.68" stop-color="#c58e3c"/>
      <stop offset="0.73" stop-color="#bf8329"/>
      <stop offset="0.79" stop-color="#c88f3b"/>
      <stop offset="0.9" stop-color="#deae68"/>
      <stop offset="0.95" stop-color="#eabe81"/>
      <stop offset="1" stop-color="#eabe81"/>
    </linearGradient>
    <linearGradient id="New_Gradient_Swatch_2-2" x1="14.35" y1="73.43" x2="59.73" y2="73.43"
                    xlink:href="#New_Gradient_Swatch_2"/>
  </defs>
  <title>logo footerAsset 15</title>
  <g id="Layer_2" data-name="Layer 2">
    <g id="Layer_1-2" data-name="Layer 1">
      <polygon
        points="101.22 61.71 101.22 70.83 117.73 70.83 117.73 75.95 101.22 75.95 101.22 85.27 120.24 85.27 120.24 90.38 95.53 90.38 95.53 56.6 119.66 56.6 119.66 61.71 101.22 61.71"/>
      <polygon
        points="158.13 90.38 158.08 65.14 147.41 86.86 143.7 86.86 133.03 65.14 133.03 90.38 127.67 90.38 127.67 56.59 134.43 56.59 145.58 79.04 156.68 56.59 163.39 56.59 163.39 90.38 158.13 90.38"/>
      <path
        d="M178.5,75.08H186c5.21,0,8.16-2.22,8.16-6.81s-2.95-6.56-8.16-6.56H178.5Zm7.77-18.49c8.5,0,13.37,4.2,13.37,11.54,0,7.63-4.88,12.07-13.37,12.07H178.5V90.38h-5.69V56.6Z"/>
      <rect x="205.77" y="56.59" width="5.7" height="33.79"/>
      <path
        d="M234.54,75.08c5.21,0,8.21-2.22,8.21-6.8s-3-6.56-8.21-6.56h-8V75.08Zm1.54,5.07c-.48,0-1,0-1.54,0h-8V90.38h-5.7V56.6h13.71c8.64,0,13.61,4.2,13.61,11.54,0,5.4-2.51,9.22-7,11l7.58,11.3h-6.47Z"/>
      <polygon
        points="261.91 61.71 261.91 70.83 278.42 70.83 278.42 75.95 261.91 75.95 261.91 85.27 280.93 85.27 280.93 90.38 256.22 90.38 256.22 56.6 280.35 56.6 280.35 61.71 261.91 61.71"/>
      <path
        d="M318.82,61.13l-1.21,1.55A15.65,15.65,0,0,0,307,58.53a15,15,0,1,0,0,29.93,15.93,15.93,0,0,0,10.62-4.1l1.25,1.4a17.74,17.74,0,0,1-11.92,4.68,16.93,16.93,0,1,1,0-33.84,17.86,17.86,0,0,1,11.87,4.54"/>
      <rect x="327.51" y="56.64" width="2.03" height="33.74"/>
      <polygon
        points="366.12 90.38 343.63 59.73 343.63 90.38 341.6 90.38 341.6 56.64 343.97 56.64 366.51 87.29 366.51 56.64 368.49 56.64 368.49 90.38 366.12 90.38"/>
      <polygon
        points="382.58 58.62 382.58 72.09 400.15 72.09 400.15 74.12 382.58 74.12 382.58 88.4 402.95 88.4 402.95 90.38 380.56 90.38 380.56 56.64 402.33 56.64 402.33 58.62 382.58 58.62"/>
      <polygon
        points="442.97 90.38 442.92 59.44 429.07 86.71 428.15 86.71 414.2 59.44 414.2 90.38 412.27 90.38 412.27 56.64 415.07 56.64 428.63 83.19 442.1 56.64 444.9 56.64 444.9 90.38 442.97 90.38"/>
      <path d="M467.93,59,459,78.75h18Zm-9.8,21.82-4.35,9.61h-2.22l15.3-33.74H469l15.45,33.74h-2.22l-4.39-9.61Z"/>
      <path
        d="M509.34,59.3l-.92,1.83a17,17,0,0,0-8.83-2.46c-5.36,0-8.83,2.22-8.83,5.74,0,10.28,19.84,5,19.74,17.43,0,5.21-4.68,8.59-11.73,8.59a17.79,17.79,0,0,1-12-4.88l1.06-1.79a15.9,15.9,0,0,0,11,4.59c5.79,0,9.51-2.51,9.51-6.47.09-10.57-19.74-5.16-19.74-17.33,0-4.88,4.44-8,11.1-8a18.69,18.69,0,0,1,9.65,2.75"/>
      <path d="M0,102.35H73.54V0H0Z"/>
      <path class="cls-1"
            d="M65.39,11q-.84,4-1.68,8Q61.87,27.74,60,36.46q-.68,3.25-1.37,6.5a17.94,17.94,0,0,0-.55,2.78H58c0,.14-.36.08-.49.08H38.19a4.08,4.08,0,0,0-1.3.08H21.28c-.76,0-5.21.11-5.48-.12a4.54,4.54,0,0,1-.46-1.7c-.38-1.8-.76-3.59-1.14-5.38Q12,28.33,9.79,18l-1.11-5.3a5.84,5.84,0,0,1-.34-2.21c.09-.48.39-.64.76-.88a2.13,2.13,0,0,1,1,.43A6.1,6.1,0,0,1,11,11.27l1.51,2.34,5.77,9L20,25.22l.77,1.25H21c.12-.32.25-.65.37-1l.92-2.21q2.1-5,4.19-9.92c.38-.85,1.17-3.87,2.47-3.64s1.94,2.85,2.37,3.81L36.81,26.4h.08l5.72-13.23c.38-.85,1.2-3.72,2.54-3.49,1.06.18,1.88,3.08,2.27,4l5.39,12.84h.08l8.81-13.69c.44-.69,2.19-4.17,3.41-2.91A1.48,1.48,0,0,1,65.39,11"/>
      <path class="cls-2"
            d="M58.86,82q-1.36,4.68-2.71,9.35a.34.34,0,0,1,0,.08,12.23,12.23,0,0,1-2.89.07H17.06a8.7,8.7,0,0,1-2.33-.06c-1.64-.69,2.59-4.22,2.77-5.1,0-.58,0-1.15,0-1.74,0-1.29,0-2.59,0-3.88V62.51a8.19,8.19,0,0,0-.08-2.28,3,3,0,0,0-.54-.77c-.77-1-2.3-2.05-2.55-3.22-.15-.68.64-.75,1.06-1H52c1.27,0,3.86-.15,4.7.48a1.48,1.48,0,0,1,.46.64,17.24,17.24,0,0,1,.39,2.52c.19,1.43.38,2.86.55,4.29a9.53,9.53,0,0,1,.25,2.44c-.14.79-.91,1.33-1.61.69a5.22,5.22,0,0,1-.88-1.53c-1-2-1.75-4.43-4-5.4-1.53-.64-3.69-.41-5.53-.41H29.58a4,4,0,0,0-1.64.11l-.06.09a11.92,11.92,0,0,0-.09,3v9H41.45a4.55,4.55,0,0,0,1.35-.07c1.11-.4,1.73-2.27,2-3.26.07-.3.06-.86.3-1.06s1.27-.12,1.68-.12v13c0,.22,0,.73-.16.84s-1.2.2-1.43-.07a2.63,2.63,0,0,1-.33-.94c-.28-.89-.76-3-1.83-3.26l-1.29-.05H31.6a19.84,19.84,0,0,0-3.7.14,7.9,7.9,0,0,0-.11,2.55V87.8H48.92a6.44,6.44,0,0,0,1.92-.13,4.07,4.07,0,0,0,1.3-1,11.08,11.08,0,0,0,1.44-1.94L56,80.64c.24-.4.73-1.41,1.15-1.62a8.7,8.7,0,0,1,2.54-.1c-.29,1-.59,2.06-.87,3.1"/>
    </g>
  </g>
</svg>
