<?xml version="1.0" encoding="utf-8"?>
<!-- Generator: Adobe Illustrator 19.2.0, SVG Export Plug-In . SVG Version: 6.00 Build 0)  -->
<svg version="1.1" id="Layer_1" xmlns="http://www.w3.org/2000/svg" x="0px"
     y="0px"
     viewBox="0 0 331 108.7" style="enable-background:new 0 0 331 108.7;" xml:space="preserve">
<style type="text/css">
	.st0{fill:#010101;}
	.st1{fill:url(#SVGID_1_);}
	.st2{fill:url(#SVGID_2_);}
</style>
  <g>
	<polygon class="st0" points="103.5,19.9 103.5,31.4 124.3,31.4 124.3,37.9 103.5,37.9 103.5,49.6 127.5,49.6 127.5,56.1 96.3,56.1
		96.3,13.4 126.8,13.4 126.8,19.9 	"/>
    <polygon class="st0" points="175.4,56.1 175.3,24.2 161.8,51.6 157.1,51.6 143.7,24.2 143.7,56.1 136.9,56.1 136.9,13.4
		145.4,13.4 159.5,41.8 173.5,13.4 182,13.4 182,56.1 	"/>
    <path class="st0" d="M201.1,36.8h9.5c6.6,0,10.3-2.8,10.3-8.6c0-5.6-3.7-8.3-10.3-8.3h-9.5V36.8z M210.9,13.4
		c10.7,0,16.9,5.3,16.9,14.6c0,9.6-6.2,15.2-16.9,15.2h-9.8v12.9h-7.2V13.4H210.9z"/>
    <rect x="235.5" y="13.4" class="st0" width="7.2" height="42.7"/>
    <path class="st0" d="M271.9,36.8c6.6,0,10.4-2.8,10.4-8.6c0-5.6-3.8-8.3-10.4-8.3h-10.1v16.9H271.9z M273.8,43.2
		c-0.6,0.1-1.3,0.1-1.9,0.1h-10.1v12.9h-7.2V13.4h17.3c10.9,0,17.2,5.3,17.2,14.6c0,6.8-3.2,11.6-8.8,13.8l9.6,14.3h-8.2L273.8,43.2
		z"/>
    <polygon class="st0" points="306.4,19.9 306.4,31.4 327.3,31.4 327.3,37.9 306.4,37.9 306.4,49.6 330.5,49.6 330.5,56.1
		299.3,56.1 299.3,13.4 329.7,13.4 329.7,19.9 	"/>
    <path class="st0" d="M116.9,76.1l-1.6,2c-1.8-1.8-4.3-2.9-6.9-2.9c-5.3,0-9.5,4.1-9.5,9.2c0,5.1,4.2,9.2,9.5,9.2
		c2.6,0,5.1-1.1,6.9-2.8l1.6,1.8c-2.3,2.2-5.4,3.6-8.7,3.6c-6.7,0-12.1-5.2-12.1-11.8c0-6.5,5.4-11.7,12.2-11.7
		C111.6,72.7,114.7,74,116.9,76.1"/>
    <rect x="135.4" y="72.8" class="st0" width="2.7" height="23.3"/>
    <polygon class="st0" points="175.5,96.1 161.5,77.4 161.5,96.1 158.8,96.1 158.8,72.8 161.6,72.8 175.6,91.5 175.6,72.8
		178.3,72.8 178.3,96.1 	"/>
    <polygon class="st0" points="201.7,75.3 201.7,83 213.5,83 213.5,85.6 201.7,85.6 201.7,93.6 215.3,93.6 215.3,96.1 199,96.1
		199,72.8 214.9,72.8 214.9,75.3 	"/>
    <polygon class="st0" points="255.5,96.1 255.5,76.9 247,93.6 245.4,93.6 236.9,76.9 236.9,96.1 234.4,96.1 234.4,72.8 237.7,72.8
		246.2,89.6 254.7,72.8 258,72.8 258,96.1 	"/>
    <path class="st0" d="M287.2,75.8L282,87.6h10.5L287.2,75.8z M280.8,90.2l-2.6,5.9h-2.8l10.5-23.3h2.8l10.4,23.3h-2.9l-2.6-5.9
		H280.8z"/>
    <path class="st0" d="M330.5,74.8l-1.1,2.5c-2.1-1.4-4.6-2-6.4-2c-3,0-5,1.1-5,3.1c0,6,13.1,2.9,13.1,11.3c0,3.9-3.4,6.4-8.4,6.4
		c-3.4,0-6.7-1.5-8.9-3.6l1.2-2.4c2.2,2.1,5.1,3.3,7.8,3.3c3.4,0,5.5-1.4,5.5-3.6c0-6.1-13.1-2.9-13.1-11.2c0-3.7,3.2-6,8.1-6
		C325.8,72.7,328.5,73.5,330.5,74.8"/>
    <path class="st0" d="M0,0v108.7h77.7V0H0z"/>
    <linearGradient id="SVGID_1_" gradientUnits="userSpaceOnUse" x1="15.9584" y1="78.2997" x2="62.1617" y2="78.2997">
		<stop offset="0" style="stop-color:#EBC07D"/>
      <stop offset="5.618000e-03" style="stop-color:#EBC07D"/>
      <stop offset="0.1534" style="stop-color:#EDCD87"/>
      <stop offset="0.1854" style="stop-color:#EDD089"/>
      <stop offset="0.4101" style="stop-color:#F3E7D9"/>
      <stop offset="0.5081" style="stop-color:#DFBF94"/>
      <stop offset="0.6156" style="stop-color:#CC9D59"/>
      <stop offset="0.6924" style="stop-color:#C28A36"/>
      <stop offset="0.7303" style="stop-color:#BE832B"/>
      <stop offset="0.7749" style="stop-color:#C48B35"/>
      <stop offset="0.8634" style="stop-color:#D5A157"/>
      <stop offset="0.9494" style="stop-color:#EABE80"/>
      <stop offset="1" style="stop-color:#EABE80"/>
	</linearGradient>
    <path class="st1" d="M61.3,87c-0.9,3.2-1.8,6.4-2.8,9.5c0,0,0,0.1,0,0.1c-0.8,0.2-2,0.1-2.9,0.1h-7H25.8h-7c-0.7,0-1.9,0.1-2.4-0.1
		c-1.7-0.7,2.6-4.3,2.8-5.2c0-0.6,0-1.2,0-1.8c0-1.3,0-2.6,0-3.9V73.2v-6c0-0.7,0.1-1.7-0.1-2.3c-0.1-0.3-0.4-0.5-0.5-0.8
		c-0.8-1-2.3-2.1-2.6-3.3c-0.2-0.7,0.7-0.8,1.1-1h30.6h6.6c1.3,0,3.9-0.2,4.8,0.5c0.2,0.2,0.4,0.4,0.5,0.6c0.3,0.8,0.3,1.7,0.4,2.6
		c0.2,1.5,0.4,2.9,0.6,4.4c0.1,0.8,0.4,1.7,0.3,2.5c-0.1,0.8-0.9,1.4-1.6,0.7c-0.4-0.4-0.6-1-0.9-1.6c-1-2-1.8-4.5-4.1-5.5
		c-1.6-0.7-3.8-0.4-5.6-0.4H35.7h-4.2c-0.5,0-1.3-0.1-1.7,0.1c0,0,0,0.1-0.1,0.1c-0.2,0.6-0.1,2.3-0.1,3v9.2h11.3h2.7
		c0.4,0,1,0.1,1.4-0.1c1.1-0.4,1.8-2.3,2-3.3c0.1-0.3,0.1-0.9,0.3-1.1c0.3-0.2,1.3-0.1,1.7-0.1v13.2c0,0.2,0,0.7-0.2,0.9
		c-0.3,0.2-1.2,0.2-1.5-0.1c-0.2-0.3-0.2-0.6-0.3-1c-0.3-0.9-0.8-3.1-1.9-3.3c-0.4,0-0.9,0-1.3-0.1h-2.2h-8c-0.5,0-3.6-0.1-3.8,0.1
		c-0.3,0.5-0.1,1.9-0.1,2.6v9h17.1h4.4c0.7,0,1.4,0.1,2-0.1c0.5-0.2,0.9-0.6,1.3-1c0.6-0.6,1-1.3,1.5-2c0.8-1.4,1.7-2.8,2.5-4.2
		c0.2-0.4,0.7-1.4,1.2-1.6c0.5-0.2,1.9-0.1,2.6-0.1C61.9,84.9,61.6,86,61.3,87z"/>
    <linearGradient id="SVGID_2_" gradientUnits="userSpaceOnUse" x1="9.8002" y1="30.6349" x2="67.936" y2="30.6349">
		<stop offset="0" style="stop-color:#EBC07D"/>
      <stop offset="5.618000e-03" style="stop-color:#EBC07D"/>
      <stop offset="0.1534" style="stop-color:#EDCD87"/>
      <stop offset="0.1854" style="stop-color:#EDD089"/>
      <stop offset="0.4101" style="stop-color:#F3E7D9"/>
      <stop offset="0.5081" style="stop-color:#DFBF94"/>
      <stop offset="0.6156" style="stop-color:#CC9D59"/>
      <stop offset="0.6924" style="stop-color:#C28A36"/>
      <stop offset="0.7303" style="stop-color:#BE832B"/>
      <stop offset="0.7749" style="stop-color:#C48B35"/>
      <stop offset="0.8634" style="stop-color:#D5A157"/>
      <stop offset="0.9494" style="stop-color:#EABE80"/>
      <stop offset="1" style="stop-color:#EABE80"/>
	</linearGradient>
    <path class="st2" d="M67.9,13.6c-0.6,2.7-1.1,5.4-1.7,8.2c-1.3,5.9-2.5,11.8-3.8,17.8c-0.5,2.2-0.9,4.4-1.4,6.6
		c-0.2,0.9-0.5,1.9-0.6,2.8h-0.1c0,0.1-0.4,0.1-0.5,0.1h-4.6H42.8h-2.6c-0.4,0-1-0.1-1.3,0.1H23c-0.8,0-5.3,0.1-5.6-0.1
		c-0.3-0.2-0.4-1.4-0.5-1.7c-0.4-1.8-0.8-3.7-1.2-5.5c-1.5-7-3-14.1-4.5-21.1c-0.4-1.8-0.8-3.6-1.1-5.4C10,14.6,9.7,13.8,9.8,13
		c0.1-0.5,0.4-0.7,0.8-0.9c0.4,0.1,0.7,0.2,1,0.4c0.4,0.3,0.6,0.8,0.9,1.3c0.5,0.8,1,1.6,1.5,2.4c2,3,3.9,6.1,5.9,9.1
		c0.6,0.9,1.2,1.8,1.7,2.7c0.3,0.4,0.5,0.8,0.8,1.3h0.2c0.1-0.3,0.2-0.7,0.4-1c0.3-0.7,0.6-1.5,0.9-2.3c1.4-3.4,2.8-6.7,4.3-10.1
		c0.4-0.9,1.2-3.9,2.5-3.7c1.2,0.2,2,2.9,2.4,3.9c1.9,4.4,3.8,8.7,5.6,13.1h0.1c1.9-4.5,3.9-9,5.8-13.5c0.4-0.9,1.2-3.8,2.6-3.6
		c1.1,0.2,1.9,3.1,2.3,4c1.8,4.4,3.7,8.7,5.5,13.1h0.1c3-4.6,6-9.3,9-13.9c0.5-0.7,2.2-4.2,3.5-3C67.9,12.7,68,13.1,67.9,13.6z"/>
</g>
</svg>
