<svg xmlns="http://www.w3.org/2000/svg" width="110.569" height="37.002" viewBox="0 0 110.569 37.002">
  <g id="Group_2563" data-name="Group 2563" transform="translate(-560.051 -1504.076)">
    <path id="Path_1843" data-name="Path 1843"
          d="M594.619,1510.845v3.922l6.962,0v2.2l-6.963,0v4l8.021,0v2.2l-10.424,0,0-14.527,10.179,0v2.2Z" fill="#fff"/>
    <path id="Path_1844" data-name="Path 1844"
          d="M618.626,1523.164l-.023-10.853-4.5,9.34h-1.568l-4.5-9.337,0,10.853h-2.26l0-14.526h2.85l4.705,9.649,4.68-9.651h2.83l0,14.526Z"
          fill="#fff"/>
    <path id="Path_1845" data-name="Path 1845"
          d="M627.217,1516.583h3.176c2.2,0,3.44-.955,3.44-2.927,0-1.909-1.243-2.821-3.442-2.821h-3.176Zm3.275-7.949c3.583,0,5.64,1.8,5.641,4.959,0,3.279-2.055,5.188-5.638,5.189h-3.277v4.379h-2.4l0-14.527Z"
          fill="#fff"/>
    <rect id="Rectangle_1371" data-name="Rectangle 1371" width="2.402" height="14.527"
          transform="translate(638.721 1508.632)" fill="#fff"/>
    <path id="Path_1846" data-name="Path 1846"
          d="M650.854,1516.576c2.2,0,3.461-.955,3.46-2.926,0-1.91-1.263-2.822-3.461-2.822h-3.38l0,5.748Zm.652,2.179c-.2.021-.427.021-.651.021h-3.379v4.379h-2.4l0-14.527,5.782,0c3.644,0,5.741,1.8,5.742,4.959a4.669,4.669,0,0,1-2.95,4.711l3.2,4.855h-2.729Z"
          fill="#fff"/>
    <path id="Path_1847" data-name="Path 1847"
          d="M662.4,1510.825v3.922l6.963,0v2.2l-6.962,0v4l8.021,0v2.2l-10.423,0,0-14.527,10.179,0v2.2Z" fill="#fff"/>
    <path id="Path_1848" data-name="Path 1848"
          d="M599.108,1529.982l-.534.693a3.248,3.248,0,0,0-2.306-1,3.134,3.134,0,1,0,0,6.267,3.372,3.372,0,0,0,2.3-.954l.546.624a4.262,4.262,0,0,1-2.895,1.226,4.007,4.007,0,1,1,.031-8.014,4.171,4.171,0,0,1,2.851,1.157"
          fill="#fff"/>
    <rect id="Rectangle_1372" data-name="Rectangle 1372" width="0.891" height="7.946"
          transform="translate(605.29 1528.845)" fill="#fff"/>
    <path id="Path_1849" data-name="Path 1849"
          d="M618.678,1536.788l-4.68-6.379,0,6.38h-.891l0-7.946h.924l4.68,6.39,0-6.391h.879l0,7.946Z" fill="#fff"/>
    <path id="Path_1850" data-name="Path 1850"
          d="M627.419,1529.713v2.611h3.931v.874H627.42v2.725h4.544v.863l-5.435,0,0-7.947h5.29v.874Z" fill="#fff"/>
    <path id="Path_1851" data-name="Path 1851"
          d="M645.406,1536.78l-.013-6.55-2.838,5.711h-.535l-2.83-5.709,0,6.55h-.846l0-7.947h1.1l2.852,5.721,2.838-5.722h1.091l0,7.946Z"
          fill="#fff"/>
    <path id="Path_1852" data-name="Path 1852"
          d="M655.963,1529.863l-1.737,4.031h3.5Zm-2.115,4.9-.868,2.01h-.947l3.495-7.947h.924l3.488,7.946h-.969l-.869-2.009Z"
          fill="#fff"/>
    <path id="Path_1853" data-name="Path 1853"
          d="M670.429,1529.53l-.379.851a3.974,3.974,0,0,0-2.149-.669c-1,0-1.659.387-1.659,1.056,0,2.044,4.388.975,4.378,3.859,0,1.328-1.147,2.18-2.817,2.18a4.4,4.4,0,0,1-2.985-1.213l.4-.818a3.837,3.837,0,0,0,2.6,1.123c1.125,0,1.826-.466,1.826-1.226.01-2.089-4.377-.975-4.378-3.825,0-1.248,1.08-2.055,2.694-2.055a4.549,4.549,0,0,1,2.473.737"
          fill="#fff"/>
    <path id="Path_1854" data-name="Path 1854"
          d="M560.051,1504.083l.01,36.995,25.962-.008-.011-36.994Zm20.473,29.626c-.308,1.082-.612,2.163-.92,3.243a.211.211,0,0,1-.01.03,4.12,4.12,0,0,1-.984.023h-2.322l-7.626,0h-2.35a2.955,2.955,0,0,1-.793-.019c-.559-.24.878-1.465.942-1.769,0-.2.011-.4.014-.6,0-.447,0-.9,0-1.345v-6.321a2.9,2.9,0,0,0-.027-.789,1,1,0,0,0-.182-.265c-.263-.337-.783-.712-.869-1.117-.052-.236.218-.259.36-.329l10.223,0h2.211a3.722,3.722,0,0,1,1.6.166.5.5,0,0,1,.157.221,6.176,6.176,0,0,1,.132.874c.065.5.129.992.189,1.485a3.414,3.414,0,0,1,.086.848c-.046.273-.31.462-.548.239a1.84,1.84,0,0,1-.3-.53c-.342-.68-.594-1.537-1.371-1.871a5.179,5.179,0,0,0-1.88-.141h-5.692a1.349,1.349,0,0,0-.556.039l-.021.03a4.241,4.241,0,0,0-.03,1.031v3.132H574.6a1.51,1.51,0,0,0,.458-.025c.379-.139.589-.787.663-1.132.024-.1.02-.3.1-.368s.431-.043.57-.043v4.507c0,.076.011.255-.053.29-.1.057-.409.071-.488-.022a.922.922,0,0,1-.112-.326c-.094-.307-.259-1.041-.622-1.131-.146-.007-.291-.013-.437-.017h-3.429a6.658,6.658,0,0,0-1.26.049,2.767,2.767,0,0,0-.037.883v3.079l5.72,0h1.467a2.132,2.132,0,0,0,.653-.047,1.386,1.386,0,0,0,.443-.347,3.9,3.9,0,0,0,.491-.671c.276-.473.555-.945.831-1.418.08-.14.248-.488.39-.561a2.874,2.874,0,0,1,.865-.036C580.719,1532.994,580.619,1533.352,580.524,1533.709Zm2.214-25.007q-.285,1.387-.569,2.776-.625,3.023-1.255,6.044-.23,1.126-.466,2.254a6.5,6.5,0,0,0-.186.963h-.027c0,.047-.121.028-.167.028h-6.576a1.355,1.355,0,0,0-.441.026l-5.309,0a13.64,13.64,0,0,1-1.865-.042,1.606,1.606,0,0,1-.157-.588c-.128-.623-.26-1.246-.389-1.867q-.749-3.59-1.5-7.177-.191-.918-.379-1.837a2.03,2.03,0,0,1-.114-.766c.03-.165.133-.222.258-.305a.723.723,0,0,1,.347.149,2.153,2.153,0,0,1,.312.431q.255.406.514.813c.654,1.035,1.309,2.065,1.964,3.1.2.306.391.616.584.922.086.145.174.288.261.434h.055c.041-.112.083-.225.126-.335.1-.255.208-.51.313-.766q.713-1.719,1.423-3.44c.129-.294.4-1.342.84-1.262.413.07.66.989.807,1.321q.938,2.229,1.879,4.454h.029q.97-2.295,1.942-4.587c.128-.294.408-1.29.865-1.21.362.064.638,1.069.773,1.372q.919,2.227,1.835,4.449h.028q1.5-2.373,2.995-4.746c.151-.241.745-1.444,1.159-1.009A.519.519,0,0,1,582.738,1508.7Z"
          fill="#fff"/>
  </g>
</svg>
