<svg xmlns="http://www.w3.org/2000/svg" viewBox="0 0 622.78 204.43">
  <defs>
    <style>.cls-1{fill:#fff;}</style>
  </defs>
  <title>logoAsset 2</title>
  <g id="Layer_2" data-name="Layer 2">
    <g id="Layer_1-2" data-name="Layer 1">
      <path class="cls-1"
            d="M194.71,37.42V59.09h39.22V71.25H194.71V93.38H239.9v12.16H181.18V25.26h57.34V37.42Zm147.71,68.12V25.26H326.48L300.11,78.59,273.62,25.26H257.56v80.27h12.73v-60l25.34,51.6h8.83l25.34-51.6.11,60Zm35.9-68.12h17.89c12.38,0,19.38,5,19.38,15.59,0,10.9-7,16.17-19.38,16.17H378.32ZM364.79,25.26v80.27h13.53V81.34h18.46c20.18,0,31.77-10.55,31.77-28.67,0-17.43-11.58-27.41-31.77-27.41Zm78.33,80.27h13.53V25.26H443.12Zm49.31-36.35V37.42h19c12.38,0,19.49,5,19.49,15.6,0,10.89-7.11,16.17-19.49,16.17Zm37.38,36.35h15.37l-18-26.83c10.67-4.13,16.63-13.19,16.63-26,0-17.43-11.81-27.41-32.34-27.41H478.9v80.27h13.53V81.34h19c1.26,0,2.52,0,3.67-.11Zm90.49-68.12V25.26H563v80.27h58.71V93.38H576.5V71.25h39.22V59.09H576.5V37.42ZM220,143.18a23.74,23.74,0,0,0-16.06-6.4c-12.73,0-22.9,9.72-22.9,22a22.33,22.33,0,0,0,22.71,22.27A24.24,24.24,0,0,0,220,174.3L217,170.85a19.15,19.15,0,0,1-13,5.27,17.55,17.55,0,0,1-17.88-17.31c0-9.66,8-17.32,17.88-17.32A18.44,18.44,0,0,1,217,147l3-3.83m34.82,37.64h5V136.91h-5Zm80.55,0V136.91h-5v35.32L304,136.91h-5.21v43.91h5V145.56l26.35,35.26Zm68.88-39.08v-4.83h-29.8v43.91H405v-4.77H379.44V161h22.14v-4.83H379.44V141.74Zm81.17,39.08V136.91h-6.15l-16,31.62-16.06-31.62H441v43.91h4.77v-36.2l15.93,31.55h3l16-31.55.06,36.2Zm64.75-15.93h-19.7l9.79-22.27Zm2.13,4.83,4.9,11.1h5.46L543,136.91h-5.21l-19.7,43.91h5.33l4.89-11.1Zm69.45-28.92a26,26,0,0,0-13.93-4.08c-9.09,0-15.18,4.45-15.18,11.35,0,15.74,24.72,9.6,24.66,21.14,0,4.2-4,6.78-10.29,6.78a21.85,21.85,0,0,1-14.62-6.21l-2.26,4.52A25.06,25.06,0,0,0,606.91,181c9.41,0,15.87-4.71,15.87-12,.06-15.93-24.65-10-24.65-21.33,0-3.7,3.7-5.83,9.34-5.83a22.7,22.7,0,0,1,12.11,3.7l2.14-4.7"/>
      <path class="cls-1"
            d="M0,0V204.43H146.24V0ZM115.28,163.75c-1.74,6-3.45,12-5.18,17.92a.83.83,0,0,1-.06.17c-1.55.43-3.83.13-5.54.13H35.22c-1.22,0-3.51.28-4.47-.11-3.15-1.32,5-8.09,5.31-9.77,0-1.11.06-2.21.08-3.33,0-2.47,0-5,0-7.43V126.39c0-1.35.25-3.15-.15-4.36a5.55,5.55,0,0,0-1-1.47c-1.48-1.86-4.41-3.93-4.89-6.17-.29-1.3,1.22-1.43,2-1.82h70c2.44,0,7.39-.29,9,.92a2.83,2.83,0,0,1,.89,1.22,33,33,0,0,1,.74,4.83c.36,2.74.73,5.48,1.06,8.2.16,1.46.72,3.19.48,4.69s-1.75,2.55-3.09,1.32a10,10,0,0,1-1.69-2.93c-1.93-3.76-3.35-8.49-7.72-10.34-2.93-1.23-7.06-.78-10.59-.78H59.18c-.95,0-2.4-.2-3.13.21l-.12.17c-.46,1.05-.17,4.29-.17,5.7v17.3H81.92A8.68,8.68,0,0,0,84.5,143c2.14-.76,3.32-4.35,3.74-6.25.13-.57.11-1.65.58-2s2.43-.23,3.21-.23v24.9c0,.42.06,1.41-.3,1.6-.56.31-2.3.39-2.75-.12a4.94,4.94,0,0,1-.63-1.8c-.53-1.69-1.45-5.75-3.5-6.25l-2.46-.1H63.07c-1,0-6.86-.14-7.1.27-.51.87-.21,3.66-.21,4.88v17H96.24a12.19,12.19,0,0,0,3.68-.26,7.78,7.78,0,0,0,2.49-1.92,21.38,21.38,0,0,0,2.77-3.71c1.56-2.61,3.13-5.22,4.68-7.84.45-.77,1.39-2.7,2.19-3.1s3.65-.2,4.88-.2C116.38,159.79,115.81,161.77,115.28,163.75ZM127.79,25.56q-1.61,7.67-3.21,15.34Q121,57.6,117.5,74.3q-1.3,6.22-2.63,12.45a34.59,34.59,0,0,0-1.05,5.32h-.15c0,.26-.68.15-.95.15h-37a7.67,7.67,0,0,0-2.49.15H43.3c-1.46,0-10,.21-10.5-.24s-.76-2.55-.89-3.25c-.72-3.44-1.46-6.88-2.18-10.32q-4.21-19.84-8.44-39.66L19.14,28.76c-.27-1.28-.91-2.86-.64-4.23.17-.91.75-1.22,1.46-1.68a4.07,4.07,0,0,1,2,.82A11.75,11.75,0,0,1,23.67,26q1.44,2.25,2.9,4.49C30.24,36.26,33.93,42,37.62,47.68c1.1,1.69,2.2,3.4,3.29,5.1.48.8,1,1.59,1.47,2.4h.31c.23-.62.47-1.24.71-1.85.58-1.41,1.17-2.82,1.77-4.23q4-9.49,8-19c.72-1.62,2.24-7.41,4.73-7,2.33.39,3.72,5.47,4.54,7.31Q67.74,42.73,73,55h.16L84.15,29.69c.72-1.63,2.3-7.13,4.87-6.68,2,.35,3.59,5.91,4.35,7.58L103.7,55.18h.16Q112.32,42.06,120.74,29c.85-1.33,4.2-8,6.53-5.57A2.83,2.83,0,0,1,127.79,25.56Z"/>
    </g>
  </g>
</svg>
