<?xml version="1.0" encoding="utf-8"?>
<!-- Generator: Adobe Illustrator 21.1.0, SVG Export Plug-In . SVG Version: 6.00 Build 0)  -->
<svg version="1.1" id="Layer_1" xmlns="http://www.w3.org/2000/svg" x="0px"
     y="0px"
     viewBox="0 0 640 640" style="enable-background:new 0 0 640 640;" xml:space="preserve">
<style type="text/css">
	.st0{fill:#C38B43;}
	.st1{fill:url(#SVGID_1_);}
	.st2{fill:none;}
	.st3{fill:url(#SVGID_2_);}
	.st4{fill:#FFFFFF;}
	.st5{fill:url(#SVGID_3_);}
	.st6{fill:url(#SVGID_4_);}
	.st7{fill:url(#SVGID_5_);}
</style>
  <g>
	<g>

			<linearGradient id="SVGID_1_" gradientUnits="userSpaceOnUse" x1="-103.4267" y1="-952.2846" x2="-102.3941"
                      y2="-952.2846" gradientTransform="matrix(81.4961 0 0 -81.4961 8569.3467 -77259.2578)">
			<stop offset="6.038648e-02" style="stop-color:#CF994A"/>
        <stop offset="6.628804e-02" style="stop-color:#D09A4C"/>
        <stop offset="0.1372" style="stop-color:#DBAA65"/>
        <stop offset="0.1769" style="stop-color:#E0B16F"/>
        <stop offset="0.2658" style="stop-color:#CE9848"/>
        <stop offset="0.3394" style="stop-color:#C38831"/>
        <stop offset="0.3798" style="stop-color:#BE832B"/>
        <stop offset="0.617" style="stop-color:#BE832B"/>
        <stop offset="0.7974" style="stop-color:#E0B06E"/>
        <stop offset="0.8395" style="stop-color:#EABE80"/>
        <stop offset="1" style="stop-color:#C38931"/>
		</linearGradient>
    <rect x="140.5" y="289.4" class="st1" width="84.2" height="117.6"/>
    <path class="st4" d="M206.8,383.6c-1,3.4-2,6.9-3,10.3c0,0,0,0.1,0,0.1c-0.9,0.2-2.2,0.1-3.2,0.1h-7.5h-24.7h-7.6
			c-0.7,0-2,0.2-2.6-0.1c-1.8-0.8,2.9-4.7,3.1-5.6c0-0.6,0-1.3,0-1.9c0-1.4,0-2.9,0-4.3v-13.6v-6.5c0-0.8,0.1-1.8-0.1-2.5
			c-0.1-0.3-0.4-0.6-0.6-0.8c-0.9-1.1-2.5-2.3-2.8-3.6c-0.2-0.7,0.7-0.8,1.2-1h33.1h7.2c1.4,0,4.3-0.2,5.2,0.5
			c0.2,0.2,0.4,0.5,0.5,0.7c0.3,0.9,0.3,1.9,0.4,2.8c0.2,1.6,0.4,3.2,0.6,4.7c0.1,0.8,0.4,1.8,0.3,2.7c-0.2,0.9-1,1.5-1.8,0.8
			c-0.5-0.5-0.7-1.1-1-1.7c-1.1-2.2-1.9-4.9-4.4-5.9c-1.7-0.7-4.1-0.5-6.1-0.5h-13.9h-4.6c-0.5,0-1.4-0.1-1.8,0.1c0,0,0,0.1-0.1,0.1
			c-0.3,0.6-0.1,2.5-0.1,3.3v10h12.2h2.9c0.5,0,1.1,0.1,1.5-0.1c1.2-0.4,1.9-2.5,2.2-3.6c0.1-0.3,0.1-0.9,0.3-1.2
			c0.3-0.2,1.4-0.1,1.8-0.1v14.3c0,0.2,0,0.8-0.2,0.9c-0.3,0.2-1.3,0.2-1.6-0.1c-0.2-0.3-0.3-0.7-0.4-1c-0.3-1-0.8-3.3-2-3.6
			c-0.5,0-0.9,0-1.4-0.1h-2.4h-8.7c-0.6,0-3.9-0.1-4.1,0.2c-0.3,0.5-0.1,2.1-0.1,2.8v9.8h18.5h4.8c0.7,0,1.5,0.1,2.1-0.1
			c0.5-0.2,1-0.7,1.4-1.1c0.6-0.7,1.1-1.4,1.6-2.1c0.9-1.5,1.8-3,2.7-4.5c0.3-0.4,0.8-1.6,1.3-1.8c0.5-0.3,2.1-0.1,2.8-0.1
			C207.4,381.3,207.1,382.5,206.8,383.6"/>
    <path class="st4" d="M214,304.1c-0.6,2.9-1.2,5.9-1.8,8.8c-1.4,6.4-2.7,12.8-4.1,19.2c-0.5,2.4-1,4.8-1.5,7.2
			c-0.2,1-0.5,2-0.6,3.1h-0.1c0,0.2-0.4,0.1-0.5,0.1h-4.9h-13.6H184c-0.5,0-1-0.1-1.4,0.1h-17.2c-0.8,0-5.7,0.1-6-0.1
			c-0.3-0.3-0.4-1.5-0.5-1.9c-0.4-2-0.8-4-1.3-5.9c-1.6-7.6-3.2-15.2-4.9-22.8c-0.4-1.9-0.8-3.9-1.2-5.8c-0.2-0.7-0.5-1.6-0.4-2.4
			c0.1-0.5,0.4-0.7,0.8-1c0.4,0.1,0.8,0.2,1.1,0.5c0.4,0.4,0.7,0.9,1,1.4c0.6,0.9,1.1,1.7,1.7,2.6c2.1,3.3,4.2,6.6,6.4,9.9
			c0.6,1,1.3,2,1.9,2.9c0.3,0.5,0.6,0.9,0.8,1.4h0.2c0.1-0.4,0.3-0.7,0.4-1.1c0.3-0.8,0.7-1.6,1-2.4c1.5-3.6,3.1-7.3,4.6-10.9
			c0.4-0.9,1.3-4.3,2.7-4c1.3,0.2,2.1,3.1,2.6,4.2c2,4.7,4.1,9.4,6.1,14.2h0.1c2.1-4.9,4.2-9.7,6.3-14.6c0.4-0.9,1.3-4.1,2.8-3.8
			c1.2,0.2,2.1,3.4,2.5,4.4c2,4.7,4,9.4,5.9,14.1h0.1c3.2-5,6.5-10.1,9.7-15.1c0.5-0.8,2.4-4.6,3.8-3.2
			C214,303.1,214,303.6,214,304.1"/>
	</g>
    <g>
		<polygon class="st0" points="253.2,330.3 275.3,330.3 275.3,330.2 275.9,330.2 275.9,323.2 253.2,323.2 253.2,310.7 278,310.7
			278,310.7 278.5,310.7 278.5,303.7 245.4,303.7 245.4,303.7 244.8,303.7 244.8,350.1 278.8,350.1 278.8,350 279.3,350 279.3,343
			253.2,343 		"/>
      <polygon class="st0" points="329.2,303.7 328.8,303.7 313.8,334 298.7,303.7 289.5,303.7 289.5,303.7 289,303.7 289,350.1
			296.3,350.1 296.3,350 296.8,350 296.8,316.4 311,345.3 316.1,345.3 316.2,345.2 316.5,345.2 330.7,316.2 330.8,350.1 338,350.1
			338,350 338.4,350 338.4,303.7 329.3,303.7 		"/>
      <path class="st0" d="M369.8,303.7h-18.5v0H351v46.4h7.8V350h0.4v-13.9h10.3c3,0,5.6-0.4,7.9-1.2c6.9-2.2,10.7-7.6,10.7-15.5
			C388.1,309.4,381.4,303.7,369.8,303.7z M369.5,329h-10.3v-18.3h10c7.2,0,11.2,2.9,11.2,9c0,4.7-2.2,7.5-6.3,8.7
			C372.7,328.8,371.2,329,369.5,329z"/>
      <polygon class="st0"
               points="396.5,303.7 396.2,303.7 396.2,350.1 404.1,350.1 404.1,350 404.3,350 404.3,303.7 396.5,303.7 		"/>
      <path class="st0" d="M445,334.5c0.7-0.3,1.5-0.6,2.1-1c4.8-2.7,7.5-7.5,7.5-14c0-10.1-6.8-15.8-18.7-15.8h-18.8v0h-0.2v46.4h7.8
			V350h0.2v-13.9h10.8c0.7,0,1.5,0,2.1-0.1l8.5,14.1h8.9l-0.1-0.1h0.2L445,334.5z M435.9,329h-11v-18.3h10.8c7.2,0,11.3,2.9,11.3,9
			c0,3.9-1.6,6.5-4.5,8C440.8,328.6,438.6,329,435.9,329z"/>
      <polygon class="st0" points="499.5,343 473.5,343 473.5,330.3 496,330.3 496,330.2 496.1,330.2 496.1,323.2 473.5,323.2
			473.5,310.7 498.7,310.7 498.7,310.7 498.7,310.7 498.7,303.7 465.6,303.7 465.6,303.7 465.5,303.7 465.5,350.1 499.5,350.1
			499.5,350 499.5,350 		"/>
	</g>
    <g>
		<path class="st0" d="M255.3,368.4h-9.4v25.1h2.9v-7.9h6.6c6.2,0,9.8-3.2,9.8-8.7C265.1,371.5,261.5,368.4,255.3,368.4z
			 M255.2,382.8h-6.5v-11.7h6.5c4.5,0,7.1,1.9,7.1,5.7C262.4,380.8,259.7,382.8,255.2,382.8z"/>
      <path class="st0" d="M299.3,376.9c0-5.3-3.6-8.4-9.9-8.4h-9.5v25.1h2.9v-7.9h6.7c0.6,0,1.1,0,1.7-0.1l5.2,8h3.3l-5.9-8.5
			C297.3,383.8,299.3,381,299.3,376.9z M289.4,382.8h-6.7v-11.7h6.7c4.6,0,7.1,1.9,7.1,5.7C296.6,380.8,294,382.8,289.4,382.8z"/>
      <polygon class="st0" points="318.7,382.2 331.4,382.2 331.4,379.4 318.7,379.4 318.7,371.2 332.9,371.2 332.9,368.4 315.8,368.4
			315.8,393.5 333.3,393.5 333.3,390.8 318.7,390.8 		"/>
      <polygon class="st0" points="361.9,386.5 352.8,368.4 349.2,368.4 349.2,393.5 351.9,393.5 351.9,372.8 361,390.9 362.8,390.9
			371.9,372.8 371.9,393.5 374.6,393.5 374.6,368.4 371.1,368.4 		"/>
      <rect x="392.2" y="368.4" class="st0" width="2.9" height="23.8"/>
      <polygon class="st0" points="415.6,382.2 428.3,382.2 428.3,379.4 415.6,379.4 415.6,371.2 429.8,371.2 429.8,368.4 412.7,368.4
			412.7,393.5 430.2,393.5 430.2,390.8 415.6,390.8 		"/>
      <path class="st0" d="M465.5,376.9c0-5.3-3.6-8.4-9.9-8.4h-9.5v25.1h2.9v-7.9h6.7c0.6,0,1.1,0,1.7-0.1l5.2,8h3.3l-5.9-8.5
			C463.5,383.8,465.5,381,465.5,376.9z M455.6,382.8H449v-11.7h6.7c4.6,0,7.1,1.9,7.1,5.7C462.8,380.8,460.2,382.8,455.6,382.8z"/>
      <polygon class="st0" points="484.9,390.8 484.9,382.2 497.6,382.2 497.6,379.4 484.9,379.4 484.9,371.2 499.1,371.2 499.1,368.4
			482,368.4 482,393.5 499.5,393.5 499.5,390.8 		"/>
	</g>
</g>
</svg>
