<?xml version="1.0" encoding="utf-8"?>
<!-- Generator: Adobe Illustrator 19.2.0, SVG Export Plug-In . SVG Version: 6.00 Build 0)  -->
<svg xmlns:xlink="http://www.w3.org/1999/xlink" version="1.1" id="Layer_1" xmlns="http://www.w3.org/2000/svg" x="0px"
     y="0px"
     viewBox="0 0 307.8 61.6" style="enable-background:new 0 0 307.8 61.6;" xml:space="preserve">
<style type="text/css">
	.st0{clip-path:url(#SVGID_2_);fill:url(#SVGID_3_);}
	.st1{fill:url(#SVGID_4_);stroke:url(#SVGID_5_);stroke-miterlimit:10;}
</style>
  <g>
	<g>
		<g>
			<defs>
				<path id="SVGID_1_" d="M8.7,56.3c-1-0.4,1.6-2.6,1.7-3.1c0-0.4,0-0.7,0-1.1c0-0.8,0-1.6,0-2.4v-7.5v-3.6c0-0.4,0.1-1,0-1.4
					c-0.1-0.2-0.2-0.3-0.3-0.5c-0.5-0.6-1.4-1.3-1.5-2c-0.1-0.4,0.4-0.5,0.6-0.6h18.2h3.9c0.8,0,2.3-0.1,2.8,0.3
					c0.1,0.1,0.2,0.3,0.3,0.4c0.2,0.5,0.2,1,0.2,1.5c0.1,0.9,0.2,1.7,0.3,2.6c0.1,0.5,0.2,1,0.2,1.5c-0.1,0.5-0.6,0.8-1,0.4
					c-0.3-0.2-0.4-0.6-0.5-0.9c-0.6-1.2-1.1-2.7-2.4-3.3c-0.9-0.4-2.2-0.2-3.3-0.2h-7.6h-2.5c-0.3,0-0.8-0.1-1,0.1c0,0,0,0,0,0.1
					c-0.1,0.3-0.1,1.4-0.1,1.8v5.5h6.7h1.6c0.3,0,0.6,0,0.8,0c0.7-0.2,1-1.4,1.2-2c0-0.2,0-0.5,0.2-0.6c0.1-0.1,0.8-0.1,1-0.1v7.9
					c0,0.1,0,0.4-0.1,0.5c-0.2,0.1-0.7,0.1-0.9,0C27,49.4,27,49.2,26.9,49c-0.2-0.5-0.5-1.8-1.1-2c-0.3,0-0.5,0-0.8,0h-1.3h-4.8
					c-0.3,0-2.2,0-2.2,0.1c-0.2,0.3-0.1,1.2-0.1,1.6V54h10.2h2.6c0.1,0,0.2,0,0.3,0c0.3,0,0.6,0,0.9-0.1c0.3-0.1,0.5-0.4,0.8-0.6
					c0.4-0.4,0.6-0.8,0.9-1.2c0.5-0.8,1-1.7,1.5-2.5c0.1-0.2,0.4-0.9,0.7-1c0.3-0.2,1.2-0.1,1.5-0.1c-0.2,0.6-0.4,1.3-0.5,1.9
					c-0.5,1.9-1.1,3.8-1.6,5.7c0,0,0,0,0,0.1c-0.5,0.1-1.2,0-1.8,0h-4.1H14.3h-4.2c-0.2,0-0.6,0-0.9,0C9,56.3,8.9,56.3,8.7,56.3
					 M9.4,27.7c-0.2-0.1-0.2-0.8-0.3-1c-0.2-1.1-0.5-2.2-0.7-3.3c-0.9-4.2-1.8-8.4-2.7-12.6C5.5,9.6,5.3,8.6,5.1,7.5
					C5,7.1,4.8,6.6,4.9,6.1c0.1-0.3,0.2-0.4,0.5-0.5c0.2,0,0.4,0.1,0.6,0.3c0.2,0.2,0.4,0.5,0.6,0.8c0.3,0.5,0.6,1,0.9,1.4
					c1.2,1.8,2.3,3.6,3.5,5.5c0.3,0.5,0.7,1.1,1,1.6c0.2,0.3,0.3,0.5,0.5,0.8h0.1c0.1-0.2,0.1-0.4,0.2-0.6c0.2-0.4,0.4-0.9,0.6-1.3
					c0.8-2,1.7-4,2.5-6.1c0.2-0.5,0.7-2.4,1.5-2.2C18,5.8,18.5,7.4,18.7,8c1.1,2.6,2.2,5.2,3.3,7.8h0.1c1.2-2.7,2.3-5.4,3.5-8.1
					c0.2-0.5,0.7-2.3,1.5-2.1c0.6,0.1,1.1,1.9,1.4,2.4c1.1,2.6,2.2,5.2,3.3,7.8h0.1c1.8-2.8,3.6-5.6,5.3-8.4
					c0.3-0.4,1.3-2.5,2.1-1.8c0.2,0.2,0.2,0.4,0.2,0.7c-0.3,1.6-0.7,3.3-1,4.9c-0.7,3.5-1.5,7.1-2.2,10.6c-0.3,1.3-0.6,2.6-0.8,4
					c-0.1,0.6-0.3,1.1-0.3,1.7h0c0,0.1-0.2,0-0.3,0h-2.7h-7.5h-1.5c-0.3,0-0.6,0-0.8,0h-9.4c-0.2,0-1,0-1.7,0
					C10.2,27.8,9.5,27.7,9.4,27.7 M0,61.6h44.3V0H0V61.6z"/>
			</defs>
      <clipPath id="SVGID_2_">
				<use xlink:href="#SVGID_1_" style="overflow:visible;"/>
			</clipPath>

      <linearGradient id="SVGID_3_" gradientUnits="userSpaceOnUse" x1="-269.57" y1="331.3049" x2="-268.57" y2="331.3049"
                      gradientTransform="matrix(41.9524 0 0 -41.9524 11309.1748 13929.833)">
				<stop offset="0" style="stop-color:#EBC07D"/>
        <stop offset="5.618000e-03" style="stop-color:#EBC07D"/>
        <stop offset="0.1534" style="stop-color:#EDCD87"/>
        <stop offset="0.1854" style="stop-color:#EDD089"/>
        <stop offset="0.4101" style="stop-color:#F3E7D9"/>
        <stop offset="0.5081" style="stop-color:#DFBF94"/>
        <stop offset="0.6156" style="stop-color:#CC9D59"/>
        <stop offset="0.6924" style="stop-color:#C28A36"/>
        <stop offset="0.7303" style="stop-color:#BE832B"/>
        <stop offset="0.7749" style="stop-color:#C48B35"/>
        <stop offset="0.8634" style="stop-color:#D5A157"/>
        <stop offset="0.9494" style="stop-color:#EABE80"/>
        <stop offset="1" style="stop-color:#EABE80"/>
			</linearGradient>
      <rect x="0" class="st0" width="44.3" height="61.6"/>
		</g>
	</g>
    <linearGradient id="SVGID_4_" gradientUnits="userSpaceOnUse" x1="57.5047" y1="44.2367" x2="307.3003" y2="44.2367">
		<stop offset="0" style="stop-color:#EBC07D"/>
      <stop offset="5.618000e-03" style="stop-color:#EBC07D"/>
      <stop offset="0.1534" style="stop-color:#EDCD87"/>
      <stop offset="0.1854" style="stop-color:#EDD089"/>
      <stop offset="0.4101" style="stop-color:#F3E7D9"/>
      <stop offset="0.5081" style="stop-color:#DFBF94"/>
      <stop offset="0.6156" style="stop-color:#CC9D59"/>
      <stop offset="0.6924" style="stop-color:#C28A36"/>
      <stop offset="0.7303" style="stop-color:#BE832B"/>
      <stop offset="0.7749" style="stop-color:#C48B35"/>
      <stop offset="0.8634" style="stop-color:#D5A157"/>
      <stop offset="0.9494" style="stop-color:#EABE80"/>
      <stop offset="1" style="stop-color:#EABE80"/>
	</linearGradient>
    <linearGradient id="SVGID_5_" gradientUnits="userSpaceOnUse" x1="57.0047" y1="44.2367" x2="307.8003" y2="44.2367">
		<stop offset="0" style="stop-color:#EBC07D"/>
      <stop offset="5.618000e-03" style="stop-color:#EBC07D"/>
      <stop offset="0.1534" style="stop-color:#EDCD87"/>
      <stop offset="0.1854" style="stop-color:#EDD089"/>
      <stop offset="0.4101" style="stop-color:#F3E7D9"/>
      <stop offset="0.5081" style="stop-color:#DFBF94"/>
      <stop offset="0.6156" style="stop-color:#CC9D59"/>
      <stop offset="0.6924" style="stop-color:#C28A36"/>
      <stop offset="0.7303" style="stop-color:#BE832B"/>
      <stop offset="0.7749" style="stop-color:#C48B35"/>
      <stop offset="0.8634" style="stop-color:#D5A157"/>
      <stop offset="0.9494" style="stop-color:#EABE80"/>
      <stop offset="1" style="stop-color:#EABE80"/>
	</linearGradient>
    <path class="st1" d="M60.9,37.1v5.5h9.9v3.1h-9.9v5.6h11.4v3.1H57.5V34.1H72v3.1H60.9z M98.4,54.4V34.1h-4l-6.7,13.5l-6.7-13.5
		h-4.1v20.3h3.2V39.2l6.4,13.1h2.2l6.4-13.1l0,15.2H98.4z M107.5,37.1h4.5c3.1,0,4.9,1.3,4.9,4c0,2.8-1.8,4.1-4.9,4.1h-4.5V37.1z
		 M104,34.1v20.3h3.4v-6.1h4.7c5.1,0,8-2.7,8-7.3c0-4.4-2.9-6.9-8-6.9H104z M123.9,54.4h3.4V34.1h-3.4V54.4z M136.4,45.2v-8h4.8
		c3.1,0,4.9,1.3,4.9,4c0,2.8-1.8,4.1-4.9,4.1H136.4z M145.8,54.4h3.9l-4.6-6.8c2.7-1,4.2-3.3,4.2-6.6c0-4.4-3-6.9-8.2-6.9h-8.3v20.3
		h3.4v-6.1h4.8c0.3,0,0.6,0,0.9,0L145.8,54.4z M168.8,37.1v-3.1h-14.5v20.3h14.9v-3.1h-11.4v-5.6h9.9v-3.1h-9.9v-5.5H168.8z
		 M191.9,36.8c-1.9-1.7-4.4-2.7-7.1-2.7c-5.8,0-10.5,4.5-10.5,10.2c0,5.6,4.7,10.2,10.5,10.2c2.7,0,5.3-1.1,7.2-2.8l-0.8-0.8
		c-1.7,1.5-4,2.5-6.4,2.5c-5.1,0-9.3-4-9.3-9c0-5,4.2-9,9.3-9c2.4,0,4.7,0.9,6.4,2.5L191.9,36.8 M197.1,54.4h1.2V34.1h-1.2V54.4z
		 M221.8,54.4V34.1h-1.2v18.4l-13.6-18.4h-1.4v20.3h1.2V36l13.5,18.5H221.8z M242.2,35.3v-1.2h-13.1v20.3h13.5v-1.2h-12.3v-8.6h10.6
		v-1.2h-10.6v-8.1H242.2z M267.8,54.4V34.1h-1.7l-8.1,16l-8.2-16h-1.7v20.3h1.2V35.8l8.4,16.4h0.6l8.3-16.4l0,18.6H267.8z
		 M287.1,47.4h-10.8l5.4-11.9L287.1,47.4z M287.7,48.6l2.6,5.8h1.3l-9.3-20.3H281l-9.2,20.3h1.3l2.6-5.8H287.7z M306.6,35.7
		c-1.5-1-3.7-1.7-5.8-1.7c-4,0-6.7,1.9-6.7,4.8c0,7.3,11.9,4.1,11.9,10.4c0,2.4-2.2,3.9-5.7,3.9c-2.4,0-5-1-6.6-2.8l-0.6,1.1
		c1.8,1.7,4.5,2.9,7.2,2.9c4.2,0,7.1-2,7.1-5.2c0.1-7.5-11.9-4.3-11.9-10.5c0-2.1,2.1-3.5,5.3-3.5c1.7,0,3.8,0.5,5.3,1.5L306.6,35.7
		"/>
</g>
</svg>
