<svg xmlns="http://www.w3.org/2000/svg" width="26.301" height="25.741" viewBox="0 0 26.301 25.741">
  <g id="Group_695" data-name="Group 695" transform="translate(-876.041 -217.798)">
    <path id="Path_2176" data-name="Path 2176"
          d="M902.342,225.342c-.2.379-.535.373-.9.367-1.587-.023-1.548-.014-1.68,1.556-.227,2.694-.509,5.383-.765,8.074-.244,2.556-.494,5.111-.717,7.669-.031.362-.108.5-.5.483-.68-.034-1.362-.01-2.135-.01a5.132,5.132,0,0,0,.706-3.263c-.008-.179.145-.453-.213-.5-.115-.015-.105-.1-.029-.149.251-.176.406-.457.731-.558a1.625,1.625,0,0,0,1.28-1.818,1.706,1.706,0,0,0-1.716-1.437,1.172,1.172,0,0,1-.145-.024c.607-2.846-.71-4.864-2.792-6.542a10.358,10.358,0,0,0-3.757-1.932c-.487-.135-.7-.342-.667-.811.049-.639-.225-.851-.845-.749a7.113,7.113,0,0,1-.991.009c-.36.007-.64-.122-.642-.508,0-.4.268-.565.659-.564,1.928,0,3.856-.02,5.783.012.516.009.667-.119.711-.649a10.1,10.1,0,0,1,2.152-5.806,1,1,0,0,1,.445-.361.493.493,0,0,1,.577.152.513.513,0,0,1-.005.7,9.172,9.172,0,0,0-2.095,5.209c-.1.752-.113.748.614.747,2.026,0,4.051.005,6.076-.009a.9.9,0,0,1,.853.363Z"
          fill="#fff"/>
    <path id="Path_2177" data-name="Path 2177"
          d="M876.041,237.265c.466-.489.6-.493,1.095-.033,1.357,1.271,2.325,1.3,3.72.11a2.676,2.676,0,0,1,2.657-.264,4.654,4.654,0,0,1,1.431.767,2.539,2.539,0,0,0,3.231.068,8.788,8.788,0,0,1,.789-.5,2.252,2.252,0,0,1,2.809.159c.045.038.095.068.142.1,1.476,1.079,1.882,1.059,3.213-.181a1.925,1.925,0,0,1,1.339-.61.49.49,0,0,1,.541.424c.056.3-.078.593-.386.618a1.691,1.691,0,0,0-1.018.617,2.78,2.78,0,0,1-3.982.261c-1.318-.945-1.384-.99-2.709-.07a3.721,3.721,0,0,1-4.689-.065,3.559,3.559,0,0,0-1.242-.626,1.632,1.632,0,0,0-1.67.325,3.239,3.239,0,0,1-4.271.2c-.352-.253-.668-.556-1-.837Z"
          fill="#fff"/>
    <path id="Path_2178" data-name="Path 2178"
          d="M886.562,235.878h-7.188a1.482,1.482,0,0,1-1.6-1.643,4.441,4.441,0,0,1,1.094-2.651,9.862,9.862,0,0,1,14.667-.9A5.828,5.828,0,0,1,895.3,233.9q.377,1.97-1.606,1.976-3.564.006-7.13,0Zm.706-5.154a.728.728,0,0,0-.729-.821.738.738,0,0,0-.753.722.7.7,0,0,0,.718.692A.678.678,0,0,0,887.268,230.724Zm3.187,1.632a.591.591,0,0,0-.7.533.55.55,0,0,0,.545.624.56.56,0,0,0,.671-.558A.55.55,0,0,0,890.455,232.356Zm-8.162-.005a.562.562,0,0,0-.625.558.606.606,0,0,0,1.212.025A.567.567,0,0,0,882.293,232.351Z"
          fill="#fff"/>
    <path id="Path_2179" data-name="Path 2179"
          d="M886.568,240.856c2.745,0,5.49.006,8.235-.008.329,0,.431.069.431.409a2.046,2.046,0,0,1-2.187,2.278q-6.63.006-13.259,0a2.159,2.159,0,0,1-1.923-2.492c.086-.332.35-.184.527-.185,2.725-.011,5.451-.007,8.176-.007Z"
          fill="#fff"/>
  </g>
</svg>
