<svg xmlns:xlink="http://www.w3.org/1999/xlink" xmlns="http://www.w3.org/2000/svg" viewBox="0 0 50.27 49.19">
  <defs>
    <style>
      .cls-1{fill:url(#New_Gradient_Swatch_2);}.cls-2{fill:url(#New_Gradient_Swatch_2-2);}.cls-3{fill:url(#New_Gradient_Swatch_2-3);}.cls-4{fill:url(#New_Gradient_Swatch_2-4);}
    </style>
    <linearGradient id="New_Gradient_Swatch_2" x1="20.13" y1="24.55" x2="50.27" y2="24.55"
                    gradientUnits="userSpaceOnUse">
      <stop offset="0" stop-color="#ebc17d"/>
      <stop offset="0.01" stop-color="#ebc17d"/>
      <stop offset="0.19" stop-color="#edd089"/>
      <stop offset="0.41" stop-color="#f4e8d9"/>
      <stop offset="0.46" stop-color="#ebd6ba"/>
      <stop offset="0.59" stop-color="#d3aa6c"/>
      <stop offset="0.68" stop-color="#c58e3c"/>
      <stop offset="0.73" stop-color="#bf8329"/>
      <stop offset="0.79" stop-color="#c88f3b"/>
      <stop offset="0.9" stop-color="#deae68"/>
      <stop offset="0.95" stop-color="#eabe81"/>
      <stop offset="1" stop-color="#eabe81"/>
    </linearGradient>
    <linearGradient id="New_Gradient_Swatch_2-2" x1="0" y1="38.99" x2="40.1" y2="38.99"
                    xlink:href="#New_Gradient_Swatch_2"/>
    <linearGradient id="New_Gradient_Swatch_2-3" x1="3.3" y1="26.88" x2="36.92" y2="26.88"
                    xlink:href="#New_Gradient_Swatch_2"/>
    <linearGradient id="New_Gradient_Swatch_2-4" x1="3.39" y1="46.6" x2="36.68" y2="46.6"
                    xlink:href="#New_Gradient_Swatch_2"/>
  </defs>
  <title>F&amp;amp;B goldAsset 6</title>
  <g id="Layer_2" data-name="Layer 2">
    <g id="Layer_1-2" data-name="Layer 1">
      <path class="cls-1"
            d="M50.27,14.42c-.37.73-1,.71-1.71.7-3,0-3,0-3.21,3-.43,5.15-1,10.29-1.46,15.43-.47,4.89-.94,9.77-1.37,14.66-.06.69-.21,1-.95.92-1.3-.06-2.6,0-4.08,0a9.82,9.82,0,0,0,1.35-6.24c0-.34.28-.87-.41-1-.22,0-.2-.18-.05-.29.48-.33.78-.87,1.4-1.07a3.11,3.11,0,0,0,2.45-3.47,3.26,3.26,0,0,0-3.28-2.75,2.4,2.4,0,0,1-.28,0c1.29-6.07-2-10.17-6.78-13.6a19,19,0,0,0-5.8-2.62c-.89-.26-1.28-.66-1.21-1.53.09-1.22-.43-1.63-1.62-1.43a13.62,13.62,0,0,1-1.89,0c-.69,0-1.22-.23-1.23-1s.51-1.08,1.26-1.08c3.68,0,7.37,0,11.05,0,1,0,1.27-.23,1.36-1.24A19.29,19.29,0,0,1,37.91.76a1.91,1.91,0,0,1,.85-.69.94.94,0,0,1,1.1.29,1,1,0,0,1,0,1.33c-2.55,2.83-3.54,6.28-4,10-.18,1.44-.22,1.43,1.17,1.43,3.87,0,7.74,0,11.61,0a1.73,1.73,0,0,1,1.63.69Z"/>
      <path class="cls-2"
            d="M0,37.21c.89-.93,1.15-.94,2.09-.06,2.59,2.43,4.44,2.49,7.11.21,1.51-1.29,3.18-1,4.83-.57a8.18,8.18,0,0,1,2.79,1.39c2.09,1.55,4.2,1.86,6.37.27a16.58,16.58,0,0,1,1.51-.95,4.3,4.3,0,0,1,5.37.3c.09.07.18.13.27.2,2.82,2.06,3.6,2,6.14-.35A3.67,3.67,0,0,1,39,36.49a.93.93,0,0,1,1,.81.9.9,0,0,1-.74,1.18,3.23,3.23,0,0,0-1.95,1.18c-2.5,2.32-4.85,2.48-7.61.5-2.52-1.81-2.65-1.89-5.18-.13-3.16,2.2-6.17,2-9.23-.32a5.46,5.46,0,0,0-2-1,3.21,3.21,0,0,0-3.33.59,6.19,6.19,0,0,1-8.16.38C1.24,39.22.63,38.64,0,38.1Z"/>
      <path class="cls-3"
            d="M20.11,34.56H6.43A3.08,3.08,0,0,1,3.3,31.45a8.47,8.47,0,0,1,2.09-5.1c8.2-9.91,20.38-8.41,27.46-2.23a12.22,12.22,0,0,1,3.55,5.2q1.79,5.23-2.67,5.24H20.11Zm1.35-9.85a1.39,1.39,0,0,0-1.39-1.57c-.77,0-1.53.68-1.44,1.38A1.34,1.34,0,0,0,20,25.84,1.29,1.29,0,0,0,21.46,24.71Zm6.09,3.12a1.13,1.13,0,0,0-1.33,1,1.05,1.05,0,0,0,1,1.19A1.07,1.07,0,0,0,28.55,29,1.05,1.05,0,0,0,27.55,27.83Zm-15.6,0c-.71,0-1.17.38-1.19,1.07A1.06,1.06,0,0,0,11.94,30a1.05,1.05,0,0,0,1.13-1.11A1.08,1.08,0,0,0,11.95,27.82Z"/>
      <path class="cls-4"
            d="M20.12,44.07c5.25,0,10.49,0,15.74,0,.63,0,.82.13.82.78,0,4.16-3.59,5.78-9.29,2.89-6-3.05-13-2.27-18.85,1.09C5.91,50.32,2.82,47,3.49,44.43c.17-.63.67-.35,1-.35,5.21,0,10.42,0,15.63,0Z"/>
    </g>
  </g>
</svg>
