<svg xmlns="http://www.w3.org/2000/svg" width="21.188" height="11.259" viewBox="0 0 21.188 11.259">
  <path id="Path_585" data-name="Path 585"
        d="M866.161,215.333a11.164,11.164,0,0,1,2.642-.765,10.292,10.292,0,0,1,5.8.734,17.065,17.065,0,0,1,2.869,1.665,5.666,5.666,0,0,0,2.554,1.067,1.726,1.726,0,0,0,1.713-.6,1.556,1.556,0,0,0,.1-1.792,1.417,1.417,0,0,0-1.459-.7,1.769,1.769,0,0,0-1.491,1,2.618,2.618,0,0,0-.133.576,1.746,1.746,0,0,1-.181-1.021,3.032,3.032,0,0,1,2.684-2.638,3.563,3.563,0,0,1,3.907,2.851,4.327,4.327,0,0,1-.63,3.559,3.835,3.835,0,0,1-3.176,1.7,6.1,6.1,0,0,1-3.374-1.02,9.41,9.41,0,0,1-.939-.639,4.133,4.133,0,0,0,.637.745,8.489,8.489,0,0,0,2.1,1.662,4.205,4.205,0,0,0,3.907.163,5.428,5.428,0,0,0,2.888-3.008,4.876,4.876,0,0,0,.3-2.41.759.759,0,0,1,0-.207,5.049,5.049,0,0,1,.359,1.227,6.343,6.343,0,0,1-.028,2.5,4.909,4.909,0,0,1-2.274,3.11,6.252,6.252,0,0,1-2.269.9,5.944,5.944,0,0,1-3.953-.631,8.655,8.655,0,0,1-2.42-2.061,29.666,29.666,0,0,0-4.565-4.494,7.163,7.163,0,0,0-3.02-1.3,11.124,11.124,0,0,0-2.361-.168C866.285,215.335,866.223,215.333,866.161,215.333Z"
        transform="translate(-866.16 -212.834)" fill="#fff"/>
</svg>
