<svg xmlns="http://www.w3.org/2000/svg" viewBox="0 0 30.62 30.62">
  <title>instagramAsset 11</title>
  <g id="Layer_2" data-name="Layer 2">
    <g id="Layer_1-2" data-name="Layer 1">
      <path
        d="M0,15.31c0-2.53,0-5.06,0-7.58A7.64,7.64,0,0,1,6.46.1,9.66,9.66,0,0,1,8.06,0H22.92a7.66,7.66,0,0,1,7.7,7.67q0,7.64,0,15.27A7.66,7.66,0,0,1,23,30.61H7.61A7.67,7.67,0,0,1,0,23q0-3.84,0-7.69ZM15.27,28.43h7.62a5.44,5.44,0,0,0,5.54-5.54q0-7.58,0-15.17a5.43,5.43,0,0,0-5.54-5.54H10.12a31.14,31.14,0,0,0-3.24.08A5.34,5.34,0,0,0,2.19,7.52q0,7.79,0,15.58a5.1,5.1,0,0,0,1,3,5.33,5.33,0,0,0,4.5,2.3C10.22,28.44,12.75,28.43,15.27,28.43Z"/>
      <path
        d="M15.32,23A7.65,7.65,0,1,1,23,15.24,7.68,7.68,0,0,1,15.32,23Zm0-13.12a5.47,5.47,0,1,0,5.48,5.46A5.47,5.47,0,0,0,15.3,9.84Z"/>
      <path d="M24.06,4.37a2.19,2.19,0,1,1-2.19,2.2A2.21,2.21,0,0,1,24.06,4.37Z"/>
    </g>
  </g>
</svg>
