<svg xmlns="http://www.w3.org/2000/svg" width="17.709" height="16.236" viewBox="0 0 17.709 16.236">
  <g id="Group_284" data-name="Group 284" transform="translate(-1198.08 -210.8)">
    <path id="Path_579" data-name="Path 579"
          d="M1213.93,217.977c0,.166.009.338,0,.508a3.913,3.913,0,0,1-.559,1.784,4.014,4.014,0,0,1-1.332,1.358,3.743,3.743,0,0,1-1.52.559,4.971,4.971,0,0,1-.79.044,3.767,3.767,0,0,1-1.81-.522.321.321,0,0,0-.346-.027,4.411,4.411,0,0,1-1.578.408,4.779,4.779,0,0,1-2.856-.68.084.084,0,0,0-.108,0,3.163,3.163,0,0,1-4.786-1.647,3.026,3.026,0,0,1,.278-2.564,3.1,3.1,0,0,1,2.31-1.547,1.529,1.529,0,0,1,.234-.019.124.124,0,0,0,.127-.091c.111-.234.215-.472.347-.7a4.6,4.6,0,0,1,1.226-1.351,4.7,4.7,0,0,1,1.821-.83,4.193,4.193,0,0,1,1.51-.078.244.244,0,0,0,.284-.133,3.668,3.668,0,0,1,3.855-1.57,3.517,3.517,0,0,1,1.83,1.027.33.33,0,0,0,.308.119,2.981,2.981,0,0,1,2.086.549,3.051,3.051,0,0,1,1.246,1.849,2.97,2.97,0,0,1-.031,1.509,3.073,3.073,0,0,1-1.525,1.923C1214.08,217.9,1214.007,217.937,1213.93,217.977Zm-.6.193a3.473,3.473,0,0,0-.254-1.257,3.419,3.419,0,0,0-3.872-2.056.33.33,0,0,1-.337-.117,6.423,6.423,0,0,0-.445-.473,4.022,4.022,0,0,0-2.471-1.08,4.146,4.146,0,0,0-3.812,1.87,4.368,4.368,0,0,0-.471.978.29.29,0,0,1-.319.211c-.048,0-.1-.005-.144,0a2.56,2.56,0,0,0-2.491,2.4,2.554,2.554,0,0,0,2.467,2.7,2.5,2.5,0,0,0,1.659-.547.319.319,0,0,1,.457-.015,4.143,4.143,0,0,0,3.351.581,4.229,4.229,0,0,0,.954-.373.317.317,0,0,1,.356.02c.054.038.109.073.165.107a3.412,3.412,0,0,0,3.585-.007,3.417,3.417,0,0,0,1.622-2.937Zm.518-.842c.019-.008.03-.012.041-.018a2.465,2.465,0,0,0,1.083-1.2,2.4,2.4,0,0,0-.04-2.043,2.443,2.443,0,0,0-1.821-1.4,2.265,2.265,0,0,0-.938.015.32.32,0,0,1-.343-.117,3.047,3.047,0,0,0-1.26-.934,3.008,3.008,0,0,0-1.744-.15,2.976,2.976,0,0,0-1.554.851c-.122.125-.228.264-.348.4l.053.021c.276.111.558.207.824.336a4.379,4.379,0,0,1,1.374,1.058.159.159,0,0,0,.164.056,3.91,3.91,0,0,1,1.339.03,3.97,3.97,0,0,1,1.666.748,4.041,4.041,0,0,1,1.5,2.342Z"
          fill="#fff"/>
    <path id="Path_580" data-name="Path 580"
          d="M1207.342,225.653h-3.7a.3.3,0,0,1-.3-.171.3.3,0,0,1,.031-.321.29.29,0,0,1,.209-.12.646.646,0,0,1,.076-.005h7.374a.31.31,0,0,1,.319.419.3.3,0,0,1-.293.2c-.129,0-.257,0-.386,0Z"
          fill="#fff"/>
    <path id="Path_581" data-name="Path 581"
          d="M1206.1,223.668h3.705a.309.309,0,0,1,.262.495.29.29,0,0,1-.2.115.813.813,0,0,1-.1,0q-1.457,0-2.912,0h-4.417a.334.334,0,0,1-.311-.133.307.307,0,0,1,.24-.481c.048,0,.1,0,.144,0h3.592Z"
          fill="#fff"/>
    <path id="Path_582" data-name="Path 582"
          d="M1206.1,227.031h-1.551l-2.126,0a.309.309,0,0,1-.1-.61.74.74,0,0,1,.1,0h7.333a.368.368,0,0,1,.243.062.319.319,0,0,1,.11.337.286.286,0,0,1-.275.21c-.262,0-.524.005-.786.005H1206.1Z"
          fill="#fff"/>
    <path id="Path_583" data-name="Path 583"
          d="M1202.093,216.275a2.224,2.224,0,0,1,.589-1.385,3.44,3.44,0,0,1,1.671-1.009,4.3,4.3,0,0,1,1.178-.166.155.155,0,0,1,.151.236.165.165,0,0,1-.148.072c-.243.021-.489.028-.729.071a3.216,3.216,0,0,0-1.869.971,1.92,1.92,0,0,0-.538,1.288c0,.11-.061.176-.154.175s-.151-.067-.151-.178Z"
          fill="#fff"/>
    <path id="Path_584" data-name="Path 584"
          d="M1209.8,221.158a2.956,2.956,0,0,1-1.23-.291,1.411,1.411,0,0,1-.594-.52.867.867,0,0,1-.123-.407.156.156,0,0,1,.139-.175.149.149,0,0,1,.169.152.633.633,0,0,0,.223.446,1.742,1.742,0,0,0,.874.414,5.978,5.978,0,0,0,.614.073c.114.011.184.066.181.158a.17.17,0,0,1-.191.15Z"
          fill="#fff"/>
  </g>
</svg>
