<svg xmlns="http://www.w3.org/2000/svg" width="8.947" height="14.576" viewBox="0 0 8.947 14.576">
  <g id="Group_288" data-name="Group 288" transform="translate(-1117.316 -210.929)">
    <path id="Path_595" data-name="Path 595"
          d="M1121.788,210.929c.5.908.962,1.714,1.4,2.535.87,1.649,1.785,3.277,2.566,4.967a5.092,5.092,0,0,1-.006,4.476,4.375,4.375,0,0,1-4.424,2.585,4.535,4.535,0,0,1-3.781-3.332,5.085,5.085,0,0,1,.221-3.567c.574-1.288,1.233-2.539,1.888-3.789.6-1.139,1.237-2.255,1.858-3.38C1121.579,211.29,1121.657,211.158,1121.788,210.929Zm.336,2.759a33.754,33.754,0,0,1,.962,5.512,22.62,22.62,0,0,0,.539,2.475.722.722,0,0,0,.77.6.846.846,0,0,0,.811-.747,3.954,3.954,0,0,0,0-1.3A18.671,18.671,0,0,0,1122.124,213.688Z"
          fill="#fff"/>
  </g>
</svg>
