<svg xmlns="http://www.w3.org/2000/svg" width="10.443" height="15.739" viewBox="0 0 10.443 15.739">
  <path id="Path_578" data-name="Path 578"
        d="M1299.872,218.641c.01-.407-.166-.609-.588-.592-.352.014-.7,0-1.071,0a3.5,3.5,0,0,0,.212-.752c.032-1.882.057-3.766.04-5.648,0-.154-.316-.407-.513-.437a1.994,1.994,0,0,0-1.831.6c-1.149-.83-1.632-.83-2.578-.156-.743-.179-1.332-.345-1.931-.457-.472-.088-.665.172-.661.637.01,1.23-.012,2.459.008,3.688.014.825.077,1.65.121,2.525a7.815,7.815,0,0,0-.978.013.658.658,0,0,0-.472.281,2.17,2.17,0,0,0,2.068,3.111c.876,0,1.752,0,2.675,0v.747c0,1.373-.012,2.746.015,4.118,0,.2.2.391.309.587.127-.2.336-.384.363-.594a10.86,10.86,0,0,0,.017-1.35v-3.509c.989,0,1.927.012,2.864,0a1.751,1.751,0,0,0,1.929-1.954C1299.874,219.214,1299.865,218.927,1299.872,218.641Zm-5.5,2.131c-1.08,0-2.1.03-3.109-.012a.985.985,0,0,1-.974-1.051c-.016-.3,0-.607,0-.988,1.066,0,2.043-.027,3.018.009.705.027,1.044.432,1.067,1.155C1294.38,220.165,1294.372,220.445,1294.372,220.772Zm4.763-.853a.974.974,0,0,1-1.037.853c-.975.025-1.952.007-3.017.007,0-.378-.013-.681,0-.984a.975.975,0,0,1,.971-1.051c1.012-.046,2.028-.012,3.091-.012A8.483,8.483,0,0,1,1299.135,219.919Z"
        transform="translate(-1289.43 -211.172)" fill="#fff"/>
</svg>
