<svg xmlns="http://www.w3.org/2000/svg" width="13.779" height="15.251" viewBox="0 0 13.779 15.251">
  <g id="Group_287" data-name="Group 287" transform="translate(-969.219 -211.832)">
    <path id="Path_592" data-name="Path 592"
          d="M976.269,226.838a19.134,19.134,0,0,1,.951-3.427,16.328,16.328,0,0,1,1.648-3.141,9.165,9.165,0,0,0-2.584,1.381c-.033-.036-.008-.057,0-.079a14.59,14.59,0,0,1,.975-1.888c.285-.475.584-.939.9-1.393.256-.367.517-.729.788-1.085.06-.079.058-.081,0-.163.068.072.1.036.146-.026.083-.121.188-.225.27-.348.024-.035.053-.062-.038-.069a.187.187,0,0,0,.177-.083c.062-.107.172-.176.224-.294.017-.039.072-.063.1-.1.149-.163.292-.331.451-.484a.222.222,0,0,1,.112-.066c.29-.06.576-.135.871-.176a5.023,5.023,0,0,1,.925-.02c.233.009.466.047.7.07a.416.416,0,0,1,.061.014c.048.013.06.033.015.069-.117.093-.232.189-.349.283-.243.2-.476.4-.712.6-.295.252-.58.516-.863.781-.342.318-.67.652-1,.985-.219.222-.429.453-.641.682-.073.079-.14.163-.22.257a2.865,2.865,0,0,0,.4-.026,2.156,2.156,0,0,1,.8.068,3.363,3.363,0,0,1,.838.344c.088.049.087.049.018.122a11.683,11.683,0,0,0-.861,1.061c-.277.373-.537.759-.8,1.142-.231.337-.459.677-.674,1.024-.069.111-.149.213-.217.323-.041.066-.034.08.048.094-.142,0-.169.118-.232.207-.092.13-.178.263-.265.4-.181.275-.358.553-.538.828-.131.2-.264.4-.4.6-.285.432-.567.866-.854,1.3A.952.952,0,0,1,976.269,226.838Z"
          fill="#fff"/>
    <path id="Path_593" data-name="Path 593"
          d="M973.714,223.307a16.673,16.673,0,0,1,2.6-6.573,7.645,7.645,0,0,0-1.352.588c-.424.245-.832.519-1.245.8a.255.255,0,0,1,.043-.167,15.973,15.973,0,0,1,1.114-2.1q.5-.8,1.054-1.566c.258-.351.52-.7.792-1.038.3-.381.62-.752.961-1.1a.462.462,0,0,1,.266-.14c.228-.039.45-.111.681-.138a3.651,3.651,0,0,1,.985-.021,2.1,2.1,0,0,0,.211.012,4.642,4.642,0,0,1,.576.069c.017,0,.039,0,.044.021s-.015.031-.029.041a5.219,5.219,0,0,0-.42.335c-.286.24-.569.485-.848.732-.563.5-1.1,1.02-1.628,1.555-.3.3-.585.62-.869.939a.346.346,0,0,0-.027.042c.062.018.109-.015.16-.017a3.857,3.857,0,0,1,.811,0,3.126,3.126,0,0,1,.722.223c.122.053.236.121.356.176.061.028.071.061.022.113a11.828,11.828,0,0,0-.949,1.17c-.254.353-.5.712-.742,1.074q-.454.678-.9,1.363c-.4.6-.785,1.21-1.179,1.813-.3.458-.6.916-.906,1.37A2.633,2.633,0,0,1,973.714,223.307Z"
          fill="#fff"/>
    <path id="Path_594" data-name="Path 594"
          d="M970.289,227.083A16.85,16.85,0,0,1,971.5,220.1l-.022-.011c-.1.067-.206.132-.308.2a7.621,7.621,0,0,0-.822.609c-.355.316-.684.656-1.016.995-.028.029-.055.092-.1.065s-.01-.081,0-.124c.067-.274.128-.549.2-.822.053-.2.119-.406.18-.609.112-.377.25-.746.382-1.118.115-.324.246-.642.38-.959.171-.407.347-.811.541-1.208.154-.314.309-.628.474-.937.153-.285.315-.565.481-.843a.4.4,0,0,1,.167-.163,6.649,6.649,0,0,1,.735-.321,4.355,4.355,0,0,1,.8-.2c.243-.04.49-.047.733-.093.066-.012.16-.041.2.016s-.049.1-.084.148c-.11.145-.226.285-.339.428l-.317.4a.074.074,0,0,0-.022.065c0,.011.018.025-.011.029-.083.011-.094.078-.1.143,0,.007,0,.021,0,.022-.164.064-.2.24-.3.351a3.214,3.214,0,0,0-.28.4c-.436.61-.838,1.243-1.225,1.885-.081.133-.16.268-.239.4-.01.017-.029.034-.013.055s.034.009.05,0c.059-.017.118-.036.176-.056a4.277,4.277,0,0,1,.592-.129,2.128,2.128,0,0,1,.623.012,2.3,2.3,0,0,1,.541.116c.171.061.173.06.082.214a14.376,14.376,0,0,0-.884,1.844q-.271.662-.537,1.324a1.97,1.97,0,0,0-.1.28c-.035.143-.115.265-.161.4s-.106.28-.161.42c-.146.379-.291.758-.439,1.136-.2.5-.386,1.005-.59,1.5-.141.343-.272.69-.407,1.035A.112.112,0,0,1,970.289,227.083Z"
          fill="#fff"/>
  </g>
</svg>
