<svg xmlns="http://www.w3.org/2000/svg" width="26.475" height="29.217" viewBox="0 0 26.475 29.217">
  <g id="UivrnB.tif" transform="translate(-1269.967 -523.495)">
    <g id="Group_824" data-name="Group 824">
      <g id="Group_823" data-name="Group 823">
        <path id="Path_2387" data-name="Path 2387" d="M1287.087,539.176h8.51l-1.221,13.535h-7.289Z" fill="#fff"/>
        <path id="Path_2388" data-name="Path 2388" d="M1279.323,539.172v13.54h-7.3l-1.22-13.54Z" fill="#fff"/>
        <path id="Path_2389" data-name="Path 2389" d="M1280.926,532.119h4.772v20.589h-4.772Z" fill="#fff"/>
        <path id="Path_2390" data-name="Path 2390" d="M1269.966,532.192h9.342v5.179h-9.342Z" fill="#fff"/>
        <path id="Path_2391" data-name="Path 2391" d="M1287.079,537.37V532.2h9.362v5.17Z" fill="#fff"/>
        <path id="Path_2392" data-name="Path 2392"
              d="M1281.426,531.04l-1.528-7.545,7.227.509c-.067.142-.109.236-.155.329q-1.581,3.215-3.159,6.431a.411.411,0,0,1-.434.283C1282.733,531.028,1282.088,531.04,1281.426,531.04Z"
              fill="#fff"/>
        <path id="Path_2393" data-name="Path 2393" d="M1284.463,531.142l3.59-4.486,2.038,2.14-5.589,2.395Z"
              fill="#fff"/>
        <path id="Path_2394" data-name="Path 2394" d="M1279.241,526.707l1.5,4.9-4.033-2.283Z" fill="#fff"/>
      </g>
    </g>
  </g>
</svg>
