<svg xmlns="http://www.w3.org/2000/svg" viewBox="0 0 14.24 30.68">
  <title>fbAsset 14</title>
  <g id="Layer_2" data-name="Layer 2">
    <g id="Layer_1-2" data-name="Layer 1">
      <path
        d="M9.47,30.68V15.36h4.22l.56-5.27H9.48c0-1.13,0-2.17,0-3.21S9.93,5.48,11,5.37c.49-.05,1,0,1.47,0h1.72V0c-2,.06-4,0-6,.21A5.14,5.14,0,0,0,3.28,5.16C3.12,6.57,3.18,8,3.14,9.45c0,.21,0,.43,0,.7H0V15.4H3.15V30.68Z"/>
      <path
        d="M9.47,30.68H3.15V15.4H0V10.15H3.1c0-.27,0-.49,0-.7,0-1.43,0-2.87.15-4.29A5.14,5.14,0,0,1,8.19.21c2-.21,4-.15,6-.21V5.34H12.45c-.49,0-1,0-1.47,0-1,.11-1.43.47-1.48,1.51s0,2.08,0,3.21h4.76l-.56,5.27H9.47Z"/>
    </g>
  </g>
</svg>
