<svg xmlns="http://www.w3.org/2000/svg" width="20.383" height="20.383" viewBox="0 0 20.383 20.383">
  <g id="Group_1086" data-name="Group 1086" transform="translate(-871.156 -144.477)">
    <path id="Path_2525" data-name="Path 2525"
          d="M881.353,144.477a10.192,10.192,0,1,1-10.189,10.6A10.177,10.177,0,0,1,881.353,144.477Zm7.485,16.015a9.5,9.5,0,1,0-16.76-3.7,9.146,9.146,0,0,0,1.774,3.691c.064-.42.115-.835.154-1.251a2.625,2.625,0,0,1,.977-1.89,2.758,2.758,0,0,1,1.8-.588q3.933,0,7.867,0c.552,0,1.107-.016,1.657.025a2.55,2.55,0,0,1,2.294,1.953,8.687,8.687,0,0,1,.12.913C888.756,159.923,888.8,160.2,888.838,160.492Z"
          fill="#fff"/>
    <path id="Path_2526" data-name="Path 2526"
          d="M885.425,151.869a4.077,4.077,0,1,1-4.071-4.078A4.077,4.077,0,0,1,885.425,151.869Z" fill="#fff"/>
  </g>
</svg>
