<svg xmlns="http://www.w3.org/2000/svg" width="20.605" height="15.807" viewBox="0 0 20.605 15.807">
  <g id="Group_286" data-name="Group 286" transform="translate(-741.416 -211.693)">
    <path id="Path_587" data-name="Path 587"
          d="M759.777,212.972a5.889,5.889,0,1,1-8.28.962A5.889,5.889,0,0,1,759.777,212.972Zm-7.624,1.488a5.062,5.062,0,1,0,7.954,6.264,5.062,5.062,0,1,0-7.954-6.264Z"
          fill="#fff"/>
    <path id="Path_588" data-name="Path 588"
          d="M742.732,218.72a3.432,3.432,0,1,1,4.829-.589A3.434,3.434,0,0,1,742.732,218.72Zm.083-4.305a2.6,2.6,0,1,0,3.656-.433A2.577,2.577,0,0,0,742.815,214.415Z"
          fill="#fff"/>
    <path id="Path_589" data-name="Path 589"
          d="M747.539,223.668a2.379,2.379,0,0,1,3.323-.384,2.366,2.366,0,1,1-3.323.384Zm.659.524a1.506,1.506,0,0,0,.237,2.14,1.528,1.528,0,1,0,1.89-2.4A1.511,1.511,0,0,0,748.2,224.192Z"
          fill="#fff"/>
    <path id="Path_590" data-name="Path 590"
          d="M753.746,220.429a3.706,3.706,0,0,1-.663-4.937c.039-.054.071-.114.113-.166a.41.41,0,0,1,.578-.108.392.392,0,0,1,.1.587,3.815,3.815,0,0,0-.4.679,2.871,2.871,0,0,0,.68,3.192c.062.057.119.118.182.174a.4.4,0,0,1,.075.579.42.42,0,0,1-.587.062C753.8,220.472,753.773,220.45,753.746,220.429Z"
          fill="#fff"/>
    <path id="Path_591" data-name="Path 591"
          d="M746.388,217.335a.559.559,0,0,1-.272.238.433.433,0,0,1-.44-.14.423.423,0,0,1-.016-.488,2.14,2.14,0,0,0,.2-.346,1.4,1.4,0,0,0-.4-1.627.432.432,0,0,1-.158-.448.38.38,0,0,1,.293-.292.4.4,0,0,1,.361.084A2.2,2.2,0,0,1,746.388,217.335Z"
          fill="#fff"/>
  </g>
</svg>
