<svg xmlns="http://www.w3.org/2000/svg" width="14.27" height="19.035" viewBox="0 0 14.27 19.035">
  <g id="qqzwwU" transform="translate(-1036.229 -951.245)">
    <g id="Group_860" data-name="Group 860">
      <path id="Path_2398" data-name="Path 2398"
            d="M1037.147,970.016c-.679-.33-.745-.95-.6-1.842a27.383,27.383,0,0,0,.071-8.292c-.273-1.813-.159-2.383,1.017-2.384.7,0,1.4-.005,2.1,0a.88.88,0,1,1,.009,1.755c-.452.011-.9.01-1.356.015-.011,0-.022.014-.063.042v8.873H1048.4v-8.928l-.36-.238c-1.135.523-2,.127-2-.647,0-.52.406-.87,1.023-.873s1.261,0,1.891,0c.991,0,1.257.242,1.267,1.191.021,1.888-.025,3.775,0,5.662.016,1.49-.02,2.981.013,4.47a1.168,1.168,0,0,1-.666,1.2Z"
            fill="#fff" stroke="#87c03f" stroke-miterlimit="10" stroke-width="0.529"/>
      <path id="Path_2399" data-name="Path 2399"
            d="M1043.563,951.51a6.474,6.474,0,0,1,.642.492c.764.748,1.515,1.509,2.27,2.266.542.543.606,1.052.186,1.457s-.917.327-1.43-.19c-.3-.3-.587-.608-.88-.913l-.114.035v8.76a4.254,4.254,0,0,1-.01.452.876.876,0,0,1-1.739,0c-.021-.218-.011-.439-.011-.658q0-4.048,0-8.1v-.562c-.416.414-.748.746-1.083,1.076a.912.912,0,0,1-1.344.1c-.528-.519-.29-1.308.733-1.79a3.777,3.777,0,0,0,1.723-1.876c.13-.27.409-.389.645-.551Z"
            fill="#fff" stroke="#87c03f" stroke-miterlimit="10" stroke-width="0.529"/>
    </g>
  </g>
</svg>
