<svg xmlns="http://www.w3.org/2000/svg" viewBox="0 0 37.59 31">
  <title>twitterAsset 12</title>
  <g id="Layer_2" data-name="Layer 2">
    <g id="Layer_1-2" data-name="Layer 1">
      <path
        d="M0,27.61A16.36,16.36,0,0,0,11.19,24.3a8.17,8.17,0,0,1-7.28-5.43H7.12l.07-.21a8,8,0,0,1-6.06-7.53L4.43,12C1.06,8.12.33,4.87,2.28,1.56a22.48,22.48,0,0,0,16,8.09,20.28,20.28,0,0,1,0-2.92,7.42,7.42,0,0,1,5-6.21,7.44,7.44,0,0,1,7.85,1.54,1.05,1.05,0,0,0,1.18.3c1.36-.49,2.72-1,4.12-1.46a7.88,7.88,0,0,1-3,3.87l.09.2,3.83-1,.16.11c-1,1-1.85,2-2.88,2.91a2.25,2.25,0,0,0-.88,1.91c-.06,9.37-6.36,19.22-17.09,21.54A22.26,22.26,0,0,1,.91,28.23L.4,27.93C.33,27.89.27,27.83,0,27.61Z"/>
    </g>
  </g>
</svg>
