<svg xmlns="http://www.w3.org/2000/svg" width="50.279" height="50.279" viewBox="0 0 50.279 50.279">
  <g id="Group_1358" data-name="Group 1358" transform="translate(-223.328 -970.061)">
    <path id="Path_2180" data-name="Path 2180"
          d="M248.468,1020.34h0A25.139,25.139,0,0,1,223.329,995.2h0a25.139,25.139,0,0,1,25.139-25.14h0a25.14,25.14,0,0,1,25.14,25.14h0A25.14,25.14,0,0,1,248.468,1020.34Z"
          fill="#ccc"/>
    <g id="Group_768" data-name="Group 768">
      <path id="Path_2181" data-name="Path 2181"
            d="M244.979,1003.514v-1.077q1.666,0,1.668-1.361v-4.925q0-1.823-1.489-1.822v-.95l4.875-.847v8.646q0,1.26,1.925,1.259v1.077Zm3.181-13.343a1.451,1.451,0,0,1-1.129-.4,1.908,1.908,0,0,1-.359-1.3,1.407,1.407,0,0,1,1.591-1.591q1.488,0,1.488,1.591a1.745,1.745,0,0,1-.41,1.3A1.63,1.63,0,0,1,248.16,990.171Z"
            fill="#fff"/>
    </g>
  </g>
</svg>
