<svg xmlns="http://www.w3.org/2000/svg" viewBox="0 0 79.32 79.32">
  <defs>
    <style>.cls-1{fill:#000;}.cls-2{fill:#fff;}</style>
  </defs>
  <title>infoAsset 2</title>
  <g id="Layer_2" data-name="Layer 2">
    <g id="Layer_1-2" data-name="Layer 1">
      <path class="cls-1"
            d="M39.66,79.32h0A39.66,39.66,0,0,1,0,39.66H0A39.66,39.66,0,0,1,39.66,0h0A39.66,39.66,0,0,1,79.32,39.66h0A39.66,39.66,0,0,1,39.66,79.32Z"/>
      <path class="cls-2"
            d="M31.6,60.43V57.72q4.19,0,4.19-3.42V41.92q0-4.58-3.74-4.58V34.95l12.26-2.13V54.56q0,3.17,4.84,3.16v2.71Zm8-33.54a3.65,3.65,0,0,1-2.84-1,4.79,4.79,0,0,1-.9-3.26q0-4,4-4,3.74,0,3.74,4a4.38,4.38,0,0,1-1,3.26A4.1,4.1,0,0,1,39.6,26.88Z"/>
    </g>
  </g>
</svg>
