<svg xmlns="http://www.w3.org/2000/svg" viewBox="0 0 7.77 10.35">
  <defs>
    <style>.cls-1{fill:#000;}</style>
  </defs>
  <title>location pinAsset 1</title>
  <g id="Layer_2" data-name="Layer 2">
    <g id="Layer_1-2" data-name="Layer 1">
      <path class="cls-1"
            d="M3.58,0h.63c.25,0,.49.08.74.15A3.86,3.86,0,0,1,7.77,4.06a3.88,3.88,0,0,1-.42,1.38,15,15,0,0,1-1.7,2.73c-.57.74-1.17,1.45-1.75,2.18h0l-.1-.13a29.89,29.89,0,0,1-2.34-3A10.67,10.67,0,0,1,.23,5C.13,4.68.08,4.4,0,4.12s0-.37,0-.56a.51.51,0,0,0,0-.08A3.87,3.87,0,0,1,2.74.18C3,.09,3.3.06,3.58,0ZM5.83,3.56A1.94,1.94,0,1,0,3.89,5.5,1.94,1.94,0,0,0,5.83,3.56Z"/>
    </g>
  </g>
</svg>
