<svg xmlns="http://www.w3.org/2000/svg" width="25.686" height="18.247" viewBox="0 0 25.686 18.247">
  <g id="Group_172" data-name="Group 172" transform="translate(-861.408 -139.706)">
    <path id="Path_318" data-name="Path 318"
          d="M876.415,139.706c.306.059.614.109.918.18a5.466,5.466,0,0,1,2.5,9.2.66.66,0,0,0-.172.414c-.011,2.167-.007,4.335-.008,6.5a1.829,1.829,0,0,1-1.945,1.947q-6.246,0-12.493,0a1.828,1.828,0,0,1-1.97-1.976c0-2.158,0-4.317-.008-6.475a.673.673,0,0,0-.174-.413,5.478,5.478,0,0,1,2.976-9.3c.148-.028.3-.052.445-.078h.8a1.511,1.511,0,0,0,.217.058,5.36,5.36,0,0,1,3.584,1.936c.121.142.232.292.366.46.073-.094.13-.165.185-.238a5.419,5.419,0,0,1,2.954-2.008c.336-.092.683-.14,1.025-.208Zm.663,5.506a1.065,1.065,0,1,0-1.1,1.034A1.064,1.064,0,0,0,877.078,145.212Zm-10.205,1.032a1.063,1.063,0,1,0-1.052-1.052A1.054,1.054,0,0,0,866.873,146.244Z"
          fill="#fff"/>
    <path id="Path_319" data-name="Path 319"
          d="M887.094,152.485q0,1.954,0,3.907c0,.607-.342.8-.869.5-1.457-.838-2.91-1.683-4.37-2.515a.373.373,0,0,1-.213-.383q.012-1.554,0-3.108a.372.372,0,0,1,.216-.381c1.472-.81,2.939-1.631,4.409-2.446.479-.265.827-.059.828.491C887.1,149.862,887.094,151.173,887.094,152.485Z"
          fill="#fff"/>
  </g>
</svg>
