<svg xmlns="http://www.w3.org/2000/svg" viewBox="0 0 49.27 35">
  <title>now showing iconAsset 4</title>
  <g id="Layer_2" data-name="Layer 2">
    <g id="Layer_1-2" data-name="Layer 1">
      <path
        d="M28.78,0c.59.11,1.18.21,1.76.35A10.48,10.48,0,0,1,35.34,18a1.27,1.27,0,0,0-.33.79c0,4.16,0,8.32,0,12.47A3.51,3.51,0,0,1,31.27,35H7.3a3.51,3.51,0,0,1-3.78-3.79c0-4.14,0-8.28,0-12.42A1.28,1.28,0,0,0,3.18,18,10.15,10.15,0,0,1,.54,7.37,10.16,10.16,0,0,1,8.89.15L9.74,0h1.53a2.84,2.84,0,0,0,.41.11,10.29,10.29,0,0,1,6.88,3.71c.23.27.45.56.7.88l.36-.46A10.38,10.38,0,0,1,25.29.4c.64-.18,1.31-.27,2-.4Zm1.27,10.56a2,2,0,1,0-2.11,2A2,2,0,0,0,30.06,10.56Zm-19.57,2a2,2,0,1,0-2-2A2,2,0,0,0,10.48,12.54Z"/>
      <path
        d="M49.27,24.51q0,3.75,0,7.49c0,1.16-.65,1.54-1.67,1-2.79-1.61-5.58-3.23-8.38-4.83a.72.72,0,0,1-.41-.73q0-3,0-6a.71.71,0,0,1,.41-.73C42,19.16,44.86,17.59,47.68,16c.92-.51,1.59-.11,1.59.94Q49.27,20.74,49.27,24.51Z"/>
    </g>
  </g>
</svg>
