<svg xmlns="http://www.w3.org/2000/svg" width="9.756" height="11.168" viewBox="0 0 9.756 11.168">
  <g id="Group_58" data-name="Group 58" transform="translate(-1264.154 -791.313)">
    <g id="Group_57" data-name="Group 57">
      <path id="Path_31" data-name="Path 31"
            d="M1265.955,792.726c0-.378,0-.736,0-1.1a.319.319,0,0,1,.62-.1.643.643,0,0,1,.021.181c0,.285,0,.569,0,.854v.153h4.6c0-.039.007-.08.007-.122,0-.311,0-.622,0-.933a.312.312,0,0,1,.313-.345.319.319,0,0,1,.327.348c0,.3,0,.6,0,.906v.158h1.68c.259,0,.379.119.379.376q0,4.494,0,8.988c0,.271-.122.39-.4.39h-8.974a.338.338,0,0,1-.386-.387v-8.975c0-.277.115-.391.39-.392h1.411Zm5.252.648h-4.583a1.657,1.657,0,0,1-.081.318.279.279,0,0,1-.285.15c-.188-.008-.254-.1-.319-.463h-1.131v8.445h8.453v-8.447h-1.383c-.045.356-.131.47-.348.465S1271.24,793.715,1271.207,793.374Z"
            fill="#fff"/>
      <path id="Path_32" data-name="Path 32"
            d="M1266.733,796.319a.632.632,0,0,1-.607-.579.62.62,0,0,1,.591-.59.611.611,0,0,1,.6.548A.625.625,0,0,1,1266.733,796.319Z"
            fill="#fff"/>
      <path id="Path_33" data-name="Path 33" d="M1266.743,800.552a.584.584,0,0,1-.585-.561.577.577,0,1,1,.585.561Z"
            fill="#fff"/>
      <path id="Path_34" data-name="Path 34" d="M1267.312,797.844a.577.577,0,1,1-1.154.026.577.577,0,0,1,1.154-.026Z"
            fill="#fff"/>
      <path id="Path_35" data-name="Path 35"
            d="M1269.042,796.319a.631.631,0,0,1-.607-.579.62.62,0,0,1,.591-.59.612.612,0,0,1,.6.548A.625.625,0,0,1,1269.042,796.319Z"
            fill="#fff"/>
      <path id="Path_36" data-name="Path 36"
            d="M1269.052,800.552a.585.585,0,0,1-.586-.561.574.574,0,0,1,.584-.583.568.568,0,0,1,.571.57A.575.575,0,0,1,1269.052,800.552Z"
            fill="#fff"/>
      <path id="Path_37" data-name="Path 37" d="M1269.621,797.844a.577.577,0,1,1-1.154.026.577.577,0,0,1,1.154-.026Z"
            fill="#fff"/>
      <path id="Path_38" data-name="Path 38"
            d="M1271.351,796.319a.633.633,0,0,1-.608-.579.622.622,0,0,1,.592-.59.612.612,0,0,1,.6.548A.625.625,0,0,1,1271.351,796.319Z"
            fill="#fff"/>
      <path id="Path_39" data-name="Path 39" d="M1271.93,797.844a.578.578,0,1,1-1.155.026.578.578,0,0,1,1.155-.026Z"
            fill="#fff"/>
    </g>
  </g>
</svg>
