<svg xmlns="http://www.w3.org/2000/svg" width="18.795" height="18.794" viewBox="0 0 18.795 18.794">
  <path id="Path_28" data-name="Path 28"
        d="M1329.02,805.554h-.089c-.563-.567-1.12-1.141-1.693-1.7a.412.412,0,0,1-.1-.562,1.794,1.794,0,0,0-1.36-2.562,6.887,6.887,0,0,0-1.574.162l-1.763-1.833v-.089a4.534,4.534,0,0,0,.369-.3q3.411-3.405,6.818-6.814c.111-.111.229-.214.441-.412l.775.934.716-.716-.971-.773c.7-.7,1.345-1.332,1.978-1.976.37-.376.724-.768,1.085-1.154h.089l1.932,1.831c-.6,1.214-.556,1.988.094,2.637s1.405.694,2.616.1l1.852,1.922v.089c-.794.77-1.592,1.537-2.382,2.311-.239.235-.457.489-.771.826l-.806-.991-.731.7,1.054.843a5.109,5.109,0,0,0-.483.363q-3.4,3.393-6.793,6.793A4.461,4.461,0,0,0,1329.02,805.554Zm2.864-12.256.844.928.577-.567-.852-.924Zm2.494,1.368-.556.494.8.966.629-.593Z"
        transform="translate(-1321.936 -787.26)" stroke="#666" stroke-linecap="round" stroke-miterlimit="10"
        stroke-width="1"/>
</svg>
