<svg xmlns:xlink="http://www.w3.org/1999/xlink" xmlns="http://www.w3.org/2000/svg" viewBox="0 0 1920 757">
  <defs>
    <style>
      .cls-1,.cls-10,.cls-100,.cls-101,.cls-102,.cls-103,.cls-104,.cls-105,.cls-106,.cls-107,.cls-108,.cls-109,.cls-11,.cls-110,.cls-111,.cls-112,.cls-113,.cls-114,.cls-115,.cls-116,.cls-117,.cls-118,.cls-119,.cls-12,.cls-120,.cls-121,.cls-122,.cls-123,.cls-124,.cls-125,.cls-126,.cls-127,.cls-128,.cls-13,.cls-14,.cls-15,.cls-16,.cls-17,.cls-18,.cls-19,.cls-20,.cls-21,.cls-22,.cls-23,.cls-24,.cls-25,.cls-26,.cls-27,.cls-28,.cls-29,.cls-30,.cls-31,.cls-32,.cls-33,.cls-34,.cls-35,.cls-36,.cls-37,.cls-38,.cls-39,.cls-40,.cls-41,.cls-42,.cls-43,.cls-44,.cls-45,.cls-46,.cls-47,.cls-48,.cls-49,.cls-50,.cls-51,.cls-52,.cls-53,.cls-54,.cls-55,.cls-56,.cls-57,.cls-58,.cls-59,.cls-6,.cls-60,.cls-61,.cls-62,.cls-63,.cls-64,.cls-65,.cls-66,.cls-67,.cls-68,.cls-69,.cls-7,.cls-70,.cls-71,.cls-72,.cls-73,.cls-74,.cls-75,.cls-76,.cls-77,.cls-78,.cls-79,.cls-8,.cls-80,.cls-81,.cls-82,.cls-83,.cls-84,.cls-85,.cls-86,.cls-87,.cls-88,.cls-89,.cls-9,.cls-90,.cls-91,.cls-92,.cls-93,.cls-94,.cls-95,.cls-96,.cls-97,.cls-98,.cls-99{fill:none;}.cls-2{isolation:isolate;}.cls-3{clip-path:url(#clip-path);}.cls-4{fill:url(#linear-gradient);}.cls-5{opacity:0.5;mix-blend-mode:multiply;}.cls-10,.cls-100,.cls-101,.cls-102,.cls-103,.cls-104,.cls-105,.cls-106,.cls-107,.cls-108,.cls-109,.cls-11,.cls-110,.cls-111,.cls-112,.cls-113,.cls-114,.cls-115,.cls-116,.cls-117,.cls-118,.cls-119,.cls-12,.cls-120,.cls-121,.cls-122,.cls-123,.cls-124,.cls-125,.cls-126,.cls-127,.cls-128,.cls-13,.cls-14,.cls-15,.cls-16,.cls-17,.cls-18,.cls-19,.cls-20,.cls-21,.cls-22,.cls-23,.cls-24,.cls-25,.cls-26,.cls-27,.cls-28,.cls-29,.cls-30,.cls-31,.cls-32,.cls-33,.cls-34,.cls-35,.cls-36,.cls-37,.cls-38,.cls-39,.cls-40,.cls-41,.cls-42,.cls-43,.cls-44,.cls-45,.cls-46,.cls-47,.cls-48,.cls-49,.cls-50,.cls-51,.cls-52,.cls-53,.cls-54,.cls-55,.cls-56,.cls-57,.cls-58,.cls-59,.cls-6,.cls-60,.cls-61,.cls-62,.cls-63,.cls-64,.cls-65,.cls-66,.cls-67,.cls-68,.cls-69,.cls-7,.cls-70,.cls-71,.cls-72,.cls-73,.cls-74,.cls-75,.cls-76,.cls-77,.cls-78,.cls-79,.cls-8,.cls-80,.cls-81,.cls-82,.cls-83,.cls-84,.cls-85,.cls-86,.cls-87,.cls-88,.cls-89,.cls-9,.cls-90,.cls-91,.cls-92,.cls-93,.cls-94,.cls-95,.cls-96,.cls-97,.cls-98,.cls-99{stroke-miterlimit:10;stroke-width:3.36px;}.cls-6{stroke:url(#radial-gradient);}.cls-7{stroke:url(#radial-gradient-2);}.cls-8{stroke:url(#radial-gradient-3);}.cls-9{stroke:url(#radial-gradient-4);}.cls-10{stroke:url(#radial-gradient-5);}.cls-11{stroke:url(#radial-gradient-6);}.cls-12{stroke:url(#radial-gradient-7);}.cls-13{stroke:url(#radial-gradient-8);}.cls-14{stroke:url(#radial-gradient-9);}.cls-15{stroke:url(#radial-gradient-10);}.cls-16{stroke:url(#radial-gradient-11);}.cls-17{stroke:url(#radial-gradient-12);}.cls-18{stroke:url(#radial-gradient-13);}.cls-19{stroke:url(#radial-gradient-14);}.cls-20{stroke:url(#radial-gradient-15);}.cls-21{stroke:url(#radial-gradient-16);}.cls-22{stroke:url(#radial-gradient-17);}.cls-23{stroke:url(#radial-gradient-18);}.cls-24{stroke:url(#radial-gradient-19);}.cls-25{stroke:url(#radial-gradient-20);}.cls-26{stroke:url(#radial-gradient-21);}.cls-27{stroke:url(#radial-gradient-22);}.cls-28{stroke:url(#radial-gradient-23);}.cls-29{stroke:url(#radial-gradient-24);}.cls-30{stroke:url(#radial-gradient-25);}.cls-31{stroke:url(#radial-gradient-26);}.cls-32{stroke:url(#radial-gradient-27);}.cls-33{stroke:url(#radial-gradient-28);}.cls-34{stroke:url(#radial-gradient-29);}.cls-35{stroke:url(#radial-gradient-30);}.cls-36{stroke:url(#radial-gradient-31);}.cls-37{stroke:url(#radial-gradient-32);}.cls-38{stroke:url(#radial-gradient-33);}.cls-39{stroke:url(#radial-gradient-34);}.cls-40{stroke:url(#radial-gradient-35);}.cls-41{stroke:url(#radial-gradient-36);}.cls-42{stroke:url(#radial-gradient-37);}.cls-43{stroke:url(#radial-gradient-38);}.cls-44{stroke:url(#radial-gradient-39);}.cls-45{stroke:url(#radial-gradient-40);}.cls-46{stroke:url(#radial-gradient-41);}.cls-47{stroke:url(#radial-gradient-42);}.cls-48{stroke:url(#radial-gradient-43);}.cls-49{stroke:url(#radial-gradient-44);}.cls-50{stroke:url(#radial-gradient-45);}.cls-51{stroke:url(#radial-gradient-46);}.cls-52{stroke:url(#radial-gradient-47);}.cls-53{stroke:url(#radial-gradient-48);}.cls-54{stroke:url(#radial-gradient-49);}.cls-55{stroke:url(#radial-gradient-50);}.cls-56{stroke:url(#radial-gradient-51);}.cls-57{stroke:url(#radial-gradient-52);}.cls-58{stroke:url(#radial-gradient-53);}.cls-59{stroke:url(#radial-gradient-54);}.cls-60{stroke:url(#radial-gradient-55);}.cls-61{stroke:url(#radial-gradient-56);}.cls-62{stroke:url(#radial-gradient-57);}.cls-63{stroke:url(#radial-gradient-58);}.cls-64{stroke:url(#radial-gradient-59);}.cls-65{stroke:url(#radial-gradient-60);}.cls-66{stroke:url(#radial-gradient-61);}.cls-67{stroke:url(#radial-gradient-62);}.cls-68{stroke:url(#radial-gradient-63);}.cls-69{stroke:url(#radial-gradient-64);}.cls-70{stroke:url(#radial-gradient-65);}.cls-71{stroke:url(#radial-gradient-66);}.cls-72{stroke:url(#radial-gradient-67);}.cls-73{stroke:url(#radial-gradient-68);}.cls-74{stroke:url(#radial-gradient-69);}.cls-75{stroke:url(#radial-gradient-70);}.cls-76{stroke:url(#radial-gradient-71);}.cls-77{stroke:url(#radial-gradient-72);}.cls-78{stroke:url(#radial-gradient-73);}.cls-79{stroke:url(#radial-gradient-74);}.cls-80{stroke:url(#radial-gradient-75);}.cls-81{stroke:url(#radial-gradient-76);}.cls-82{stroke:url(#radial-gradient-77);}.cls-83{stroke:url(#radial-gradient-78);}.cls-84{stroke:url(#radial-gradient-79);}.cls-85{stroke:url(#radial-gradient-80);}.cls-86{stroke:url(#radial-gradient-81);}.cls-87{stroke:url(#radial-gradient-82);}.cls-88{stroke:url(#radial-gradient-83);}.cls-89{stroke:url(#radial-gradient-84);}.cls-90{stroke:url(#radial-gradient-85);}.cls-91{stroke:url(#radial-gradient-86);}.cls-92{stroke:url(#radial-gradient-87);}.cls-93{stroke:url(#radial-gradient-88);}.cls-94{stroke:url(#radial-gradient-89);}.cls-95{stroke:url(#radial-gradient-90);}.cls-96{stroke:url(#radial-gradient-91);}.cls-97{stroke:url(#radial-gradient-92);}.cls-98{stroke:url(#radial-gradient-93);}.cls-99{stroke:url(#radial-gradient-94);}.cls-100{stroke:url(#radial-gradient-95);}.cls-101{stroke:url(#radial-gradient-96);}.cls-102{stroke:url(#radial-gradient-97);}.cls-103{stroke:url(#radial-gradient-98);}.cls-104{stroke:url(#radial-gradient-99);}.cls-105{stroke:url(#radial-gradient-100);}.cls-106{stroke:url(#radial-gradient-101);}.cls-107{stroke:url(#radial-gradient-102);}.cls-108{stroke:url(#radial-gradient-103);}.cls-109{stroke:url(#radial-gradient-104);}.cls-110{stroke:url(#radial-gradient-105);}.cls-111{stroke:url(#radial-gradient-106);}.cls-112{stroke:url(#radial-gradient-107);}.cls-113{stroke:url(#radial-gradient-108);}.cls-114{stroke:url(#radial-gradient-109);}.cls-115{stroke:url(#radial-gradient-110);}.cls-116{stroke:url(#radial-gradient-111);}.cls-117{stroke:url(#radial-gradient-112);}.cls-118{stroke:url(#radial-gradient-113);}.cls-119{stroke:url(#radial-gradient-114);}.cls-120{stroke:url(#radial-gradient-115);}.cls-121{stroke:url(#radial-gradient-116);}.cls-122{stroke:url(#radial-gradient-117);}.cls-123{stroke:url(#radial-gradient-118);}.cls-124{stroke:url(#radial-gradient-119);}.cls-125{stroke:url(#radial-gradient-120);}.cls-126{stroke:url(#radial-gradient-121);}.cls-127{stroke:url(#radial-gradient-122);}.cls-128{stroke:url(#radial-gradient-123);}
    </style>
    <clipPath id="clip-path">
      <rect class="cls-1" width="1920" height="757.15"/>
    </clipPath>
    <linearGradient id="linear-gradient" x1="1213.37" y1="-205.25" x2="665.62" y2="1316.03"
                    gradientUnits="userSpaceOnUse">
      <stop offset="0" stop-color="#cc1f2e"/>
      <stop offset="1" stop-color="#ad002e"/>
    </linearGradient>
    <radialGradient id="radial-gradient" cx="3194.77" cy="-10.27" r="250.07"
                    gradientTransform="translate(-8033.08) scale(2.82 1)" gradientUnits="userSpaceOnUse">
      <stop offset="0" stop-color="#dd6f78"/>
      <stop offset="0.19" stop-color="#f1c4c8"/>
      <stop offset="0.33" stop-color="#fff"/>
      <stop offset="0.38" stop-color="#faebec"/>
      <stop offset="0.61" stop-color="#e7959c"/>
      <stop offset="0.8" stop-color="#d85561"/>
      <stop offset="0.93" stop-color="#cf2e3c"/>
      <stop offset="1" stop-color="#cc1f2e"/>
    </radialGradient>
    <radialGradient id="radial-gradient-2" cx="3194.75" cy="-3.81" r="250.06" xlink:href="#radial-gradient"/>
    <radialGradient id="radial-gradient-3" cx="3194.73" cy="2.66" r="250.05" xlink:href="#radial-gradient"/>
    <radialGradient id="radial-gradient-4" cx="3194.72" cy="9.12" r="250.05" xlink:href="#radial-gradient"/>
    <radialGradient id="radial-gradient-5" cx="3194.7" cy="15.59" r="250.04" xlink:href="#radial-gradient"/>
    <radialGradient id="radial-gradient-6" cx="3194.68" cy="22.05" r="250.03" xlink:href="#radial-gradient"/>
    <radialGradient id="radial-gradient-7" cx="3194.67" cy="28.52" r="250.02" xlink:href="#radial-gradient"/>
    <radialGradient id="radial-gradient-8" cx="3194.65" cy="34.99" r="250.01" xlink:href="#radial-gradient"/>
    <radialGradient id="radial-gradient-9" cx="3194.63" cy="41.45" r="250" xlink:href="#radial-gradient"/>
    <radialGradient id="radial-gradient-10" cx="3194.62" cy="47.92" r="249.99" xlink:href="#radial-gradient"/>
    <radialGradient id="radial-gradient-11" cx="3194.6" cy="54.42" r="249.98" xlink:href="#radial-gradient"/>
    <radialGradient id="radial-gradient-12" cx="3194.59" cy="60.89" r="249.97" xlink:href="#radial-gradient"/>
    <radialGradient id="radial-gradient-13" cx="3194.57" cy="67.36" r="249.96" xlink:href="#radial-gradient"/>
    <radialGradient id="radial-gradient-14" cx="3194.55" cy="73.82" r="249.95" xlink:href="#radial-gradient"/>
    <radialGradient id="radial-gradient-15" cx="3194.54" cy="80.29" r="249.94" xlink:href="#radial-gradient"/>
    <radialGradient id="radial-gradient-16" cx="3194.52" cy="86.76" r="249.93" xlink:href="#radial-gradient"/>
    <radialGradient id="radial-gradient-17" cx="3194.5" cy="93.22" r="249.92" xlink:href="#radial-gradient"/>
    <radialGradient id="radial-gradient-18" cx="3194.49" cy="99.69" r="249.92" xlink:href="#radial-gradient"/>
    <radialGradient id="radial-gradient-19" cx="3194.47" cy="106.15" r="249.91" xlink:href="#radial-gradient"/>
    <radialGradient id="radial-gradient-20" cx="3194.46" cy="112.62" r="249.9" xlink:href="#radial-gradient"/>
    <radialGradient id="radial-gradient-21" cx="3194.44" cy="119.09" r="249.89" xlink:href="#radial-gradient"/>
    <radialGradient id="radial-gradient-22" cx="3194.42" cy="125.55" r="249.88" xlink:href="#radial-gradient"/>
    <radialGradient id="radial-gradient-23" cx="3194.41" cy="132.02" r="249.87" xlink:href="#radial-gradient"/>
    <radialGradient id="radial-gradient-24" cx="3194.39" cy="138.49" r="249.86" xlink:href="#radial-gradient"/>
    <radialGradient id="radial-gradient-25" cx="3194.38" cy="144.95" r="249.85" xlink:href="#radial-gradient"/>
    <radialGradient id="radial-gradient-26" cx="3194.36" cy="151.42" r="249.85" xlink:href="#radial-gradient"/>
    <radialGradient id="radial-gradient-27" cx="3194.35" cy="157.88" r="249.84" xlink:href="#radial-gradient"/>
    <radialGradient id="radial-gradient-28" cx="3194.33" cy="164.35" r="249.83" xlink:href="#radial-gradient"/>
    <radialGradient id="radial-gradient-29" cx="3194.31" cy="170.82" r="249.82" xlink:href="#radial-gradient"/>
    <radialGradient id="radial-gradient-30" cx="3194.3" cy="177.28" r="249.81" xlink:href="#radial-gradient"/>
    <radialGradient id="radial-gradient-31" cx="3194.28" cy="183.75" r="249.8" xlink:href="#radial-gradient"/>
    <radialGradient id="radial-gradient-32" cx="3194.27" cy="190.21" r="249.79" xlink:href="#radial-gradient"/>
    <radialGradient id="radial-gradient-33" cx="3194.25" cy="196.68" r="249.79" xlink:href="#radial-gradient"/>
    <radialGradient id="radial-gradient-34" cx="3194.24" cy="203.15" r="249.78" xlink:href="#radial-gradient"/>
    <radialGradient id="radial-gradient-35" cx="3194.22" cy="209.61" r="249.77" xlink:href="#radial-gradient"/>
    <radialGradient id="radial-gradient-36" cx="3194.21" cy="216.08" r="249.76" xlink:href="#radial-gradient"/>
    <radialGradient id="radial-gradient-37" cx="3194.19" cy="222.54" r="249.75" xlink:href="#radial-gradient"/>
    <radialGradient id="radial-gradient-38" cx="3194.18" cy="229.01" r="249.74" xlink:href="#radial-gradient"/>
    <radialGradient id="radial-gradient-39" cx="3194.16" cy="235.48" r="249.74" xlink:href="#radial-gradient"/>
    <radialGradient id="radial-gradient-40" cx="3194.15" cy="241.94" r="249.73" xlink:href="#radial-gradient"/>
    <radialGradient id="radial-gradient-41" cx="3194.13" cy="248.41" r="249.72" xlink:href="#radial-gradient"/>
    <radialGradient id="radial-gradient-42" cx="3194.12" cy="254.88" r="249.71" xlink:href="#radial-gradient"/>
    <radialGradient id="radial-gradient-43" cx="3194.1" cy="261.34" r="249.71" xlink:href="#radial-gradient"/>
    <radialGradient id="radial-gradient-44" cx="3194.09" cy="267.81" r="249.7" xlink:href="#radial-gradient"/>
    <radialGradient id="radial-gradient-45" cx="3194.07" cy="274.28" r="249.69" xlink:href="#radial-gradient"/>
    <radialGradient id="radial-gradient-46" cx="3194.06" cy="280.74" r="249.68" xlink:href="#radial-gradient"/>
    <radialGradient id="radial-gradient-47" cx="3194.04" cy="287.21" r="249.67" xlink:href="#radial-gradient"/>
    <radialGradient id="radial-gradient-48" cx="3194.03" cy="293.68" r="249.67" xlink:href="#radial-gradient"/>
    <radialGradient id="radial-gradient-49" cx="3194.01" cy="300.14" r="249.66" xlink:href="#radial-gradient"/>
    <radialGradient id="radial-gradient-50" cx="3194" cy="306.61" r="249.65" xlink:href="#radial-gradient"/>
    <radialGradient id="radial-gradient-51" cx="3193.98" cy="313.08" r="249.64" xlink:href="#radial-gradient"/>
    <radialGradient id="radial-gradient-52" cx="3193.97" cy="319.54" r="249.64" xlink:href="#radial-gradient"/>
    <radialGradient id="radial-gradient-53" cx="3193.95" cy="326.01" r="249.63" xlink:href="#radial-gradient"/>
    <radialGradient id="radial-gradient-54" cx="3193.94" cy="332.48" r="249.62" xlink:href="#radial-gradient"/>
    <radialGradient id="radial-gradient-55" cx="3193.93" cy="338.95" r="249.62" xlink:href="#radial-gradient"/>
    <radialGradient id="radial-gradient-56" cx="3193.91" cy="345.41" r="249.61" xlink:href="#radial-gradient"/>
    <radialGradient id="radial-gradient-57" cx="3193.9" cy="351.88" r="249.6" xlink:href="#radial-gradient"/>
    <radialGradient id="radial-gradient-58" cx="3193.88" cy="358.35" r="249.59" xlink:href="#radial-gradient"/>
    <radialGradient id="radial-gradient-59" cx="3193.87" cy="364.82" r="249.59" xlink:href="#radial-gradient"/>
    <radialGradient id="radial-gradient-60" cx="3193.86" cy="371.28" r="249.58" xlink:href="#radial-gradient"/>
    <radialGradient id="radial-gradient-61" cx="3193.84" cy="377.75" r="249.57" xlink:href="#radial-gradient"/>
    <radialGradient id="radial-gradient-62" cx="3193.83" cy="384.22" r="249.57" xlink:href="#radial-gradient"/>
    <radialGradient id="radial-gradient-63" cx="3193.81" cy="390.69" r="249.56" xlink:href="#radial-gradient"/>
    <radialGradient id="radial-gradient-64" cx="3193.8" cy="397.16" r="249.55" xlink:href="#radial-gradient"/>
    <radialGradient id="radial-gradient-65" cx="3193.79" cy="403.63" r="249.55" xlink:href="#radial-gradient"/>
    <radialGradient id="radial-gradient-66" cx="3193.77" cy="410.1" r="249.54" xlink:href="#radial-gradient"/>
    <radialGradient id="radial-gradient-67" cx="3193.76" cy="416.57" r="249.53" xlink:href="#radial-gradient"/>
    <radialGradient id="radial-gradient-68" cx="3193.75" cy="423.04" r="249.53" xlink:href="#radial-gradient"/>
    <radialGradient id="radial-gradient-69" cx="3193.73" cy="429.51" r="249.52" xlink:href="#radial-gradient"/>
    <radialGradient id="radial-gradient-70" cx="3193.72" cy="435.98" r="249.52" xlink:href="#radial-gradient"/>
    <radialGradient id="radial-gradient-71" cx="3193.71" cy="442.45" r="249.51" xlink:href="#radial-gradient"/>
    <radialGradient id="radial-gradient-72" cx="3193.69" cy="448.92" r="249.5" xlink:href="#radial-gradient"/>
    <radialGradient id="radial-gradient-73" cx="3193.68" cy="455.39" r="249.5" xlink:href="#radial-gradient"/>
    <radialGradient id="radial-gradient-74" cx="3193.67" cy="461.86" r="249.49" xlink:href="#radial-gradient"/>
    <radialGradient id="radial-gradient-75" cx="3193.66" cy="468.33" r="249.49" xlink:href="#radial-gradient"/>
    <radialGradient id="radial-gradient-76" cx="3193.64" cy="474.8" r="249.48" xlink:href="#radial-gradient"/>
    <radialGradient id="radial-gradient-77" cx="3193.63" cy="481.27" r="249.47" xlink:href="#radial-gradient"/>
    <radialGradient id="radial-gradient-78" cx="3193.62" cy="487.74" r="249.47" xlink:href="#radial-gradient"/>
    <radialGradient id="radial-gradient-79" cx="3193.61" cy="494.22" r="249.46" xlink:href="#radial-gradient"/>
    <radialGradient id="radial-gradient-80" cx="3193.59" cy="500.69" r="249.46" xlink:href="#radial-gradient"/>
    <radialGradient id="radial-gradient-81" cx="3193.58" cy="507.16" r="249.45" xlink:href="#radial-gradient"/>
    <radialGradient id="radial-gradient-82" cx="3193.57" cy="513.64" r="249.45" xlink:href="#radial-gradient"/>
    <radialGradient id="radial-gradient-83" cx="3193.56" cy="520.11" r="249.44" xlink:href="#radial-gradient"/>
    <radialGradient id="radial-gradient-84" cx="3193.54" cy="526.58" r="249.44" xlink:href="#radial-gradient"/>
    <radialGradient id="radial-gradient-85" cx="3193.53" cy="533.06" r="249.43" xlink:href="#radial-gradient"/>
    <radialGradient id="radial-gradient-86" cx="3193.52" cy="539.53" r="249.43" xlink:href="#radial-gradient"/>
    <radialGradient id="radial-gradient-87" cx="3193.51" cy="546.01" r="249.42" xlink:href="#radial-gradient"/>
    <radialGradient id="radial-gradient-88" cx="3193.5" cy="552.49" r="249.42" xlink:href="#radial-gradient"/>
    <radialGradient id="radial-gradient-89" cx="3193.49" cy="558.96" r="249.41" xlink:href="#radial-gradient"/>
    <radialGradient id="radial-gradient-90" cx="3193.47" cy="565.44" r="249.41" xlink:href="#radial-gradient"/>
    <radialGradient id="radial-gradient-91" cx="3193.46" cy="571.92" r="249.41" xlink:href="#radial-gradient"/>
    <radialGradient id="radial-gradient-92" cx="3193.45" cy="578.38" r="249.4" xlink:href="#radial-gradient"/>
    <radialGradient id="radial-gradient-93" cx="3193.44" cy="584.88" r="249.4" xlink:href="#radial-gradient"/>
    <radialGradient id="radial-gradient-94" cx="3193.43" cy="591.38" r="249.39" xlink:href="#radial-gradient"/>
    <radialGradient id="radial-gradient-95" cx="3193.42" cy="597.88" r="249.39" xlink:href="#radial-gradient"/>
    <radialGradient id="radial-gradient-96" cx="3193.41" cy="604.38" r="249.39" xlink:href="#radial-gradient"/>
    <radialGradient id="radial-gradient-97" cx="3193.39" cy="610.88" r="249.38" xlink:href="#radial-gradient"/>
    <radialGradient id="radial-gradient-98" cx="3193.38" cy="617.38" r="249.38" xlink:href="#radial-gradient"/>
    <radialGradient id="radial-gradient-99" cx="3193.37" cy="623.88" r="249.38" xlink:href="#radial-gradient"/>
    <radialGradient id="radial-gradient-100" cx="3193.36" cy="630.38" r="249.38" xlink:href="#radial-gradient"/>
    <radialGradient id="radial-gradient-101" cx="3193.35" cy="636.88" r="249.37" xlink:href="#radial-gradient"/>
    <radialGradient id="radial-gradient-102" cx="3193.34" cy="643.39" r="249.37" xlink:href="#radial-gradient"/>
    <radialGradient id="radial-gradient-103" cx="3193.33" cy="649.89" r="249.37" xlink:href="#radial-gradient"/>
    <radialGradient id="radial-gradient-104" cx="3193.32" cy="656.39" r="249.37" xlink:href="#radial-gradient"/>
    <radialGradient id="radial-gradient-105" cx="3193.31" cy="662.9" r="249.36" xlink:href="#radial-gradient"/>
    <radialGradient id="radial-gradient-106" cx="3193.3" cy="669.4" r="249.36" xlink:href="#radial-gradient"/>
    <radialGradient id="radial-gradient-107" cx="3193.29" cy="675.91" r="249.36" xlink:href="#radial-gradient"/>
    <radialGradient id="radial-gradient-108" cx="3193.27" cy="682.42" r="249.36" xlink:href="#radial-gradient"/>
    <radialGradient id="radial-gradient-109" cx="3193.26" cy="688.92" r="249.35" xlink:href="#radial-gradient"/>
    <radialGradient id="radial-gradient-110" cx="3193.25" cy="695.43" r="249.35" xlink:href="#radial-gradient"/>
    <radialGradient id="radial-gradient-111" cx="3193.24" cy="701.94" r="249.35" xlink:href="#radial-gradient"/>
    <radialGradient id="radial-gradient-112" cx="3193.23" cy="708.44" r="249.35" xlink:href="#radial-gradient"/>
    <radialGradient id="radial-gradient-113" cx="3193.22" cy="714.95" r="249.35" xlink:href="#radial-gradient"/>
    <radialGradient id="radial-gradient-114" cx="3193.21" cy="721.46" r="249.34" xlink:href="#radial-gradient"/>
    <radialGradient id="radial-gradient-115" cx="3193.2" cy="727.97" r="249.34" xlink:href="#radial-gradient"/>
    <radialGradient id="radial-gradient-116" cx="3193.19" cy="734.48" r="249.34" xlink:href="#radial-gradient"/>
    <radialGradient id="radial-gradient-117" cx="3193.18" cy="740.99" r="249.34" xlink:href="#radial-gradient"/>
    <radialGradient id="radial-gradient-118" cx="3193.17" cy="747.5" r="249.34" xlink:href="#radial-gradient"/>
    <radialGradient id="radial-gradient-119" cx="3193.15" cy="754.01" r="249.33" xlink:href="#radial-gradient"/>
    <radialGradient id="radial-gradient-120" cx="3193.14" cy="760.52" r="249.33" xlink:href="#radial-gradient"/>
    <radialGradient id="radial-gradient-121" cx="3193.13" cy="767.03" r="249.33" xlink:href="#radial-gradient"/>
    <radialGradient id="radial-gradient-122" cx="3193.12" cy="773.54" r="249.33" xlink:href="#radial-gradient"/>
    <radialGradient id="radial-gradient-123" cx="3193.11" cy="779.58" r="249.3" xlink:href="#radial-gradient"/>
  </defs>
  <title>red bg</title>
  <g class="cls-2">
    <g id="Layer_1" data-name="Layer 1">
      <g class="cls-3">
        <rect class="cls-4" x="-62.89" y="-135.89" width="2030.9" height="1310"/>
        <g class="cls-5">
          <path class="cls-6"
                d="M-34.19-10.69c71.64.1,149.53-3.39,218.6,1.73,114.47,8.48,197.94,14.21,317,6.08,113.21-7.73,228.08-19.06,343-15.27C964.68-14.2,1078.89,1.57,1200-2.24c73.07-2.3,141.55-12.07,213.61-16.59,91.78-6,188-1.88,275.85,9.49C1723-5,1759.32.38,1792.89-3.8c59.19-7.36,102-7.16,162.57-8.05"/>
          <path class="cls-7"
                d="M-34.19-4.27c71.84.1,149.7-3.34,218.95,1.83,114,8.51,197.18,14.19,315.74,6.14C613.41-4,728-15.19,842.68-11.49,963.37-7.6,1078,7.84,1199.52,4c73.31-2.31,142.06-12,214.37-16.48,91.87-6,188.22-1.9,276.11,9.49,33.51,4.32,69.8,9.74,103.35,5.58,59-7.31,101.81-7.17,162-8.12"/>
          <path class="cls-8"
                d="M-34.19,2.14c72,.11,149.88-3.29,219.29,1.94,113.54,8.55,196.42,14.17,314.52,6.21C612.24,2.7,726.57-8.44,840.94-4.82,962.05-1,1077,14.11,1199,10.28,1272.6,8,1341.62-1.61,1414.18-6.08c92-5.94,188.41-1.92,276.36,9.5C1724,7.74,1760.27,13.17,1793.81,9c58.89-7.26,101.61-7.18,161.44-8.18"/>
          <path class="cls-9"
                d="M-34.19,8.56c72.24.12,150.05-3.24,219.64,2,113.08,8.58,195.66,14.16,313.29,6.27,112.32-7.53,226.38-18.56,340.47-15,121.53,3.76,236.92,18.54,359.37,14.7,73.8-2.32,143.09-11.81,215.89-16.25,92.06-5.91,188.61-1.94,276.62,9.51,33.46,4.32,69.66,9.76,103.19,5.64C1853,8.23,1895.69,8.26,1955.14,7.2"/>
          <path class="cls-10"
                d="M-34.19,15c72.44.12,150.23-3.19,220,2.15,112.62,8.62,194.91,14.14,312.07,6.34,112-7.46,225.81-18.4,339.61-15,122,3.69,237.74,18.15,360.63,14.3,74-2.32,143.6-11.72,216.65-16.13,92.15-5.88,188.8-2,276.87,9.51,33.43,4.32,69.59,9.77,103.1,5.67,58.59-7.16,101.22-7.2,160.31-8.31"/>
          <path class="cls-11"
                d="M-34.19,21.4c72.64.13,150.4-3.14,220.33,2.25C298.29,32.3,380.29,37.77,497,30.06c111.73-7.39,225.25-18.24,338.75-14.88,122.39,3.62,238.56,17.75,361.9,13.89,74.28-2.33,144.11-11.64,217.42-16,92.24-5.84,189-2,277.13,9.52,33.41,4.32,69.51,9.78,103,5.7,58.44-7.11,101-7.21,159.74-8.38"/>
          <path class="cls-12"
                d="M-34.19,27.82c72.84.13,150.58-3.09,220.68,2.36,111.69,8.68,193.39,14.11,309.62,6.47C607.54,29.33,720.79,18.57,834,21.85c122.81,3.55,239.38,17.36,363.17,13.49,74.52-2.33,144.62-11.55,218.18-15.91,92.34-5.81,189.18-2,277.38,9.53,33.38,4.32,69.44,9.79,102.93,5.74,58.29-7.07,100.84-7.23,159.17-8.44"/>
          <path class="cls-13"
                d="M-34.19,34.23c73,.14,150.75-3,221,2.46,111.23,8.72,192.63,14.09,308.4,6.54,111.13-7.25,224.12-17.91,337-14.72,123.24,3.48,240.19,17,364.43,13.09,74.77-2.34,145.13-11.46,218.94-15.79a1477.26,1477.26,0,0,1,277.64,9.53c33.35,4.33,69.37,9.81,102.85,5.77,58.14-7,100.64-7.24,158.61-8.51"/>
          <path class="cls-14"
                d="M-34.19,40.65c73.24.14,150.93-3,221.37,2.57C297.95,52,379.06,57.29,494.35,49.83,605.18,42.64,717.9,32.08,830.52,35.19c123.66,3.41,241,16.57,365.7,12.68,75-2.34,145.64-11.37,219.7-15.68a1480.64,1480.64,0,0,1,277.89,9.54c33.33,4.33,69.3,9.82,102.76,5.8,58-7,100.45-7.25,158-8.57"/>
          <path class="cls-15"
                d="M-34.19,47.07c73.44.15,151.1-2.94,221.72,2.68,110.3,8.78,191.12,14.06,305.95,6.67C604,49.3,716.46,38.83,828.78,41.85c124.09,3.34,241.83,16.17,367,12.28,75.25-2.35,146.16-11.29,220.46-15.57a1484,1484,0,0,1,278.15,9.55c33.3,4.33,69.22,9.83,102.68,5.83,57.84-6.92,100.25-7.26,157.48-8.64"/>
          <path class="cls-16"
                d="M-34.19,53.49c73.64.16,151.28-2.9,222.06,2.78,109.84,8.81,190.36,14,304.72,6.73C602.83,56,715,45.58,827,48.52c124.52,3.27,242.65,15.78,368.23,11.87,75.5-2.35,146.68-11,221.22-15.45,92.72-5.48,190-2.06,278.4,9.55,33.27,4.33,69.15,9.84,102.59,5.86,57.69-6.87,100.06-7.27,156.91-8.71"/>
          <path class="cls-17"
                d="M-34.19,59.91c73.83.16,151.45-2.85,222.41,2.89,109.38,8.84,189.61,14,303.5,6.8,109.94-7,221.85-17.27,333.59-14.4,124.94,3.2,243.47,15.38,369.5,11.47,75.74-2.36,147.19-11,222-15.34,92.82-5.44,190.14-2.08,278.66,9.56,33.25,4.33,69.08,9.85,102.51,5.89C1855.5,60,1897.82,59.49,1954.3,58"/>
          <path class="cls-18"
                d="M-34.19,66.32c74,.17,151.62-2.8,222.76,3,108.92,8.87,188.85,14,302.27,6.87,109.65-6.9,221.29-17.11,332.73-14.32,125.37,3.13,244.28,15,370.77,11.06,76-2.36,147.7-10.86,222.75-15.23,92.91-5.4,190.34-2.1,278.91,9.57,33.22,4.33,69,9.86,102.42,5.92,57.39-6.77,99.67-7.29,155.78-8.84"/>
          <path class="cls-19"
                d="M-34.19,72.74c74.23.17,151.8-2.75,223.1,3.1,108.46,8.89,188.09,14,301,6.93,109.35-6.83,220.72-16.95,331.87-14.24,125.79,3.06,245.1,14.59,372,10.66,76.22-2.36,148.21-10.77,223.51-15.11,93-5.37,190.53-2.12,279.17,9.57,33.19,4.33,68.93,9.88,102.34,6,57.24-6.72,99.47-7.31,155.21-8.9"/>
          <path class="cls-20"
                d="M-34.19,79.16c74.43.18,152-2.7,223.45,3.2,108,8.92,187.33,14,299.82,7,109.05-6.76,220.16-16.79,331-14.16,126.22,3,245.92,14.2,373.3,10.25,76.47-2.37,148.72-10.68,224.27-15,93.1-5.33,190.72-2.14,279.42,9.58,33.17,4.34,68.86,9.89,102.25,6,57.09-6.67,99.28-7.32,154.64-9"/>
          <path class="cls-21"
                d="M-34.19,85.58c74.63.18,152.15-2.65,223.79,3.31,107.53,8.95,186.58,14,298.6,7.06C597,89.25,707.79,79.31,818.35,81.86c126.65,2.92,246.74,13.8,374.57,9.85,76.71-2.37,149.23-10.58,225-14.89,93.19-5.29,190.91-2.15,279.68,9.59,33.14,4.34,68.79,9.9,102.17,6,56.94-6.62,99.08-7.33,154.08-9"/>
          <path class="cls-22"
                d="M-34.19,92c74.83.19,152.32-2.61,224.14,3.41,107.07,9,185.82,13.94,297.37,7.13,108.46-6.62,219-16.48,329.29-14,127.07,2.85,247.56,13.4,375.83,9.44,77-2.38,149.75-10.49,225.8-14.77,93.29-5.25,191.1-2.17,279.93,9.59,33.11,4.34,68.72,9.91,102.09,6,56.79-6.57,98.89-7.34,153.51-9.1"/>
          <path class="cls-23"
                d="M-34.19,98.41c75,.2,152.5-2.56,224.49,3.52,106.61,9,185.06,13.93,296.15,7.2C594.61,102.57,704.9,92.81,814.88,95.2c127.5,2.77,248.37,13,377.1,9,77.19-2.38,150.26-10.4,226.56-14.66,93.38-5.21,191.3-2.19,280.19,9.6,33.09,4.34,68.65,9.92,102,6.08,56.64-6.52,98.69-7.35,152.95-9.16"/>
          <path class="cls-24"
                d="M-34.19,104.83c75.23.2,152.67-2.51,224.83,3.62,106.15,9,184.3,13.91,294.92,7.26,107.87-6.49,217.89-16.16,327.57-13.85,127.93,2.7,249.19,12.61,378.37,8.64,77.44-2.39,150.77-10.31,227.32-14.55,93.47-5.17,191.49-2.21,280.44,9.61,33.06,4.34,68.57,9.93,101.92,6.11,56.49-6.48,98.5-7.36,152.38-9.23"/>
          <path class="cls-25"
                d="M-34.19,111.25c75.43.21,152.85-2.46,225.18,3.73,105.68,9,183.55,13.9,293.7,7.33,107.57-6.42,217.33-16,326.72-13.77,128.35,2.63,250,12.22,379.63,8.23,77.68-2.39,151.28-10.22,228.08-14.43,93.57-5.14,191.68-2.23,280.69,9.61,33,4.34,68.5,9.94,101.83,6.14,56.34-6.43,98.31-7.37,151.81-9.29"/>
          <path class="cls-26"
                d="M-34.19,117.67c75.63.21,153-2.42,225.53,3.83,105.22,9.07,182.79,13.88,292.47,7.39C591.08,122.55,700.57,113,809.66,115.2c128.78,2.56,250.83,11.82,380.9,7.83,77.92-2.4,151.79-10.13,228.84-14.32,93.66-5.1,191.87-2.25,280.95,9.62,33,4.35,68.43,10,101.75,6.17,56.19-6.38,98.11-7.39,151.25-9.36"/>
          <path class="cls-27"
                d="M-34.19,124.08c75.83.22,153.19-2.37,225.87,3.94,104.76,9.09,182,13.87,291.25,7.46,107-6.28,216.2-15.7,325-13.61,129.21,2.48,251.65,11.43,382.17,7.42,78.17-2.4,152.31-10,229.6-14.2,93.76-5.06,192.06-2.26,281.2,9.63,33,4.35,68.36,10,101.66,6.2,56-6.33,97.92-7.4,150.68-9.42"/>
          <path class="cls-28"
                d="M-34.19,130.5c76,.23,153.37-2.32,226.22,4,104.3,9.11,181.28,13.85,290,7.53,106.68-6.21,215.63-15.55,324.14-13.53,129.63,2.41,252.46,11,383.43,7,78.41-2.41,152.82-9.94,230.37-14.09,93.85-5,192.26-2.28,281.46,9.63,33,4.35,68.28,10,101.58,6.24,55.89-6.28,97.72-7.41,150.11-9.49"/>
          <path class="cls-29"
                d="M-34.19,136.92c76.23.23,153.54-2.27,226.57,4.15,103.84,9.13,180.52,13.84,288.8,7.59,106.38-6.14,215.07-15.39,323.28-13.45,130.06,2.33,253.28,10.64,384.7,6.61,78.65-2.41,153.33-9.85,231.13-14,93.94-5,192.45-2.3,281.71,9.64,32.93,4.35,68.21,10,101.49,6.27,55.74-6.23,97.53-7.42,149.55-9.55"/>
          <path class="cls-30"
                d="M-34.19,143.34c76.43.24,153.72-2.23,226.91,4.25,103.37,9.15,179.76,13.82,287.58,7.66,106.09-6.07,214.5-15.24,322.42-13.37,130.49,2.26,254.1,10.24,386,6.21,78.89-2.42,153.84-9.76,231.89-13.86,94-4.95,192.64-2.32,282,9.65,32.9,4.35,68.14,10,101.41,6.3,55.59-6.19,97.33-7.43,149-9.62"/>
          <path class="cls-31"
                d="M-34.19,149.76c76.63.24,153.89-2.18,227.26,4.36,102.91,9.17,179,13.81,286.35,7.72,105.79-6,213.94-15.09,321.56-13.29,130.91,2.18,254.92,9.85,387.23,5.8,79.14-2.42,154.35-9.67,232.65-13.75,94.13-4.91,192.83-2.34,282.22,9.65,32.87,4.35,68.07,10,101.32,6.33,55.43-6.14,97.14-7.44,148.42-9.68"/>
          <path class="cls-32"
                d="M-34.19,156.17c76.83.25,154.06-2.13,227.6,4.46,102.45,9.19,178.25,13.79,285.13,7.79,105.49-5.93,213.37-14.94,320.7-13.22,131.34,2.11,255.74,9.45,388.5,5.4,79.38-2.43,154.86-9.58,233.41-13.64,94.22-4.87,193-2.35,282.48,9.66,32.85,4.35,68,10,101.24,6.36,55.28-6.09,96.94-7.45,147.85-9.75"/>
          <path class="cls-33"
                d="M-34.19,162.59c77,.25,154.24-2.09,228,4.57,102,9.21,177.49,13.78,283.9,7.85,105.2-5.85,212.8-14.79,319.84-13.14,131.77,2,256.55,9.06,389.77,5,79.62-2.43,155.38-9.49,234.17-13.52,94.32-4.83,193.22-2.37,282.73,9.67,32.82,4.36,67.92,10,101.15,6.39,55.13-6,96.75-7.47,147.28-9.81"/>
          <path class="cls-34"
                d="M-34.19,169c77.23.26,154.41-2,228.3,4.67,101.53,9.23,176.73,13.76,282.68,7.92,104.9-5.78,212.24-14.64,319-13.06,132.19,2,257.37,8.66,391,4.59,79.87-2.44,155.89-9.39,234.94-13.41,94.41-4.8,193.41-2.39,283,9.67,32.79,4.36,67.85,10,101.07,6.42,55-6,96.55-7.48,146.72-9.88"/>
          <path class="cls-35"
                d="M-34.19,175.43c77.43.27,154.59-2,228.64,4.78,101.06,9.24,176,13.75,281.45,8,104.6-5.71,211.67-14.49,318.12-13,132.62,1.88,258.19,8.27,392.3,4.18,80.11-2.44,156.4-9.3,235.7-13.3,94.5-4.76,193.6-2.41,283.24,9.68,32.77,4.36,67.78,10.06,101,6.45,54.83-5.95,96.36-7.49,146.15-9.95"/>
          <path class="cls-36"
                d="M-34.19,181.85c77.63.27,154.76-1.95,229,4.88C295.4,196,370,200.46,475,194.78c104.31-5.64,211.11-11.38,317.26-12.9,133-1.9,259,7.87,393.57,3.78,80.35-2.45,156.91-9.21,236.46-13.18,94.6-4.72,193.79-2.43,283.5,9.69,32.74,4.36,67.7,10.07,100.9,6.49,54.68-5.9,96.17-7.5,145.58-10"/>
          <path class="cls-37"
                d="M-34.19,188.26c77.82.28,154.94-1.9,229.34,5,100.14,9.28,174.46,13.72,279,8.12,104-5.57,210.55-11.2,316.4-12.82,133.47-2,259.83,7.48,394.83,3.38,80.59-2.45,157.42-9.12,237.22-13.07,94.69-4.68,194-2.44,283.75,9.69,32.71,4.36,67.63,10.08,100.82,6.52,54.53-5.85,96-7.51,145-10.08"/>
          <path class="cls-38"
                d="M-34.19,194.68c78,.28,155.11-1.86,229.68,5.09,99.68,9.29,173.71,13.71,277.78,8.18,103.71-5.5,210-11,315.54-12.74,133.9-2.19,260.64,7.08,396.1,3,80.84-2.46,157.93-9,238-13,94.79-4.65,194.18-2.46,284,9.7,32.69,4.36,67.56,10.09,100.73,6.55,54.38-5.8,95.78-7.52,144.45-10.14"/>
          <path class="cls-39"
                d="M-34.19,201.1c78.22.29,155.28-1.81,230,5.2,99.22,9.31,172.95,13.69,276.55,8.25,103.42-5.43,209.42-10.84,314.68-12.66,134.32-2.33,261.46,6.69,397.37,2.57,81.08-2.46,158.45-8.94,238.75-12.84,94.88-4.61,194.37-2.48,284.26,9.71,32.66,4.36,67.49,10.1,100.65,6.58,54.23-5.76,95.58-7.53,143.89-10.21"/>
          <path class="cls-40"
                d="M-34.19,207.52c78.42.29,155.46-1.77,230.38,5.3,98.76,9.32,172.19,13.68,275.33,8.32s208.86-10.66,313.82-12.58c134.74-2.47,262.28,6.29,398.63,2.16,81.32-2.47,159-8.85,239.51-12.73,95-4.57,194.56-2.5,284.52,9.71,32.63,4.37,67.41,10.11,100.56,6.61,54.08-5.71,95.39-7.55,143.32-10.27"/>
          <path class="cls-41"
                d="M-34.19,213.94c78.62.3,155.63-1.72,230.72,5.41,98.3,9.33,171.44,13.66,274.1,8.38,102.82-5.29,208.3-10.48,313-12.5,135.17-2.61,263.1,5.9,399.9,1.76,81.57-2.47,159.47-8.76,240.27-12.62,95.07-4.54,194.76-2.52,284.77,9.72,32.61,4.37,67.34,10.12,100.48,6.64,53.93-5.66,95.19-7.56,142.75-10.34"/>
          <path class="cls-42"
                d="M-34.19,220.35c78.82.31,155.81-1.67,231.07,5.52,97.83,9.35,170.68,13.65,272.88,8.45,102.53-5.22,207.74-10.31,312.1-12.42,135.59-2.75,263.92,5.5,401.17,1.35,81.81-2.48,160-8.67,241-12.5,95.16-4.5,194.95-2.54,285,9.73,32.58,4.37,67.27,10.13,100.39,6.67,53.78-5.61,95-7.57,142.19-10.4"/>
          <path class="cls-43"
                d="M-34.19,226.77c79,.31,156-1.63,231.41,5.62,97.37,9.36,169.92,13.64,271.65,8.51,102.23-5.15,207.17-10.14,311.25-12.34,136-2.89,264.73,5.1,402.43.95,82.05-2.48,160.49-8.58,241.79-12.39,95.25-4.46,195.14-2.55,285.28,9.73,32.55,4.37,67.2,10.14,100.31,6.7,53.63-5.57,94.8-7.58,141.62-10.47"/>
          <path class="cls-44"
                d="M-34.19,233.19c79.22.32,156.15-1.58,231.76,5.73,96.91,9.37,169.17,13.62,270.43,8.58,101.93-5.08,206.61-10,310.39-12.27,136.44-3,265.55,4.71,403.7.54,82.29-2.49,161-8.49,242.55-12.27,95.35-4.43,195.33-2.57,285.54,9.74,32.52,4.37,67.12,10.15,100.22,6.74,53.48-5.52,94.61-7.59,141.05-10.53"/>
          <path class="cls-45"
                d="M-34.19,239.61c79.42.32,156.33-1.54,232.11,5.83,96.45,9.38,168.41,13.61,269.21,8.65,101.64-5,206-9.79,309.53-12.19,136.86-3.16,266.37,4.31,405,.14,82.54-2.49,161.52-8.4,243.32-12.16,95.44-4.39,195.52-2.59,285.79,9.75,32.5,4.37,67.05,10.16,100.14,6.77,53.33-5.47,94.41-7.6,140.49-10.6"/>
          <path class="cls-46"
                d="M-34.19,246c79.62.33,156.5-1.5,232.45,5.94,96,9.39,167.65,13.6,268,8.71,101.34-4.94,205.49-9.63,308.67-12.11,137.29-3.3,267.19,3.92,406.23-.27,82.78-2.5,162-8.31,244.08-12,95.53-4.36,195.72-2.61,286,9.75,32.47,4.37,67,10.17,100.05,6.8,53.17-5.43,94.22-7.61,139.92-10.66"/>
          <path class="cls-47"
                d="M-34.19,252.44c79.82.33,156.67-1.45,232.8,6,95.53,9.4,166.89,13.58,266.76,8.78,101-4.86,204.92-9.46,307.81-12,137.71-3.44,268,3.52,407.5-.67,83-2.5,162.54-8.22,244.84-11.93,95.63-4.32,195.91-2.63,286.3,9.76,32.44,4.38,66.91,10.18,100,6.83,53-5.38,94-7.63,139.36-10.73"/>
          <path class="cls-48"
                d="M-34.19,258.86c80,.34,156.85-1.41,233.15,6.15,95.07,9.41,166.14,13.57,265.53,8.84,100.75-4.79,204.36-9.29,306.95-11.95,138.13-3.58,268.82,3.13,408.77-1.07,83.26-2.51,163.05-8.13,245.6-11.82,95.72-4.28,196.1-2.64,286.55,9.77,32.42,4.38,66.83,10.2,99.89,6.86,52.87-5.33,93.83-7.64,138.79-10.79"/>
          <path class="cls-49"
                d="M-34.19,265.28c80.22.35,157-1.36,233.49,6.25,94.6,9.42,165.38,13.56,264.31,8.91,100.45-4.72,203.8-9.13,306.09-11.87,138.56-3.71,269.64,2.73,410-1.48,83.51-2.51,163.56-8,246.36-11.71,95.82-4.25,196.29-2.66,286.81,9.77,32.39,4.38,66.76,10.21,99.8,6.89,52.72-5.29,93.64-7.65,138.22-10.86"/>
          <path class="cls-50"
                d="M-34.19,271.7c80.42.35,157.2-1.32,233.84,6.36,94.14,9.43,164.62,13.55,263.08,9,100.15-4.65,203.24-9,305.23-11.79,139-3.85,270.46,2.34,411.3-1.88,83.75-2.52,164.07-7.95,247.12-11.59,95.91-4.21,196.49-2.68,287.06,9.78,32.36,4.38,66.69,10.22,99.72,6.92,52.57-5.24,93.44-7.66,137.66-10.92"/>
          <path class="cls-51"
                d="M-34.19,278.11c80.62.36,157.37-1.27,234.18,6.46,93.68,9.43,163.87,13.53,261.86,9,99.86-4.58,202.68-8.8,304.37-11.71,139.4-4,271.28,1.94,412.57-2.29,84-2.52,164.59-7.86,247.89-11.48,96-4.18,196.68-2.7,287.32,9.79,32.34,4.38,66.62,10.23,99.63,7,52.42-5.19,93.25-7.67,137.09-11"/>
          <path class="cls-52"
                d="M-34.19,284.53c80.82.36,157.54-1.23,234.53,6.57,93.22,9.44,163.11,13.52,260.63,9.11,99.56-4.51,202.11-8.64,303.51-11.63,139.83-4.12,272.1,1.55,413.83-2.69,84.24-2.53,165.1-7.77,248.65-11.37,96.1-4.14,196.87-2.72,287.57,9.79,32.31,4.38,66.54,10.24,99.55,7,52.27-5.15,93.05-7.68,136.52-11.05"/>
          <path class="cls-53"
                d="M-34.19,291c81,.37,157.72-1.19,234.88,6.67,92.76,9.45,162.35,13.51,259.41,9.17,99.27-4.44,201.55-8.48,302.65-11.55,140.25-4.26,272.91,1.15,415.1-3.1,84.48-2.53,165.61-7.68,249.41-11.25,96.19-4.1,197.06-2.73,287.83,9.8,32.28,4.39,66.47,10.25,99.46,7,52.12-5.1,92.86-7.69,136-11.12"/>
          <path class="cls-54"
                d="M-34.19,297.37c81.22.38,157.89-1.14,235.22,6.78,92.3,9.45,161.6,13.5,258.18,9.24,99-4.36,201-8.32,301.79-11.47,140.67-4.39,273.73.76,416.37-3.5,84.72-2.54,166.12-7.59,250.17-11.14,96.28-4.07,197.25-2.75,288.08,9.81,32.26,4.39,66.4,10.26,99.38,7,52-5.06,92.66-7.71,135.39-11.19"/>
          <path class="cls-55"
                d="M-34.19,303.79c81.42.38,158.06-1.1,235.57,6.88,91.84,9.46,160.84,13.49,257,9.3,98.67-4.29,200.43-8.17,300.93-11.39,141.1-4.53,274.55.36,417.63-3.91,85-2.54,166.63-7.5,250.93-11,96.38-4,197.45-2.77,288.34,9.81,32.23,4.39,66.33,10.27,99.29,7.08,51.82-5,92.47-7.72,134.83-11.25"/>
          <path class="cls-56"
                d="M-34.19,310.2c81.61.39,158.24-1.06,235.92,7,91.38,9.46,160.08,13.47,255.73,9.37,98.38-4.22,199.87-8,300.07-11.32,141.52-4.66,275.37,0,418.9-4.31,85.21-2.55,167.14-7.41,251.7-10.91,96.47-4,197.64-2.79,288.59,9.82,32.2,4.39,66.25,10.28,99.21,7.11,51.67-5,92.27-7.73,134.26-11.32"/>
          <path class="cls-57"
                d="M-34.19,316.62c81.81.39,158.41-1,236.26,7.09,90.92,9.47,159.33,13.46,254.51,9.44,98.08-4.15,199.3-7.86,299.21-11.24,141.95-4.8,276.19-.43,420.17-4.72,85.45-2.55,167.66-7.32,252.46-10.8,96.56-4,197.83-2.81,288.85,9.83,32.18,4.39,66.18,10.29,99.12,7.14,51.52-4.92,92.08-7.74,133.69-11.38"/>
          <path class="cls-58"
                d="M-34.19,323c82,.4,158.59-1,236.61,7.2,90.45,9.47,158.57,13.45,253.28,9.5,97.78-4.08,198.74-7.71,298.35-11.16,142.37-4.93,277-.82,421.43-5.12,85.69-2.55,168.17-7.23,253.22-10.69,96.66-3.93,198-2.83,289.1,9.83,32.15,4.39,66.11,10.3,99,7.17,51.36-4.87,91.88-7.75,133.13-11.45"/>
          <path class="cls-59"
                d="M-34.19,329.46c82.21.4,158.76-.93,237,7.3,90,9.48,157.82,13.44,252.06,9.57,97.49-4,198.18-7.55,297.49-11.08,142.79-5.07,277.82-1.22,422.7-5.53,85.94-2.56,168.68-7.14,254-10.57,96.75-3.89,198.22-2.84,289.36,9.84,32.12,4.39,66,10.31,99,7.2,51.21-4.83,91.69-7.76,132.56-11.51"/>
          <path class="cls-60"
                d="M-34.19,335.88c82.41.41,158.93-.89,237.3,7.41,89.53,9.48,157.06,13.43,250.84,9.63,97.19-3.93,197.62-7.4,296.63-11,143.22-5.2,278.64-1.61,424-5.93,86.18-2.56,169.19-7.05,254.74-10.46,96.84-3.86,198.41-2.86,289.61,9.85,32.1,4.4,66,10.32,98.87,7.24,51.06-4.78,91.5-7.77,132-11.58"/>
          <path class="cls-61"
                d="M-34.19,342.29c82.61.42,159.11-.85,237.65,7.51,89.07,9.48,156.3,13.42,249.61,9.7,96.9-3.86,197.06-7.26,295.78-10.92,143.64-5.33,279.46-2,425.23-6.33,86.42-2.57,169.7-7,255.5-10.34,96.94-3.82,198.6-2.88,289.87,9.85,32.07,4.4,65.89,10.33,98.79,7.27,50.91-4.74,91.3-7.79,131.43-11.64"/>
          <path class="cls-62"
                d="M-34.19,348.71c82.81.42,159.28-.8,238,7.62,88.61,9.48,155.55,13.4,248.39,9.77,96.6-3.79,196.49-7.11,294.92-10.84,144.06-5.46,280.28-2.4,426.5-6.74,86.66-2.57,170.21-6.87,256.27-10.23,97-3.79,198.79-2.9,290.12,9.86,32,4.4,65.82,10.34,98.7,7.3,50.76-4.69,91.11-7.8,130.86-11.71"/>
          <path class="cls-63"
                d="M-34.19,355.13c83,.43,159.45-.76,238.34,7.72,88.15,9.48,154.79,13.39,247.16,9.83,96.3-3.71,195.93-7,294.06-10.76,144.49-5.59,281.09-2.8,427.77-7.14,86.91-2.58,170.72-6.78,257-10.12,97.12-3.75,199-2.92,290.38,9.87,32,4.4,65.74,10.35,98.62,7.33,50.61-4.65,90.91-7.81,130.29-11.77"/>
          <path class="cls-64"
                d="M-34.19,361.55c83.21.43,159.63-.72,238.69,7.83,87.69,9.48,154,13.38,245.94,9.9,96-3.64,195.37-6.82,293.2-10.68,144.91-5.73,281.91-3.19,429-7.55,87.15-2.58,171.24-6.69,257.79-10,97.22-3.72,199.18-2.93,290.63,9.87,32,4.4,65.67,10.36,98.53,7.36,50.46-4.6,90.72-7.82,129.73-11.84"/>
          <path class="cls-65"
                d="M-34.19,368c83.41.44,159.8-.68,239,7.93,87.23,9.48,153.28,13.37,244.71,10,95.71-3.57,194.81-6.67,292.34-10.6,145.33-5.86,282.73-3.59,430.3-8,87.39-2.59,171.75-6.61,258.55-9.89,97.31-3.68,199.37-3,290.89,9.88,32,4.4,65.6,10.37,98.45,7.39,50.31-4.56,90.52-7.83,129.16-11.9"/>
          <path class="cls-66"
                d="M-34.19,374.38c83.61.44,160-.64,239.38,8,86.77,9.48,152.52,13.36,243.49,10,95.42-3.5,194.25-6.53,291.48-10.52,145.76-6,283.55-4,431.57-8.36,87.63-2.59,172.26-6.52,259.31-9.78,97.4-3.65,199.56-3,291.14,9.89,31.94,4.4,65.53,10.38,98.36,7.42,50.16-4.51,90.33-7.84,128.6-12"/>
          <path class="cls-67"
                d="M-34.19,380.8c83.81.45,160.15-.6,239.73,8.14C291.84,398.43,357.3,402.3,447.8,399c95.12-3.42,193.69-6.39,290.62-10.44,146.18-6.12,284.37-4.38,432.83-8.76,87.88-2.6,172.77-6.43,260.08-9.66,97.5-3.61,199.75-3,291.4,9.89,31.91,4.41,65.45,10.39,98.28,7.45,50-4.47,90.13-7.85,128-12"/>
          <path class="cls-68"
                d="M-34.19,387.22c84,.46,160.32-.56,240.07,8.25,85.85,9.48,151,13.34,241,10.16,94.82-3.35,193.12-6.25,289.76-10.37,146.6-6.25,285.18-4.78,434.1-9.17,88.12-2.6,173.28-6.34,260.84-9.55,97.59-3.58,199.95-3,291.65,9.9,31.88,4.41,65.38,10.4,98.19,7.49,49.85-4.42,89.94-7.87,127.46-12.1"/>
          <path class="cls-69"
                d="M-34.19,393.64c84.21.46,160.5-.52,240.42,8.35,85.39,9.48,150.25,13.33,239.81,10.23,94.53-3.28,192.56-6.11,288.9-10.29,147-6.38,286-5.17,435.37-9.57,88.36-2.61,173.79-6.25,261.6-9.44,97.69-3.55,200.14-3,291.91,9.91,31.86,4.41,65.31,10.41,98.11,7.52,49.7-4.38,89.74-7.88,126.9-12.16"/>
          <path class="cls-70"
                d="M-34.19,400.06c84.41.47,160.67-.48,240.76,8.46,84.93,9.48,149.49,13.32,238.59,10.29,94.23-3.2,192-6,288-10.21,147.45-6.5,286.82-5.57,436.63-10,88.61-2.61,174.31-6.16,262.36-9.32,97.78-3.51,200.33-3,292.16,9.91,31.83,4.41,65.23,10.42,98,7.55,49.55-4.33,89.55-7.89,126.33-12.23"/>
          <path class="cls-71"
                d="M-34.19,406.47c84.61.47,160.84-.44,241.11,8.57,84.47,9.47,148.74,13.31,237.36,10.36,93.94-3.13,191.44-5.83,287.18-10.13,147.87-6.63,287.64-6,437.9-10.38,88.85-2.62,174.82-6.07,263.12-9.21,97.87-3.48,200.52-3.06,292.42,9.92,31.8,4.41,65.16,10.42,97.94,7.58,49.4-4.29,89.36-7.9,125.76-12.29"/>
          <path class="cls-72"
                d="M-34.19,412.89c84.81.48,161-.4,241.46,8.67,84,9.47,148,13.3,236.14,10.42,93.64-3.06,190.87-5.7,286.32-10,148.3-6.76,288.46-6.36,439.17-10.78,89.09-2.62,175.33-6,263.88-9.1,98-3.44,200.71-3.08,292.67,9.93,31.78,4.41,65.09,10.43,97.86,7.61,49.25-4.24,89.16-7.91,125.2-12.36"/>
          <path class="cls-73"
                d="M-34.19,419.31c85,.48,161.19-.36,241.8,8.78,83.55,9.47,147.23,13.29,234.91,10.49,93.34-3,190.31-5.56,285.46-10,148.72-6.89,289.27-6.75,440.43-11.19,89.33-2.63,175.84-5.9,264.65-9,98.06-3.41,200.91-3.1,292.92,9.93,31.75,4.42,65,10.44,97.77,7.64,49.1-4.2,89-7.92,124.63-12.43"/>
          <path class="cls-74"
                d="M-34.19,425.73c85.21.49,161.37-.32,242.15,8.88,83.08,9.46,146.47,13.28,233.69,10.56,93-2.91,189.75-5.43,284.6-9.89,149.14-7,290.09-7.15,441.7-11.59,89.58-2.63,176.35-5.81,265.41-8.87,98.15-3.37,201.1-3.11,293.18,9.94,31.72,4.42,64.94,10.45,97.69,7.67,48.95-4.15,88.77-7.93,124.07-12.49"/>
          <path class="cls-75"
                d="M-34.19,432.14c85.41.5,161.54-.28,242.5,9,82.62,9.46,145.71,13.27,232.47,10.62,92.75-2.84,189.19-5.3,283.74-9.81,149.57-7.14,290.91-7.54,443-12,89.82-2.64,176.86-5.72,266.17-8.76,98.25-3.34,201.29-3.13,293.43,9.95,31.7,4.42,64.87,10.46,97.6,7.7,48.8-4.11,88.58-7.95,123.5-12.56"/>
          <path class="cls-76"
                d="M-34.19,438.56c85.6.5,161.71-.24,242.84,9.09,82.16,9.45,145,13.27,231.24,10.69,92.46-2.76,188.63-5.17,282.88-9.73,150-7.27,291.73-7.94,444.23-12.4,90.06-2.64,177.37-5.63,266.93-8.64,98.34-3.31,201.48-3.15,293.69,10,31.67,4.42,64.8,10.47,97.52,7.74,48.65-4.07,88.38-8,122.93-12.62"/>
          <path class="cls-77"
                d="M-34.19,445c85.8.51,161.89-.2,243.19,9.2,81.7,9.45,144.2,13.26,230,10.75,92.16-2.69,188.06-5,282-9.65,150.41-7.39,292.55-8.33,445.5-12.81,90.31-2.65,177.89-5.54,267.69-8.53,98.43-3.27,201.67-3.17,293.94,10,31.64,4.42,64.73,10.48,97.43,7.77,48.49-4,88.19-8,122.37-12.69"/>
          <path class="cls-78"
                d="M-34.19,451.4c86,.51,162.06-.17,243.54,9.3,81.24,9.44,143.44,13.25,228.79,10.82,91.87-2.61,187.5-4.91,281.17-9.57,150.84-7.52,293.36-8.73,446.77-13.21,90.55-2.65,178.4-5.45,268.45-8.41,98.53-3.24,201.87-3.19,294.2,10,31.62,4.42,64.65,10.49,97.35,7.8,48.34-4,88-8,121.8-12.75"/>
          <path class="cls-79"
                d="M-34.19,457.82c86.2.52,162.24-.13,243.88,9.41,80.78,9.43,142.69,13.24,227.57,10.89,91.57-2.54,186.94-4.78,280.31-9.49,151.26-7.64,294.18-9.12,448-13.62,90.79-2.66,178.91-5.37,269.22-8.3,98.62-3.21,202.06-3.21,294.45,10,31.59,4.42,64.58,10.5,97.26,7.83,48.19-3.93,87.8-8,121.23-12.82"/>
          <path class="cls-80"
                d="M-34.19,464.23c86.4.53,162.41-.09,244.23,9.51,80.32,9.43,141.93,13.23,226.34,11,91.27-2.46,186.38-4.65,279.45-9.42,151.68-7.77,295-9.52,449.3-14,91-2.66,179.42-5.28,270-8.19,98.71-3.17,202.25-3.22,294.71,10,31.56,4.43,64.51,10.51,97.18,7.86,48-3.89,87.6-8,120.67-12.88"/>
          <path class="cls-81"
                d="M-34.19,470.65c86.6.53,162.58-.05,244.57,9.62,79.86,9.42,141.18,13.22,225.12,11,91-2.39,185.81-4.52,278.59-9.34,152.11-7.89,295.82-9.91,450.57-14.43,91.28-2.67,179.93-5.19,270.74-8.07,98.81-3.14,202.44-3.24,295,10,31.54,4.43,64.43,10.52,97.09,7.89,47.89-3.85,87.41-8,120.1-12.95"/>
          <path class="cls-82"
                d="M-34.19,477.07c86.8.54,162.76,0,244.92,9.72,79.4,9.41,140.42,13.21,223.89,11.08,90.68-2.32,185.25-4.4,277.73-9.26,152.53-8,296.64-10.31,451.83-14.83,91.52-2.67,180.44-5.1,271.5-8,98.9-3.1,202.64-3.26,295.22,10,31.51,4.43,64.36,10.53,97,7.92,47.74-3.8,87.22-8,119.54-13"/>
          <path class="cls-83"
                d="M-34.19,483.49c87,.54,162.93,0,245.27,9.83,78.94,9.4,139.66,13.21,222.67,11.15,90.39-2.24,184.69-4.28,276.87-9.18,153-8.13,297.45-10.7,453.1-15.23,91.76-2.68,181-5,272.26-7.85,99-3.07,202.83-3.28,295.47,10,31.48,4.43,64.29,10.53,96.92,8,47.59-3.76,87-8,119-13.08"/>
          <path class="cls-84"
                d="M-34.19,489.91c87.2.55,163.1.06,245.61,9.93,78.48,9.39,138.91,13.2,221.44,11.22,90.09-2.17,184.13-4.15,276-9.1,153.38-8.26,298.27-11.1,454.37-15.64,92-2.68,181.47-4.93,273-7.73,99.09-3,203-3.3,295.73,10,31.45,4.43,64.22,10.54,96.84,8,47.44-3.72,86.83-8,118.4-13.14"/>
          <path class="cls-85"
                d="M-34.19,496.32c87.4.55,163.28.09,246,10,78,9.38,138.15,13.19,220.22,11.28,89.8-2.09,183.56-4,275.15-9,153.8-8.38,299.09-11.49,455.63-16,92.25-2.69,182-4.84,273.79-7.62,99.18-3,203.21-3.31,296,10,31.43,4.43,64.14,10.55,96.76,8q70.93-5.51,117.84-13.21"/>
          <path class="cls-86"
                d="M-34.19,502.74c87.6.56,163.45.13,246.31,10.14,77.56,9.37,137.4,13.18,219,11.35,89.5-2,183-3.91,274.29-8.94,154.23-8.5,299.91-11.89,456.9-16.45,92.49-2.69,182.49-4.75,274.55-7.51,99.27-3,203.4-3.33,296.24,10,31.4,4.43,64.07,10.56,96.67,8,47.13-3.63,86.44-8.07,117.27-13.27"/>
          <path class="cls-87"
                d="M-34.19,509.16c87.8.57,163.63.16,246.65,10.25,77.1,9.36,136.64,13.18,217.77,11.41,89.21-1.94,182.44-3.79,273.43-8.86,154.65-8.62,300.73-12.28,458.17-16.85,92.73-2.7,183-4.66,275.31-7.39,99.37-2.94,203.6-3.35,296.49,10,31.37,4.44,64,10.57,96.59,8.08,47-3.59,86.24-8.08,116.7-13.34"/>
          <path class="cls-88"
                d="M-34.19,515.58c88,.57,163.8.2,247,10.35,76.64,9.35,135.88,13.17,216.54,11.48,88.91-1.86,181.88-3.67,272.57-8.78,155.07-8.74,301.54-12.68,459.43-17.26,93-2.7,183.51-4.58,276.07-7.28,99.46-2.9,203.79-3.37,296.75,10,31.35,4.44,63.92,10.58,96.5,8.11,46.83-3.55,86-8.09,116.14-13.4"/>
          <path class="cls-89"
                d="M-34.19,522c88.2.58,164,.24,247.34,10.46,76.18,9.34,135.13,13.16,215.32,11.54,88.61-1.79,181.31-3.55,271.71-8.7,155.5-8.86,302.36-13.08,460.7-17.66,93.22-2.71,184-4.49,276.83-7.17,99.55-2.87,204-3.39,297,10,31.32,4.44,63.85,10.59,96.42,8.14,46.68-3.5,85.85-8.11,115.57-13.47"/>
          <path class="cls-90"
                d="M-34.19,528.41C54.21,529,130,528.68,213.5,539c75.73,9.33,134.37,13.16,214.1,11.61,88.32-1.71,180.75-3.44,270.85-8.62,155.92-9,303.18-13.47,462-18.07,93.46-2.71,184.54-4.4,277.6-7.05,99.65-2.84,204.17-3.4,297.26,10,31.29,4.44,63.78,10.59,96.33,8.17,46.53-3.46,85.66-8.12,115-13.53"/>
          <path class="cls-91"
                d="M-34.19,534.83c88.6.59,164.32.3,248,10.67,75.27,9.32,133.62,13.15,212.87,11.68,88-1.64,180.19-3.32,270-8.54,156.34-9.1,304-13.87,463.23-18.47,93.7-2.72,185-4.31,278.36-6.94,99.74-2.81,204.37-3.42,297.51,10.06,31.27,4.44,63.71,10.6,96.25,8.2,46.38-3.42,85.46-8.13,114.44-13.6"/>
          <path class="cls-92"
                d="M-34.19,541.25c88.8.59,164.5.34,248.38,10.77,74.81,9.31,132.86,13.14,211.65,11.74,87.73-1.56,179.49-6.7,269.13-8.47,157-3.09,304.82-14.26,464.5-18.88,93.95-2.72,185.56-4.23,279.12-6.83,99.84-2.77,204.56-3.44,297.77,10.06,31.24,4.44,63.63,10.61,96.16,8.24,46.23-3.38,85.27-8.14,113.87-13.67"/>
          <path class="cls-93"
                d="M-34.19,547.67c89,.6,164.67.37,248.73,10.88,74.35,9.29,132.1,13.14,210.42,11.81,87.43-1.48,178.92-6.57,268.27-8.39,157.44-3.19,305.63-14.66,465.77-19.28,94.19-2.73,186.07-4.14,279.88-6.71,99.93-2.74,204.75-3.46,298,10.07,31.21,4.45,63.56,10.62,96.08,8.27,46.07-3.33,85.07-8.15,113.31-13.73"/>
          <path class="cls-94"
                d="M-34.19,554.08c89.2.61,164.84.41,249.08,11,73.89,9.28,131.35,13.13,209.2,11.87,87.14-1.41,178.36-6.45,267.41-8.31,157.86-3.3,306.45-15.05,467-19.69,94.43-2.73,186.58-4.05,280.64-6.6,100-2.71,204.94-3.48,298.28,10.08,31.19,4.45,63.49,10.63,96,8.3,45.92-3.29,84.88-8.16,112.74-13.8"/>
          <path class="cls-95"
                d="M-34.19,560.5c89.4.61,165,.44,249.42,11.09,73.43,9.27,130.59,13.13,208,11.94C510,582.2,601,577.21,689.76,575.3c158.29-3.4,307.27-15.45,468.3-20.09,94.68-2.74,187.09-4,281.4-6.48,100.12-2.67,205.13-3.5,298.53,10.08,31.16,4.45,63.41,10.64,95.91,8.33,45.77-3.25,84.69-8.17,112.17-13.86"/>
          <path class="cls-96"
                d="M-34.19,566.92c89.59.62,165.19.47,249.77,11.19,73,9.25,129.84,13.12,206.75,12,86.55-1.25,177.23-6.2,265.7-8.15,158.72-3.5,308.09-15.84,469.57-20.49,94.92-2.74,187.61-3.88,282.17-6.37,100.21-2.64,205.33-3.51,298.78,10.09,31.13,4.45,63.34,10.64,95.82,8.36,45.62-3.21,84.49-8.19,111.61-13.93"/>
          <path class="cls-97"
                d="M-34.19,573.34c89.79.62,165.37.5,250.12,11.3,72.51,9.24,129.08,11,205.52,12.07,86.25,1.21,176.67-6.07,264.84-8.07,159.15-3.6,308.91-16.24,470.83-20.9,95.16-2.74,188.12-3.79,282.93-6.26,100.3-2.61,205.52-3.53,299,10.1,31.11,4.45,63.27,10.65,95.74,8.39,45.47-3.16,84.3-8.2,111-14"/>
          <path class="cls-98"
                d="M-34.19,579.76c90,.63,165.54.53,250.46,11.41,72,9.22,128.33,11,204.3,12.14,86,1.3,176.1-5.95,264-8,159.58-3.71,309.72-16.63,472.1-21.3,95.4-2.75,188.63-3.7,283.69-6.14,100.4-2.58,205.71-3.55,299.29,10.1,31.08,4.45,63.19,10.66,95.66,8.42,45.32-3.12,84.1-8.21,110.48-14.06"/>
          <path class="cls-99"
                d="M-34.19,586.17c90.19.63,165.72.57,250.81,11.51,71.59,9.21,127.57,11,203.07,12.2,85.65,1.39,175.54-5.83,263.12-7.91,160-3.81,310.54-17,473.37-21.71,95.65-2.75,189.14-3.62,284.45-6,100.49-2.54,205.9-3.57,299.55,10.11,31.05,4.45,63.12,10.67,95.57,8.45,45.17-3.08,83.91-8.22,109.91-14.12"/>
          <path class="cls-100"
                d="M-34.19,592.59c90.39.64,165.89.6,251.15,11.62,71.13,9.19,126.82,11,201.85,12.27,85.36,1.48,175-5.7,262.26-7.83,160.43-3.92,311.36-17.42,474.63-22.11,95.89-2.76,189.65-3.53,285.21-5.92,100.58-2.51,206.1-3.59,299.8,10.12,31,4.46,63,10.68,95.49,8.49,45-3,83.71-8.23,109.34-14.19"/>
          <path class="cls-101"
                d="M-34.19,599c90.59.65,166.07.63,251.5,11.72,70.67,9.18,126.07,11,200.62,12.34,85.06,1.56,174.41-5.58,261.4-7.75,160.86-4,312.18-17.82,475.9-22.52,96.13-2.76,190.16-3.44,286-5.8,100.68-2.48,206.29-3.6,300.06,10.12,31,4.46,63,10.68,95.4,8.52,44.86-3,83.52-8.24,108.78-14.25"/>
          <path class="cls-102"
                d="M-34.19,605.43c90.79.65,166.24.66,251.85,11.83,70.21,9.16,125.31,11,199.4,12.4,84.76,1.65,173.84-5.46,260.54-7.67,161.29-4.13,313-18.21,477.17-22.92,96.37-2.77,190.67-3.36,286.74-5.69,100.77-2.45,206.48-3.62,300.31,10.13,31,4.46,62.9,10.69,95.32,8.55,44.71-3,83.32-8.25,108.21-14.32"/>
          <path class="cls-103"
                d="M-34.19,611.85c91,.66,166.41.69,252.19,11.93,69.75,9.14,124.56,11,198.17,12.47,84.46,1.74,173.28-5.33,259.68-7.59,161.72-4.23,313.81-18.61,478.43-23.33,96.62-2.77,191.19-3.27,287.5-5.58,100.86-2.42,206.67-3.64,300.57,10.14,30.95,4.46,62.83,10.7,95.23,8.58,44.56-2.91,83.13-8.27,107.64-14.38"/>
          <path class="cls-104"
                d="M-34.19,618.26c91.19.66,166.59.72,252.54,12,69.29,9.12,123.81,10.95,196.95,12.53,84.17,1.83,172.71-5.21,258.82-7.52,162.14-4.34,314.63-19,479.7-23.73,96.86-2.78,191.7-3.18,288.26-5.46,101-2.38,206.86-3.66,300.82,10.14,30.92,4.46,62.76,10.71,95.15,8.61,44.41-2.87,82.93-8.28,107.08-14.45"/>
          <path class="cls-105"
                d="M-34.19,624.68c91.39.67,166.76.75,252.89,12.14,68.84,9.11,123.05,10.94,195.72,12.6,83.87,1.91,172.15-5.09,258-7.44,162.57-4.45,315.45-19.4,481-24.14,97.1-2.78,192.21-3.1,289-5.35,101-2.35,207.06-3.68,301.08,10.15,30.89,4.46,62.68,10.71,95.06,8.64,44.26-2.83,82.74-8.29,106.51-14.51"/>
          <path class="cls-106"
                d="M-34.19,631.1c91.59.68,166.94.78,253.23,12.25,68.38,9.09,122.3,10.94,194.5,12.66,83.57,2,171.58-5,257.1-7.36,163-4.56,316.27-19.79,482.23-24.54,97.35-2.79,192.72-3,289.78-5.24,101.14-2.32,207.25-3.69,301.33,10.16,30.87,4.46,62.61,10.72,95,8.67,44.11-2.79,82.55-8.3,105.95-14.58"/>
          <path class="cls-107"
                d="M-34.19,637.52c91.79.68,167.11.8,253.58,12.35,67.92,9.07,121.55,10.93,193.28,12.73,83.27,2.09,171-4.84,256.24-7.28,163.43-4.67,317.09-20.19,483.5-24.94,97.59-2.79,193.23-2.92,290.55-5.12,101.24-2.29,207.44-3.71,301.59,10.16,30.84,4.47,62.54,10.73,94.89,8.7,44-2.75,82.35-8.31,105.38-14.64"/>
          <path class="cls-108"
                d="M-34.19,643.94c92,.69,167.29.83,253.93,12.46,67.46,9.05,120.79,10.93,192.05,12.8,83,2.17,170.45-4.72,255.38-7.2,163.85-4.78,317.9-20.58,484.77-25.35,97.83-2.8,193.74-2.84,291.31-5,101.33-2.26,207.63-3.73,301.84,10.17,30.81,4.47,62.47,10.74,94.81,8.74,43.8-2.71,82.16-8.32,104.81-14.71"/>
          <path class="cls-109"
                d="M-34.19,650.35c92.19.69,167.46.86,254.27,12.56,67,9,120,10.93,190.83,12.86,82.68,2.26,169.89-4.6,254.52-7.12,164.28-4.89,318.72-21,486-25.75,98.07-2.8,194.26-2.75,292.07-4.9,101.42-2.22,207.83-3.75,302.1,10.18,30.79,4.47,62.39,10.74,94.72,8.77,43.65-2.67,82-8.33,104.25-14.77"/>
          <path class="cls-110"
                d="M-34.19,656.77c92.39.7,167.64.89,254.62,12.67,66.54,9,119.29,10.93,189.6,12.93,82.38,2.34,169.33-4.48,253.66-7,164.71-5,319.54-21.38,487.3-26.16,98.32-2.81,194.77-2.67,292.83-4.78,101.52-2.19,208-3.77,302.35,10.18,30.76,4.47,62.32,10.75,94.64,8.8,43.5-2.63,81.77-8.35,103.68-14.84"/>
          <path class="cls-111"
                d="M-34.19,663.19c92.59.7,167.81.91,255,12.77,66.08,9,118.53,10.93,188.38,13,82.08,2.43,168.76-4.36,252.8-7,165.14-5.11,320.36-21.77,488.57-26.56,98.56-2.81,195.28-2.58,293.59-4.67,101.61-2.16,208.21-3.79,302.61,10.19,30.73,4.47,62.25,10.76,94.56,8.83,43.35-2.59,81.57-8.36,103.11-14.91"/>
          <path class="cls-112"
                d="M-34.19,669.61c92.79.71,168,.94,255.31,12.88,65.62,9,117.78,10.93,187.15,13.06,81.78,2.51,168.2-4.24,251.94-6.88,165.57-5.22,321.18-22.17,489.83-27,98.8-2.82,195.79-2.49,294.35-4.55,101.7-2.13,208.4-3.8,302.86,10.2,30.71,4.47,62.17,10.76,94.47,8.86,43.2-2.55,81.38-8.37,102.55-15"/>
          <path class="cls-113"
                d="M-34.19,676c93,.72,168.16,1,255.66,13,65.17,9,117,10.93,185.93,13.13,81.49,2.6,167.63-4.12,251.08-6.8,166-5.34,322-22.56,491.1-27.37,99-2.82,196.3-2.41,295.12-4.44,101.8-2.1,208.59-3.82,303.12,10.2,30.68,4.48,62.1,10.77,94.39,8.89,43-2.5,81.18-8.38,102-15"/>
          <path class="cls-114"
                d="M-34.19,682.44c93.19.72,168.34,1,256,13.09,64.71,8.93,116.27,10.93,184.7,13.19,81.19,2.68,167.07-4,250.23-6.72,166.42-5.45,322.81-23,492.37-27.78,99.29-2.83,196.81-2.32,295.88-4.33,101.89-2.06,208.79-3.84,303.37,10.21,30.65,4.48,62,10.78,94.3,8.92,42.89-2.46,81-8.39,101.42-15.1"/>
          <path class="cls-115"
                d="M-34.19,688.86c93.39.73,168.51,1,256.35,13.19C286.41,711,337.68,713,405.64,715.31c80.89,2.77,166.5-3.88,249.37-6.64,166.85-5.56,323.63-23.35,493.63-28.18,99.53-2.83,197.32-2.23,296.64-4.21,102-2,209-3.86,303.63,10.22,30.63,4.48,62,10.78,94.22,9,42.74-2.42,80.79-8.4,100.85-15.17"/>
          <path class="cls-116"
                d="M-34.19,695.28c93.58.73,168.69,1,256.7,13.3,63.79,8.89,114.77,10.94,182.25,13.32,80.59,2.85,165.94-3.76,248.51-6.57,167.28-5.68,324.45-23.75,494.9-28.59,99.77-2.84,197.84-2.15,297.4-4.1,102.08-2,209.17-3.88,303.88,10.22,30.6,4.48,61.88,10.79,94.13,9,42.59-2.38,80.6-8.41,100.28-15.23"/>
          <path class="cls-117"
                d="M-34.19,701.7c93.78.74,168.86,1.06,257,13.4,63.33,8.86,114,10.94,181,13.39,80.3,2.94,165.37-3.64,247.65-6.49,167.7-5.8,325.27-24.14,496.17-29,100-2.84,198.35-2.06,298.16-4,102.17-2,209.36-3.89,304.14,10.23,30.57,4.48,61.81,10.8,94,9,42.44-2.34,80.41-8.42,99.72-15.3"/>
          <path class="cls-118"
                d="M-34.19,708.11c94,.74,169,1.08,257.39,13.51,62.87,8.84,113.26,10.94,179.8,13.46,80,3,164.81-3.52,246.79-6.41,168.13-5.91,326.08-24.54,497.43-29.4,100.26-2.85,198.86-2,298.93-3.87,102.26-1.94,209.55-3.91,304.39,10.24,30.55,4.48,61.74,10.8,94,9,42.29-2.3,80.21-8.44,99.15-15.36"/>
          <path class="cls-119"
                d="M-34.19,714.53c94.18.75,169.21,1.11,257.73,13.61C286,737,336,739.09,402.12,741.67c79.7,3.1,164.24-3.41,245.93-6.33,168.56-6,326.9-24.93,498.7-29.8,100.5-2.85,199.37-1.89,299.69-3.76,102.36-1.91,209.75-3.93,304.65,10.24,30.52,4.48,61.66,10.81,93.88,9.08,42.14-2.26,80-8.45,98.58-15.43"/>
          <path class="cls-120"
                d="M-34.19,721c94.38.76,169.39,1.13,258.08,13.72,62,8.79,111.75,11,177.35,13.59,79.4,3.19,163.68-3.29,245.07-6.25,169-6.15,327.72-25.33,500-30.2,100.74-2.86,199.88-1.81,300.45-3.65,102.45-1.88,209.94-3.95,304.9,10.25,30.49,4.49,61.59,10.82,93.79,9.11,42-2.22,79.82-8.46,98-15.49"/>
          <path class="cls-121"
                d="M-34.19,727.37c94.58.76,169.57,1.15,258.43,13.82,61.5,8.77,111,11,176.13,13.65,79.1,3.27,163.11-3.17,244.21-6.17C814,742.41,973.11,723,1145.81,718.07c101-2.86,200.39-1.72,301.21-3.53,102.55-1.84,210.13-4,305.15,10.26,30.47,4.49,61.52,10.82,93.71,9.14,41.83-2.18,79.63-8.47,97.45-15.56"/>
          <path class="cls-122"
                d="M-34.19,733.79c94.78.77,169.74,1.17,258.77,13.93,61,8.75,110.25,11,174.91,13.72,78.81,3.35,162.55-3.05,243.35-6.09,169.84-6.39,329.36-26.12,502.5-31,101.23-2.87,200.9-1.63,302-3.42,102.64-1.81,210.32-4,305.41,10.26,30.44,4.49,61.44,10.83,93.62,9.17,41.68-2.14,79.43-8.48,96.89-15.62"/>
          <path class="cls-123"
                d="M-34.19,740.2c95,.77,169.92,1.19,259.12,14,60.58,8.72,109.49,11,173.68,13.78,78.51,3.43,162-2.94,242.49-6,170.27-6.51,330.17-26.51,503.77-31.42,101.47-2.87,201.42-1.55,302.73-3.31,102.73-1.78,210.52-4,305.66,10.27,30.41,4.49,61.37,10.84,93.54,9.2,41.53-2.11,79.24-8.49,96.32-15.69"/>
          <path class="cls-124"
                d="M-34.19,746.62c95.18.78,170.09,1.21,259.47,14.14,60.12,8.7,108.74,11,172.46,13.85,78.21,3.52,161.42-2.82,241.63-5.93,170.69-6.63,331-26.91,505-31.82,101.72-2.88,201.93-1.46,303.5-3.19,102.83-1.75,210.71-4,305.92,10.28,30.38,4.49,61.3,10.84,93.46,9.24,41.38-2.07,79-8.5,95.75-15.75"/>
          <path class="cls-125"
                d="M-34.19,753c95.38.78,170.27,1.23,259.81,14.24,59.67,8.67,108,11,171.23,13.92,77.91,3.6,160.85-2.7,240.77-5.85,171.12-6.75,331.81-27.3,506.3-32.23,102-2.88,202.44-1.38,304.26-3.08,102.92-1.72,210.9-4,306.17,10.28,30.36,4.49,61.22,10.85,93.37,9.27,41.23-2,78.85-8.52,95.19-15.82"/>
          <path class="cls-126"
                d="M-34.19,759.46c95.58.79,170.45,1.25,260.16,14.35,59.21,8.65,107.23,11,170,14,77.61,3.68,160.29-2.58,239.91-5.77,171.55-6.87,332.63-27.7,507.57-32.63,102.2-2.89,203-1.29,305-3,103-1.69,211.09-4.06,306.43,10.29,30.33,4.49,61.15,10.85,93.29,9.3,41.08-2,78.65-8.53,94.62-15.88"/>
          <path class="cls-127"
                d="M-34.19,765.88c95.78.8,170.62,1.26,260.51,14.46,58.75,8.62,106.48,11,168.78,14,77.32,3.76,159.72-2.47,239.05-5.69,172-7,333.45-28.09,508.83-33,102.44-2.89,203.46-1.21,305.78-2.85,103.11-1.66,211.28-4.07,306.68,10.3,30.3,4.5,61.08,10.86,93.2,9.33,40.93-1.95,78.46-8.54,94.05-15.95"/>
          <path class="cls-128"
                d="M-34.19,772.29c96,.8,170.8,1.28,260.85,14.56C285,795.45,332.32,799.92,394.22,801c77.1,1.31,159.16-2.35,238.19-5.62,172.4-7.12,334.26-28.49,510.1-33.44,102.69-2.9,204-1.12,306.54-2.74,103.2-1.63,211.48-4.09,306.94,10.3,30.28,4.5,61,10.87,93.12,9.36,40.77-1.91,78.26-8.55,93.49-16"/>
        </g>
      </g>
    </g>
  </g>
</svg>
