<svg xmlns="http://www.w3.org/2000/svg" width="9.758" height="11.167" viewBox="0 0 9.758 11.167">
  <g id="H3bIZz.tif" transform="translate(-1238.452 -209.133)">
    <g id="Group_1078" data-name="Group 1078">
      <g id="Group_1077" data-name="Group 1077">
        <path id="Path_2515" data-name="Path 2515"
              d="M1240.254,210.545c0-.378,0-.736,0-1.1a.319.319,0,0,1,.62-.1.649.649,0,0,1,.021.182c0,.284,0,.569,0,.854v.153h4.6c0-.039.006-.08.006-.122,0-.311,0-.622,0-.933a.312.312,0,0,1,.313-.345.319.319,0,0,1,.327.348c0,.3,0,.6,0,.906v.157h1.68a.329.329,0,0,1,.379.376q0,4.494,0,8.988c0,.271-.123.39-.4.39h-8.975a.338.338,0,0,1-.385-.387q0-4.488,0-8.975c0-.277.115-.392.39-.392h1.411Zm5.252.648h-4.584a1.614,1.614,0,0,1-.08.318.28.28,0,0,1-.286.149c-.188-.007-.253-.1-.318-.462h-1.131v8.445h8.453V211.2h-1.383c-.045.356-.132.47-.348.465S1245.539,211.534,1245.506,211.193Z"
              fill="#cc202e"/>
        <path id="Path_2516" data-name="Path 2516"
              d="M1241.032,214.137a.632.632,0,0,1-.608-.578.622.622,0,0,1,.592-.59.612.612,0,0,1,.6.548A.625.625,0,0,1,1241.032,214.137Z"
              fill="#cc202e"/>
        <path id="Path_2517" data-name="Path 2517"
              d="M1241.041,218.371a.585.585,0,0,1-.585-.561.573.573,0,0,1,.584-.583.567.567,0,0,1,.571.57A.576.576,0,0,1,1241.041,218.371Z"
              fill="#cc202e"/>
        <path id="Path_2518" data-name="Path 2518"
              d="M1241.611,215.663a.578.578,0,1,1-1.155.026.578.578,0,0,1,1.155-.026Z" fill="#cc202e"/>
        <path id="Path_2519" data-name="Path 2519"
              d="M1243.341,214.137a.631.631,0,0,1-.608-.578.621.621,0,0,1,.592-.59.612.612,0,0,1,.6.548A.625.625,0,0,1,1243.341,214.137Z"
              fill="#cc202e"/>
        <path id="Path_2520" data-name="Path 2520" d="M1243.35,218.371a.585.585,0,0,1-.585-.561.578.578,0,1,1,.585.561Z"
              fill="#cc202e"/>
        <path id="Path_2521" data-name="Path 2521"
              d="M1243.92,215.663a.578.578,0,1,1-1.155.026.578.578,0,0,1,1.155-.026Z" fill="#cc202e"/>
        <path id="Path_2522" data-name="Path 2522"
              d="M1245.65,214.137a.631.631,0,0,1-.608-.578.62.62,0,0,1,.591-.59.611.611,0,0,1,.6.548A.624.624,0,0,1,1245.65,214.137Z"
              fill="#cc202e"/>
        <path id="Path_2523" data-name="Path 2523"
              d="M1246.229,215.663a.578.578,0,1,1-1.155.026.578.578,0,0,1,1.155-.026Z" fill="#cc202e"/>
      </g>
    </g>
  </g>
</svg>
