<?xml version="1.0" encoding="UTF-8"?>
<svg width="1200pt" height="1200pt" version="1.1" viewBox="0 0 1200 1200" xmlns="http://www.w3.org/2000/svg">
  <g fill="#EDD088">
    <path
      d="m600 192c-224.4 0-408 183.6-408 408 0 139.2 69.602 262.8 176.4 336h-201.6c-20.398 0-36 15.602-36 36s15.602 36 36 36h446.4 4.8008c216-9.6016 390-188.4 390-408 0-224.4-183.6-408-408-408zm0 744c-184.8 0-336-151.2-336-336s151.2-336 336-336 336 151.2 336 336-151.2 336-336 336z"/>
    <path
      d="m537.6 600c0 33.602 27.602 62.398 62.398 62.398 34.801 0 62.398-27.602 62.398-62.398 0-34.801-27.602-62.398-62.398-62.398-34.801 0-62.398 28.797-62.398 62.398zm72 0c0 6-4.8008 9.6016-9.6016 9.6016s-9.6016-4.8008-9.6016-9.6016 4.8008-9.6016 9.6016-9.6016 9.6016 3.6016 9.6016 9.6016z"/>
    <path
      d="m600 511.2c56.398 0 103.2-45.602 103.2-103.2 0-57.602-45.602-103.2-103.2-103.2-57.602 0-103.2 45.602-103.2 103.2 0 57.602 45.598 103.2 103.2 103.2zm0-133.2c16.801 0 31.199 14.398 31.199 31.199s-14.398 31.199-31.199 31.199-31.199-14.398-31.199-31.199 14.398-31.199 31.199-31.199z"/>
    <path
      d="m790.8 496.8c-56.398 0-103.2 45.602-103.2 103.2 0 56.398 45.602 103.2 103.2 103.2 27.602 0 52.801-10.801 72-30s30-45.602 30-73.199c1.1992-56.398-44.402-103.2-102-103.2zm31.199 103.2c0 8.3984-3.6016 15.602-9.6016 21.602s-13.199 8.3984-21.602 8.3984c-8.3984 0-15.602-3.6016-21.602-9.6016s-8.3984-13.199-8.3984-21.602c0-8.3984 3.6016-15.602 9.6016-21.602s13.199-8.3984 21.602-8.3984c8.3984 0 15.602 3.6016 21.602 9.6016 4.7969 6 8.3984 13.203 8.3984 21.602z"/>
    <path
      d="m600 688.8c-56.398 0-103.2 45.602-103.2 102 0 56.398 45.602 103.2 102 103.2 27.602 0 52.801-10.801 72-30s30-45.602 30-72c0-27.602-10.801-52.801-30-73.199-18-19.199-43.199-30-70.801-30zm21.602 124.8c-6 6-13.199 8.3984-21.602 8.3984-16.801 0-31.199-14.398-31.199-31.199s14.398-31.199 31.199-31.199c8.3984 0 15.602 3.6016 21.602 9.6016s8.3984 13.199 8.3984 21.602c0 8.3945-2.3984 16.797-8.3984 22.797z"/>
    <path
      d="m482.4 526.8c-19.199-19.199-45.602-30-72-30h-1.1992c-27.602 0-52.801 10.801-72 30s-30 45.602-30 72c0 26.398 10.801 52.801 30 73.199 19.199 19.199 45.602 30 72 30h1.1992c27.602 0 52.801-10.801 72-30 19.199-19.199 30-45.602 30-72-1.1992-27.602-10.797-54-30-73.199zm-51.598 94.801c-6 6-13.199 9.6016-21.602 8.3984-8.3984 0-15.602-3.6016-21.602-9.6016s-8.3984-13.199-8.3984-21.602c0-8.3984 3.6016-15.602 9.6016-21.602s13.199-8.3984 21.602-8.3984c8.3984 0 15.602 3.6016 21.602 9.6016s8.3984 13.199 8.3984 21.602c-1.2031 7.1992-3.6016 15.602-9.6016 21.602z"/>
  </g>
</svg>
