<svg xmlns="http://www.w3.org/2000/svg" viewBox="0 0 18.79 18.79">
  <defs>
    <style>.cls-1{stroke:#666;stroke-linecap:round;stroke-miterlimit:10;}</style>
  </defs>
  <title>show ticketsAsset 3</title>
  <g id="Layer_2" data-name="Layer 2">
    <g id="Layer_1-2" data-name="Layer 1">
      <path class="cls-1"
            d="M7.08,18.29H7c-.56-.57-1.12-1.14-1.69-1.7A.41.41,0,0,1,5.2,16a1.79,1.79,0,0,0-1.36-2.56,6.84,6.84,0,0,0-1.57.16L.5,11.8s0-.06,0-.09a4.46,4.46,0,0,0,.37-.3L7.69,4.6l.44-.41.77.93.72-.72-1-.77c.7-.7,1.34-1.33,2-2C11,1.28,11.35.89,11.71.5h.09l1.93,1.83c-.6,1.21-.56,2,.09,2.64s1.41.69,2.62.1L18.29,7v.09L15.91,9.4c-.24.23-.46.49-.77.83l-.81-1-.73.7,1.05.84a5,5,0,0,0-.48.36L7.38,17.92A4.36,4.36,0,0,0,7.08,18.29ZM9.95,6l.84.93.58-.57-.85-.92Zm2.49,1.37-.56.49.8,1,.63-.59Z"/>
    </g>
  </g>
</svg>
