<svg xmlns="http://www.w3.org/2000/svg" viewBox="0 0 18.15 18.15">
  <defs>
    <style>.cls-1{fill:#fff;stroke:#cc202e;stroke-miterlimit:10;stroke-width:0.35px;}</style>
  </defs>
  <title>show tickets whiteAsset 2</title>
  <g id="Layer_2" data-name="Layer 2">
    <g id="Layer_1-2" data-name="Layer 1">
      <path class="cls-1"
            d="M6.76,18H6.67c-.56-.57-1.12-1.14-1.69-1.7a.41.41,0,0,1-.11-.56,1.79,1.79,0,0,0-1.36-2.56,6.84,6.84,0,0,0-1.57.16L.18,11.48s0-.06,0-.09a4.46,4.46,0,0,0,.37-.3L7.36,4.27l.44-.41.77.93.72-.72-1-.77c.7-.7,1.34-1.33,2-2C10.67,1,11,.56,11.39.18h.09L13.41,2c-.6,1.21-.56,2,.09,2.64s1.41.69,2.62.1L18,6.67v.09L15.59,9.07c-.24.23-.46.49-.77.83l-.81-1-.73.7,1.05.84a5,5,0,0,0-.48.36L7.06,17.6A4.36,4.36,0,0,0,6.76,18ZM9.62,5.71l.84.93L11,6.08l-.85-.92Zm2.49,1.37-.56.49.8,1L13,7.95Z"/>
    </g>
  </g>
</svg>
