<svg xmlns="http://www.w3.org/2000/svg" width="25.912" height="36.223" viewBox="0 0 25.912 36.223">
  <g id="Group_2577" data-name="Group 2577" transform="translate(-501.464 -853.139)">
    <g id="Group_2576" data-name="Group 2576">
      <path id="Path_1869" data-name="Path 1869"
            d="M501.464,853.139v36.223h25.912V853.139Zm20.425,29.014q-.461,1.588-.918,3.175a.185.185,0,0,1-.011.029,4.154,4.154,0,0,1-.982.023H507.7a2.993,2.993,0,0,1-.792-.019c-.558-.234.877-1.433.941-1.732,0-.2.011-.391.014-.589,0-.438,0-.88,0-1.317v-6.189a2.828,2.828,0,0,0-.026-.773,1.009,1.009,0,0,0-.182-.26c-.263-.329-.782-.7-.867-1.093-.052-.231.217-.254.359-.322h12.41a3.789,3.789,0,0,1,1.6.162.5.5,0,0,1,.157.217,5.812,5.812,0,0,1,.131.856c.065.485.129.971.189,1.454a3.22,3.22,0,0,1,.085.83c-.046.267-.309.453-.547.234a1.8,1.8,0,0,1-.3-.519c-.341-.666-.593-1.505-1.368-1.833a5.269,5.269,0,0,0-1.876-.138H511.95a1.382,1.382,0,0,0-.555.038c-.006.01-.013.019-.02.029a4.073,4.073,0,0,0-.031,1.011v3.066h4.636a1.537,1.537,0,0,0,.457-.024c.378-.136.588-.77.662-1.108.023-.1.02-.292.1-.361s.43-.041.568-.041v4.412c0,.075.011.25-.053.284-.1.056-.408.07-.486-.022a.849.849,0,0,1-.112-.319c-.094-.3-.258-1.019-.62-1.107-.146-.007-.292-.013-.437-.017h-3.423a6.719,6.719,0,0,0-1.257.048,2.674,2.674,0,0,0-.038.864v3.015h7.173a2.162,2.162,0,0,0,.652-.046,1.381,1.381,0,0,0,.442-.339,3.838,3.838,0,0,0,.491-.657c.275-.463.554-.925.83-1.389.079-.136.247-.477.388-.549a2.937,2.937,0,0,1,.864-.035Q522.034,881.629,521.889,882.153Zm2.217-24.485q-.285,1.359-.568,2.719-.626,2.958-1.254,5.916-.231,1.1-.466,2.207a6.15,6.15,0,0,0-.187.943H521.6c0,.047-.121.027-.167.027h-6.563a1.354,1.354,0,0,0-.441.027h-5.3a13.763,13.763,0,0,1-1.861-.042c-.089-.078-.135-.452-.157-.576-.127-.61-.259-1.219-.387-1.828q-.746-3.514-1.5-7.028l-.378-1.8a2,2,0,0,1-.114-.751c.031-.161.133-.217.258-.3a.726.726,0,0,1,.346.146,2.053,2.053,0,0,1,.311.422q.255.4.514.8c.652,1.014,1.305,2.023,1.959,3.038.2.3.389.6.583.9.085.142.172.282.259.425h.056c.041-.11.083-.22.126-.328.1-.249.208-.5.313-.75q.709-1.683,1.421-3.368c.128-.288.4-1.313.838-1.236.413.07.659.969.8,1.295q.936,2.181,1.875,4.361h.028q.969-2.247,1.94-4.49c.128-.288.407-1.264.863-1.185.362.063.637,1.047.772,1.344q.917,2.181,1.83,4.357h.028q1.5-2.325,2.991-4.647c.15-.236.743-1.414,1.156-.988A.5.5,0,0,1,524.106,857.668Z"
            fill="#fff"/>
    </g>
  </g>
</svg>
