<svg xmlns="http://www.w3.org/2000/svg" viewBox="0 0 25.69 18.25">
  <defs>
    <style>.cls-1{isolation:isolate;}.cls-2{mix-blend-mode:screen;}.cls-3{fill:#fff;}</style>
  </defs>
  <title>videoAsset 4</title>
  <g class="cls-1">
    <g id="Layer_2" data-name="Layer 2">
      <g id="Layer_1-2" data-name="Layer 1">
        <g class="cls-2">
          <path class="cls-3"
                d="M15,0c.31.06.61.11.92.18a5.47,5.47,0,0,1,2.5,9.2.66.66,0,0,0-.17.41c0,2.17,0,4.34,0,6.5a1.83,1.83,0,0,1-1.94,1.95H3.81a1.83,1.83,0,0,1-2-2c0-2.16,0-4.32,0-6.47a.67.67,0,0,0-.17-.41A5.29,5.29,0,0,1,.28,3.84,5.29,5.29,0,0,1,4.63.08L5.08,0h.8a1.48,1.48,0,0,0,.22.06A5.36,5.36,0,0,1,9.68,2l.37.46.19-.24a5.41,5.41,0,0,1,3-2c.34-.09.68-.14,1-.21Zm.66,5.51a1.06,1.06,0,1,0-1.1,1A1.06,1.06,0,0,0,15.67,5.51Zm-10.2,1A1.06,1.06,0,1,0,4.41,5.49,1.05,1.05,0,0,0,5.46,6.54Z"/>
          <path class="cls-3"
                d="M25.69,12.78q0,2,0,3.91c0,.61-.34.8-.87.5l-4.37-2.52a.37.37,0,0,1-.21-.38q0-1.55,0-3.11a.37.37,0,0,1,.22-.38l4.41-2.45c.48-.27.83-.06.83.49Q25.69,10.81,25.69,12.78Z"/>
        </g>
      </g>
    </g>
  </g>
</svg>
