<svg xmlns="http://www.w3.org/2000/svg" viewBox="0 0 307.3 61.61">
  <defs>
    <style>
      .cls-3{fill:#ce1f2e}.cls-1{fill:white;}.cls-2{fill:black;}
    </style>
  </defs>
  <title>
    empire logoAsset 6
  </title>
  <g id="Layer_2" data-name="Layer 2" class="cls-3">
    <g id="Layer_1-2" data-name="Layer 1" class="cls-3">
      <rect class="cls-1" x="1.93" y="3.9" width="40.15" height="55.32"/>
      <polygon class="cls-2"
               points="60.93 37.15 60.93 42.64 70.87 42.64 70.87 45.72 60.93 45.72 60.93 51.33 72.38 51.33 72.38 54.41 57.5 54.41 57.5 34.07 72.03 34.07 72.03 37.15 60.93 37.15"/>
      <polygon class="cls-2"
               points="95.19 54.41 95.16 39.21 88.74 52.29 86.5 52.29 80.08 39.21 80.08 54.41 76.85 54.41 76.85 34.07 80.92 34.07 87.63 47.58 94.31 34.07 98.35 34.07 98.35 54.41 95.19 54.41"/>
      <path class="cls-2"
            d="M107.45,45.2H112c3.14,0,4.91-1.34,4.91-4.1s-1.77-4-4.91-4h-4.53Zm4.68-11.13c5.11,0,8,2.53,8,6.94,0,4.59-2.93,7.26-8,7.26h-4.68v6.13H104V34.07Z"/>
      <rect class="cls-2" x="123.87" y="34.07" width="3.43" height="20.34"/>
      <path class="cls-2"
            d="M141.18,45.2c3.14,0,4.94-1.34,4.94-4.1s-1.8-4-4.94-4h-4.82v8Zm.93,3.05c-.29,0-.61,0-.93,0h-4.82v6.13h-3.43V34.07h8.25c5.2,0,8.19,2.53,8.19,6.94,0,3.25-1.51,5.55-4.21,6.6l4.56,6.8h-3.89Z"/>
      <polygon class="cls-2"
               points="157.66 37.15 157.66 42.64 167.59 42.64 167.59 45.72 157.66 45.72 157.66 51.33 169.11 51.33 169.11 54.41 154.23 54.41 154.23 34.07 168.76 34.07 168.76 37.15 157.66 37.15"/>
      <path class="cls-2"
            d="M191.91,36.8l-.73.93a9.42,9.42,0,0,0-6.39-2.5,9,9,0,1,0,0,18,9.59,9.59,0,0,0,6.39-2.47l.76.84a10.68,10.68,0,0,1-7.18,2.82,10.19,10.19,0,1,1,0-20.37,10.75,10.75,0,0,1,7.15,2.73"/>
      <rect class="cls-2" x="197.15" y="34.1" width="1.22" height="20.31"/>
      <polygon class="cls-2"
               points="220.39 54.41 206.85 35.95 206.85 54.41 205.63 54.41 205.63 34.1 207.05 34.1 220.62 52.55 220.62 34.1 221.81 34.1 221.81 54.41 220.39 54.41"/>
      <polygon class="cls-2"
               points="230.3 35.29 230.3 43.39 240.88 43.39 240.88 44.62 230.3 44.62 230.3 53.22 242.56 53.22 242.56 54.41 229.08 54.41 229.08 34.1 242.18 34.1 242.18 35.29 230.3 35.29"/>
      <polygon class="cls-2"
               points="266.65 54.41 266.62 35.78 258.28 52.2 257.73 52.2 249.33 35.78 249.33 54.41 248.17 54.41 248.17 34.1 249.85 34.1 258.02 50.08 266.13 34.1 267.81 34.1 267.81 54.41 266.65 54.41"/>
      <path class="cls-2"
            d="M281.67,35.49,276.29,47.4H287.1Zm-5.9,13.13-2.62,5.78h-1.34L281,34.1h1.31l9.3,20.31H290.3l-2.64-5.78Z"/>
      <path class="cls-2"
            d="M306.6,35.7,306,36.8a10.21,10.21,0,0,0-5.32-1.48c-3.22,0-5.32,1.34-5.32,3.46,0,6.19,11.94,3,11.88,10.49,0,3.14-2.82,5.17-7.06,5.17A10.71,10.71,0,0,1,293,51.5l.64-1.08a9.57,9.57,0,0,0,6.63,2.76c3.49,0,5.72-1.51,5.72-3.89.06-6.36-11.88-3.11-11.88-10.43,0-2.94,2.67-4.82,6.68-4.82a11.25,11.25,0,0,1,5.81,1.66"/>
      <path class="cls-3"
            d="M39.36,6.63l-1,4.82L36.13,21.95q-.41,2-.83,3.91A10.8,10.8,0,0,0,35,27.53h0c0,.08-.21,0-.3,0H23a2.45,2.45,0,0,0-.78,0h-9.4a24.41,24.41,0,0,1-3.3-.07,2.73,2.73,0,0,1-.28-1c-.23-1.08-.46-2.16-.69-3.24Q7.22,17.06,5.89,10.83L5.22,7.64A3.52,3.52,0,0,1,5,6.3c.06-.29.24-.38.46-.53A1.28,1.28,0,0,1,6.09,6a3.67,3.67,0,0,1,.55.75l.91,1.41L11,13.58l1,1.6.46.75h.1l.22-.58L13.4,14l2.52-6c.23-.51.7-2.33,1.49-2.19s1.17,1.72,1.43,2.3l3.32,7.73h0l3.44-8c.23-.51.72-2.24,1.53-2.1.64.11,1.13,1.86,1.37,2.38l3.25,7.73h0l5.3-8.24c.27-.42,1.32-2.51,2.05-1.75a.89.89,0,0,1,.16.69M35.43,49.37,33.8,55l0,.05a7.36,7.36,0,0,1-1.74,0H10.27a5.24,5.24,0,0,1-1.4,0c-1-.41,1.56-2.54,1.67-3.07,0-.35,0-.69,0-1,0-.78,0-1.56,0-2.34v-11a4.93,4.93,0,0,0,0-1.37,1.81,1.81,0,0,0-.32-.46c-.47-.58-1.39-1.24-1.54-1.94-.09-.41.38-.45.64-.57h22c.76,0,2.32-.09,2.83.29a.89.89,0,0,1,.28.38,10.38,10.38,0,0,1,.23,1.52c.11.86.23,1.72.33,2.58a5.74,5.74,0,0,1,.15,1.47c-.08.47-.55.8-1,.42a3.14,3.14,0,0,1-.53-.92c-.61-1.18-1.05-2.67-2.43-3.25a9.33,9.33,0,0,0-3.33-.25H17.8a2.43,2.43,0,0,0-1,.07l0,.05a7.17,7.17,0,0,0-.06,1.79v5.44h8.22a2.74,2.74,0,0,0,.81,0c.67-.24,1-1.37,1.17-2,0-.18,0-.52.18-.64s.76-.07,1-.07V48c0,.13,0,.44-.09.5s-.72.12-.86,0a1.58,1.58,0,0,1-.2-.57c-.17-.53-.46-1.81-1.1-2l-.77,0H19a11.94,11.94,0,0,0-2.23.09,4.76,4.76,0,0,0-.07,1.53v5.35H29.45a3.88,3.88,0,0,0,1.16-.08,2.45,2.45,0,0,0,.78-.6A6.67,6.67,0,0,0,32.26,51l1.47-2.46c.14-.24.44-.85.69-1A5.24,5.24,0,0,1,36,47.5c-.18.62-.35,1.24-.52,1.86M0,61.61H44.27V0H0Z"/>
    </g>
  </g>
</svg>
