<svg id="Layer_1" data-name="Layer 1" xmlns="http://www.w3.org/2000/svg" xmlns:xlink="http://www.w3.org/1999/xlink" viewBox="0 0 121.29 121.29"><defs><style>.cls-1,.cls-7{fill:none;}.cls-2{fill:#feada4;}.cls-3{clip-path:url(#clip-path);}.cls-4{opacity:0.52;}.cls-5{fill:#fefffd;}.cls-6{fill:#be1e2d;}.cls-7{stroke:#feada4;stroke-miterlimit:10;}</style><clipPath id="clip-path"><rect class="cls-1" x="4.11" y="4.11" width="113.08" height="113.08"/></clipPath></defs><title>Rating icons</title><rect class="cls-2" x="4.17" y="4.11" width="113.08" height="113.08"/><g class="cls-3"><g class="cls-4"><g id="wuS9yb"><path class="cls-5" d="M106.64,13.2V7.69h2.23a1.62,1.62,0,0,1,1.19.49c.39.41.8.81,1.2,1.21a.46.46,0,0,0,.3.15.44.44,0,0,0,.36-.15l1.22-1.22a1.52,1.52,0,0,1,.81-.45,2.07,2.07,0,0,1,.35,0c.71,0,1.42,0,2.13,0h.11v10c-.1,0-2.64.05-2.9,0,0-.05,0-.12,0-.18V12.66h0l-.11.1-1.34,1.34a.73.73,0,0,1-.45.23.71.71,0,0,1-.63-.21l-1.38-1.37-.1-.1,0,0v5l-.12,0h-2a3.49,3.49,0,0,1-.85-.12,2.56,2.56,0,0,1-1.36-.94c-.24-.33-.48-.66-.7-1l-2-3.06c-.14-.21-.29-.42-.45-.62a.85.85,0,0,0-.93-.29.79.79,0,0,0-.42.27c-.16.21-.32.41-.46.63-.62.94-1.24,1.87-1.84,2.81a4.89,4.89,0,0,1-1.63,1.57,5.11,5.11,0,0,1-2.49.76,5,5,0,0,1-2.46-.48,5.29,5.29,0,0,1-.52-.29,5.45,5.45,0,0,1-2.07-2.43c-.07-.16-.12-.34-.19-.53,1-.15,2-.27,3-.42l.06.12a1.78,1.78,0,0,0,1.06.9A2.42,2.42,0,0,0,95,14.48a1.82,1.82,0,0,0,.82-.71l2.9-4.47a5.27,5.27,0,0,1,.72-.9,2.75,2.75,0,0,1,3.84-.06,6,6,0,0,1,.72.88l1.6,2.42,1,1.45a.83.83,0,0,0,.08.12Z"/><path class="cls-5" d="M97.18,8.69l-1.63,2.45a.53.53,0,0,1-.11-.09,2.14,2.14,0,0,0-2.91,0,2.43,2.43,0,0,0-.4.51c0,.06-.07.09-.14.09H89a4.34,4.34,0,0,1,.59-1.61,5,5,0,0,1,7.56-1.37Z"/><path class="cls-5" d="M100.84,14.24v-.88s0-.1,0-.15a.15.15,0,0,1,.24-.11l.09.06,1,.8a.7.7,0,0,1,.13.17.29.29,0,0,1-.09.35c-.11.1-.23.19-.35.28l-.68.55c-.07.06-.15.13-.26.08s-.08-.16-.09-.25Z"/></g><path class="cls-5" d="M90.17,8.41a5.56,5.56,0,0,0-1.52,2.46,2.41,2.41,0,0,0-1.87-.37,2.24,2.24,0,0,0-1.59,2.34,2.13,2.13,0,0,0,1.67,1.91,2.19,2.19,0,0,0,2.2-.8,5,5,0,0,0,1.61,2.5,4.91,4.91,0,0,1-3.15,1.27,4.77,4.77,0,0,1-1.63-.23A5.08,5.08,0,0,1,83,15.36a4.6,4.6,0,0,1-.74-1.95A5.25,5.25,0,0,1,83.8,9,5.11,5.11,0,0,1,90.17,8.41Z"/><path class="cls-5" d="M87.59,11.67a.84.84,0,0,0-.6.42.94.94,0,0,0,.59,1.39H92a2,2,0,0,0,.2.39,3.34,3.34,0,0,0,.11-2.24s-2.77,0-3,0H88.17A2.74,2.74,0,0,0,87.59,11.67Z"/><g id="wuS9yb-2" data-name="wuS9yb"><path class="cls-5" d="M106.64,30.75V25.24h2.23a1.62,1.62,0,0,1,1.19.49c.39.41.8.81,1.2,1.21a.46.46,0,0,0,.3.15.44.44,0,0,0,.36-.15l1.22-1.22a1.59,1.59,0,0,1,.81-.45,2.07,2.07,0,0,1,.35,0h2.24v10c-.1,0-2.64,0-2.9,0,0,0,0-.12,0-.18V30.21h0l-.11.1-1.34,1.34a.77.77,0,0,1-1.08,0l-1.38-1.38-.1-.1,0,0v5l-.12,0h-2a3.49,3.49,0,0,1-.85-.12,2.56,2.56,0,0,1-1.36-.94c-.24-.33-.48-.66-.7-1l-2-3.06c-.14-.21-.29-.42-.45-.62a.85.85,0,0,0-.93-.29.79.79,0,0,0-.42.27c-.16.21-.32.41-.46.63C99.61,31,99,32,98.39,32.92a5,5,0,0,1-1.63,1.56,5.11,5.11,0,0,1-2.49.76,5,5,0,0,1-2.46-.48,3.81,3.81,0,0,1-.52-.29A5.45,5.45,0,0,1,89.22,32c-.07-.16-.12-.34-.19-.53,1-.15,2-.27,3-.42l.06.12a1.78,1.78,0,0,0,1.06.9A2.46,2.46,0,0,0,95,32a2,2,0,0,0,.82-.71l2.9-4.48a5.27,5.27,0,0,1,.72-.9,2.74,2.74,0,0,1,3.84-.05,5.46,5.46,0,0,1,.72.87l1.6,2.42,1,1.46.08.11Z"/><path class="cls-5" d="M97.18,26.24,95.55,28.7l-.11-.1a2.15,2.15,0,0,0-2.91,0,2.43,2.43,0,0,0-.4.51c0,.06-.07.09-.14.09H89a4.4,4.4,0,0,1,.59-1.61,5,5,0,0,1,7.56-1.37Z"/><path class="cls-5" d="M100.84,31.79v-.88c0-.05,0-.1,0-.15a.15.15,0,0,1,.24-.11l.09.06,1,.8a.7.7,0,0,1,.13.17.29.29,0,0,1-.09.35c-.11.1-.23.19-.35.28l-.68.55c-.07.06-.15.13-.26.08s-.08-.16-.09-.25Z"/></g><path class="cls-5" d="M90.17,26a5.56,5.56,0,0,0-1.52,2.46,2.41,2.41,0,0,0-1.87-.37,2.25,2.25,0,0,0-1.59,2.34,2.12,2.12,0,0,0,1.67,1.91,2.19,2.19,0,0,0,2.2-.8A5,5,0,0,0,90.67,34a5,5,0,0,1-3.15,1.28A5.33,5.33,0,0,1,83,32.91,4.55,4.55,0,0,1,82.3,31a5.25,5.25,0,0,1,1.5-4.46A5.11,5.11,0,0,1,90.17,26Z"/><path class="cls-5" d="M87.59,29.22a.87.87,0,0,0-.6.42A.94.94,0,0,0,87.58,31H92a2,2,0,0,0,.2.39,3.34,3.34,0,0,0,.11-2.24s-2.77,0-3,0H88.17A2.74,2.74,0,0,0,87.59,29.22Z"/><g id="wuS9yb-3" data-name="wuS9yb"><path class="cls-5" d="M106.64,46.45V40.94h2.23a1.62,1.62,0,0,1,1.19.49c.39.41.8.81,1.2,1.21a.46.46,0,0,0,.3.15.44.44,0,0,0,.36-.15l1.22-1.22A1.52,1.52,0,0,1,114,41a2.07,2.07,0,0,1,.35,0h2.24v10c-.1,0-2.64.05-2.9,0,0-.05,0-.12,0-.18V45.91h0l-.11.1-1.34,1.34a.77.77,0,0,1-1.08,0L109.69,46l-.1-.1,0,0v5l-.12,0h-2a3.49,3.49,0,0,1-.85-.12,2.56,2.56,0,0,1-1.36-.94c-.24-.33-.48-.66-.7-1l-2-3.06c-.14-.21-.29-.42-.45-.62a.85.85,0,0,0-.93-.29.79.79,0,0,0-.42.27c-.16.21-.32.41-.46.63-.62.94-1.24,1.87-1.84,2.81a4.89,4.89,0,0,1-1.63,1.57,5.11,5.11,0,0,1-2.49.76,5,5,0,0,1-2.46-.48,5.29,5.29,0,0,1-.52-.29,5.45,5.45,0,0,1-2.07-2.43c-.07-.16-.12-.34-.19-.53,1-.15,2-.27,3-.42l.06.12a1.78,1.78,0,0,0,1.06.9A2.42,2.42,0,0,0,95,47.73a1.86,1.86,0,0,0,.82-.7l2.9-4.48a5.27,5.27,0,0,1,.72-.9,2.75,2.75,0,0,1,3.84-.06,6,6,0,0,1,.72.88l1.6,2.42,1,1.45a.83.83,0,0,0,.08.12Z"/><path class="cls-5" d="M97.18,41.94l-1.63,2.45a.53.53,0,0,1-.11-.09,2.14,2.14,0,0,0-2.91,0,2.43,2.43,0,0,0-.4.51c0,.06-.07.09-.14.09H89a4.4,4.4,0,0,1,.59-1.61,5,5,0,0,1,7.56-1.37Z"/><path class="cls-5" d="M100.84,47.49v-.88s0-.1,0-.15a.15.15,0,0,1,.24-.11l.09.06,1,.8a.7.7,0,0,1,.13.17.29.29,0,0,1-.09.35c-.11.1-.23.19-.35.28l-.68.55c-.07.06-.15.13-.26.08s-.08-.16-.09-.25Z"/></g><path class="cls-5" d="M90.17,41.66a5.56,5.56,0,0,0-1.52,2.46,2.41,2.41,0,0,0-1.87-.37,2.24,2.24,0,0,0-1.59,2.34A2.13,2.13,0,0,0,86.86,48a2.19,2.19,0,0,0,2.2-.8,5,5,0,0,0,1.61,2.5A5,5,0,0,1,87.52,51,5.33,5.33,0,0,1,83,48.61a4.6,4.6,0,0,1-.74-2,5.25,5.25,0,0,1,1.5-4.46A5.11,5.11,0,0,1,90.17,41.66Z"/><path class="cls-5" d="M87.59,44.92a.84.84,0,0,0-.6.42.94.94,0,0,0,.59,1.39H92a2,2,0,0,0,.2.39,3.34,3.34,0,0,0,.11-2.24s-2.77,0-3,0H88.17A2.74,2.74,0,0,0,87.59,44.92Z"/><g id="wuS9yb-4" data-name="wuS9yb"><path class="cls-5" d="M106.64,62.15V56.64h2.23a1.62,1.62,0,0,1,1.19.49c.39.41.8.81,1.2,1.21a.46.46,0,0,0,.3.15.44.44,0,0,0,.36-.15l1.22-1.22a1.52,1.52,0,0,1,.81-.45,2.07,2.07,0,0,1,.35,0h2.24v10c-.1,0-2.64,0-2.9,0,0-.06,0-.12,0-.18V61.61h0l-.11.09L112.15,63a.73.73,0,0,1-.45.23.71.71,0,0,1-.63-.21l-1.38-1.37-.1-.1,0,0v5l-.12,0h-2a3.49,3.49,0,0,1-.85-.12,2.56,2.56,0,0,1-1.36-.94c-.24-.33-.48-.66-.7-1l-2-3.06c-.14-.21-.29-.42-.45-.62a.85.85,0,0,0-.93-.29.79.79,0,0,0-.42.27c-.16.21-.32.41-.46.63-.62.93-1.24,1.87-1.84,2.81a4.89,4.89,0,0,1-1.63,1.57,5.11,5.11,0,0,1-2.49.76,5,5,0,0,1-2.46-.48,5.29,5.29,0,0,1-.52-.29,5.45,5.45,0,0,1-2.07-2.43c-.07-.16-.12-.34-.19-.53,1-.15,2-.27,3-.42l.06.12a1.78,1.78,0,0,0,1.06.9A2.46,2.46,0,0,0,95,63.43a1.82,1.82,0,0,0,.82-.71l2.9-4.47a5.27,5.27,0,0,1,.72-.9,2.75,2.75,0,0,1,3.84-.06,6,6,0,0,1,.72.88l1.6,2.42,1,1.45a.83.83,0,0,0,.08.12Z"/><path class="cls-5" d="M97.18,57.64l-1.63,2.45L95.44,60a2.14,2.14,0,0,0-2.91,0,2.43,2.43,0,0,0-.4.51c0,.06-.07.09-.14.09H89A4.34,4.34,0,0,1,89.62,59a5,5,0,0,1,7.56-1.37Z"/><path class="cls-5" d="M100.84,63.19v-.88c0-.05,0-.1,0-.15a.15.15,0,0,1,.24-.11l.09.06,1,.8a.7.7,0,0,1,.13.17.29.29,0,0,1-.09.35c-.11.1-.23.19-.35.28l-.68.55c-.07.06-.15.13-.26.08s-.08-.16-.09-.25Z"/></g><path class="cls-5" d="M90.17,57.36a5.56,5.56,0,0,0-1.52,2.46,2.41,2.41,0,0,0-1.87-.37,2.24,2.24,0,0,0-1.59,2.34,2.13,2.13,0,0,0,1.67,1.91,2.19,2.19,0,0,0,2.2-.8,5,5,0,0,0,1.61,2.5,4.91,4.91,0,0,1-3.15,1.27,4.77,4.77,0,0,1-1.63-.23A5.08,5.08,0,0,1,83,64.31a4.6,4.6,0,0,1-.74-2,5.25,5.25,0,0,1,1.5-4.46A5.11,5.11,0,0,1,90.17,57.36Z"/><path class="cls-5" d="M87.59,60.62A.84.84,0,0,0,87,61a.94.94,0,0,0,.59,1.39H92a2,2,0,0,0,.2.39,3.34,3.34,0,0,0,.11-2.24s-2.77,0-3,0H88.17A2.74,2.74,0,0,0,87.59,60.62Z"/><g id="wuS9yb-5" data-name="wuS9yb"><path class="cls-5" d="M106.64,77.85V72.34h.15c.69,0,1.39,0,2.08,0a1.62,1.62,0,0,1,1.19.49l1.2,1.21a.51.51,0,0,0,.3.15.44.44,0,0,0,.36-.15l1.22-1.22a1.52,1.52,0,0,1,.81-.45,2.07,2.07,0,0,1,.35,0c.71,0,1.42,0,2.13,0h.11v10c-.1,0-2.64,0-2.9,0,0-.06,0-.12,0-.18V77.31h0l-.11.09-1.34,1.35a.73.73,0,0,1-.45.23.71.71,0,0,1-.63-.21l-1.38-1.37-.1-.1h0v5l-.12,0h-2a3.07,3.07,0,0,1-.85-.13,2.49,2.49,0,0,1-1.36-.93c-.24-.33-.48-.66-.7-1l-2-3.06c-.14-.21-.29-.42-.45-.62a.85.85,0,0,0-.93-.29.79.79,0,0,0-.42.27c-.16.21-.32.41-.46.63-.62.93-1.24,1.87-1.84,2.81a4.89,4.89,0,0,1-1.63,1.57,5.11,5.11,0,0,1-2.49.76,5,5,0,0,1-2.46-.48,5.29,5.29,0,0,1-.52-.29,5.5,5.5,0,0,1-2.07-2.43c-.07-.16-.12-.34-.19-.53,1-.15,2-.27,3-.42l.06.12a1.78,1.78,0,0,0,1.06.9A2.46,2.46,0,0,0,95,79.13a1.82,1.82,0,0,0,.82-.71L98.69,74a5.27,5.27,0,0,1,.72-.9,2.75,2.75,0,0,1,3.84-.06,5.53,5.53,0,0,1,.72.88l1.6,2.42,1,1.45a.83.83,0,0,0,.08.12Z"/><path class="cls-5" d="M97.18,73.34l-1.63,2.45a.55.55,0,0,1-.11-.1,2.15,2.15,0,0,0-2.91,0,2.43,2.43,0,0,0-.4.51c0,.06-.07.09-.14.09H89a4.34,4.34,0,0,1,.59-1.61,5,5,0,0,1,7.56-1.37Z"/><path class="cls-5" d="M100.84,78.89V78c0-.05,0-.1,0-.15a.15.15,0,0,1,.24-.11l.09.06,1,.8a.45.45,0,0,1,.13.17.29.29,0,0,1-.09.35c-.11.1-.23.19-.35.28l-.68.55c-.07.06-.15.13-.26.08s-.08-.16-.09-.25Z"/></g><path class="cls-5" d="M90.17,73.06a5.57,5.57,0,0,0-1.52,2.45,2.49,2.49,0,0,0-1.87-.36,2.24,2.24,0,0,0-1.59,2.34,2.13,2.13,0,0,0,1.67,1.91,2.19,2.19,0,0,0,2.2-.8,5,5,0,0,0,1.61,2.5,5,5,0,0,1-3.15,1.27,4.54,4.54,0,0,1-1.63-.24A5,5,0,0,1,83,80a4.65,4.65,0,0,1-.74-2,5.25,5.25,0,0,1,1.5-4.46A5.11,5.11,0,0,1,90.17,73.06Z"/><path class="cls-5" d="M87.59,76.32a.84.84,0,0,0-.6.42.94.94,0,0,0,.59,1.39H92a2,2,0,0,0,.2.39,3.34,3.34,0,0,0,.11-2.24s-2.77,0-3,0H88.17A2.74,2.74,0,0,0,87.59,76.32Z"/><g id="wuS9yb-6" data-name="wuS9yb"><path class="cls-5" d="M106.64,93.55V88h.15c.69,0,1.39,0,2.08,0a1.62,1.62,0,0,1,1.19.49l1.2,1.21a.51.51,0,0,0,.3.15.44.44,0,0,0,.36-.15l1.22-1.22a1.52,1.52,0,0,1,.81-.45,2.07,2.07,0,0,1,.35,0q1.07,0,2.13,0h.11V98c-.1,0-2.64,0-2.9,0,0-.06,0-.12,0-.18V93l0,0-.11.1-1.34,1.35a.73.73,0,0,1-.45.23.71.71,0,0,1-.63-.21l-1.38-1.37-.1-.1h0v5l-.12,0h-2a3.07,3.07,0,0,1-.85-.13A2.49,2.49,0,0,1,105.2,97c-.24-.33-.48-.66-.7-1l-2-3.06c-.14-.21-.29-.43-.45-.63a.86.86,0,0,0-.93-.28.73.73,0,0,0-.42.27c-.16.21-.32.41-.46.63-.62.93-1.24,1.87-1.84,2.81a4.89,4.89,0,0,1-1.63,1.57,5.11,5.11,0,0,1-2.49.76,5,5,0,0,1-2.46-.48,5.29,5.29,0,0,1-.52-.29,5.5,5.5,0,0,1-2.07-2.43c-.07-.17-.12-.34-.19-.53,1-.15,2-.27,3-.42l.06.12a1.78,1.78,0,0,0,1.06.9A2.46,2.46,0,0,0,95,94.83a1.82,1.82,0,0,0,.82-.71l2.9-4.47a5.27,5.27,0,0,1,.72-.9,2.75,2.75,0,0,1,3.84-.06,5.53,5.53,0,0,1,.72.88l1.6,2.42,1,1.45a.83.83,0,0,0,.08.12Z"/><path class="cls-5" d="M97.18,89l-1.63,2.45a.55.55,0,0,1-.11-.1,2.15,2.15,0,0,0-2.91,0,2.43,2.43,0,0,0-.4.51c0,.06-.07.09-.14.09H89a4.34,4.34,0,0,1,.59-1.61A5,5,0,0,1,97.18,89Z"/><path class="cls-5" d="M100.84,94.59v-.88s0-.1,0-.15.12-.18.24-.11a.47.47,0,0,1,.09.06l1,.8a.45.45,0,0,1,.13.17.29.29,0,0,1-.09.35c-.11.1-.23.19-.35.28l-.68.55c-.07.06-.15.13-.26.08s-.08-.16-.09-.25Z"/></g><path class="cls-5" d="M90.17,88.76a5.57,5.57,0,0,0-1.52,2.45,2.52,2.52,0,0,0-1.87-.37,2.27,2.27,0,0,0-1.59,2.35,2.13,2.13,0,0,0,1.67,1.91,2.19,2.19,0,0,0,2.2-.8,5,5,0,0,0,1.61,2.5,5,5,0,0,1-3.15,1.27,4.78,4.78,0,0,1-1.63-.24A5,5,0,0,1,83,95.71a4.65,4.65,0,0,1-.74-1.95,5.25,5.25,0,0,1,1.5-4.46A5.11,5.11,0,0,1,90.17,88.76Z"/><path class="cls-5" d="M87.59,92a.84.84,0,0,0-.6.42,1,1,0,0,0,.59,1.39H92a2,2,0,0,0,.2.39A3.34,3.34,0,0,0,92.27,92s-2.77,0-3,0H88.17A2.74,2.74,0,0,0,87.59,92Z"/><g id="wuS9yb-7" data-name="wuS9yb"><path class="cls-5" d="M67.49,13.2V7.69h2.23a1.59,1.59,0,0,1,1.18.49c.4.41.81.81,1.21,1.21a.46.46,0,0,0,.3.15.44.44,0,0,0,.36-.15L74,8.17a1.52,1.52,0,0,1,.81-.45,2.07,2.07,0,0,1,.35,0c.71,0,1.41,0,2.12,0h.12v10c-.1,0-2.64.05-2.9,0,0-.05,0-.12,0-.18V12.66h0l-.11.1c-.45.44-.9.89-1.34,1.34a.73.73,0,0,1-.45.23.7.7,0,0,1-.63-.21l-1.38-1.37-.11-.1,0,0v5l-.12,0h-2a3.49,3.49,0,0,1-.85-.12,2.56,2.56,0,0,1-1.36-.94c-.25-.33-.48-.66-.7-1-.68-1-1.34-2-2-3.06a6.62,6.62,0,0,0-.46-.62.84.84,0,0,0-.92-.29.75.75,0,0,0-.42.27c-.16.21-.32.41-.47.63-.61.94-1.23,1.87-1.83,2.81a4.89,4.89,0,0,1-1.63,1.57,5.12,5.12,0,0,1-2.5.76,4.94,4.94,0,0,1-2.45-.48,5.29,5.29,0,0,1-.52-.29,5.45,5.45,0,0,1-2.07-2.43c-.07-.16-.12-.34-.19-.53,1-.15,2-.27,3-.42l.06.12a1.78,1.78,0,0,0,1.06.9,2.42,2.42,0,0,0,1.83-.08,1.88,1.88,0,0,0,.82-.71q1.44-2.23,2.9-4.47a4.82,4.82,0,0,1,.72-.9,2.75,2.75,0,0,1,3.84-.06,6,6,0,0,1,.72.88l1.6,2.42,1,1.45a.83.83,0,0,1,.08.12Z"/><path class="cls-5" d="M58,8.69,56.4,11.14l-.12-.09a2.13,2.13,0,0,0-2.9,0,2.43,2.43,0,0,0-.4.51c0,.06-.07.09-.14.09h-3a4.54,4.54,0,0,1,.6-1.61A5,5,0,0,1,58,8.69Z"/><path class="cls-5" d="M61.69,14.24v-.88a.76.76,0,0,1,0-.15.15.15,0,0,1,.24-.11l.09.06c.33.27.67.53,1,.8a.55.55,0,0,1,.14.17.29.29,0,0,1-.09.35c-.11.1-.23.19-.35.28l-.68.55c-.08.06-.16.13-.26.08s-.09-.16-.09-.25Z"/></g><path class="cls-5" d="M51,8.41a5.58,5.58,0,0,0-1.51,2.46,2.41,2.41,0,0,0-1.87-.37A2.24,2.24,0,0,0,46,12.84a2.13,2.13,0,0,0,1.66,1.91,2.19,2.19,0,0,0,2.2-.8,5,5,0,0,0,1.61,2.5,4.83,4.83,0,0,1-3.14,1.27,4.73,4.73,0,0,1-1.63-.23,5.08,5.08,0,0,1-2.85-2.13,4.6,4.6,0,0,1-.74-1.95A5.25,5.25,0,0,1,44.65,9,5.09,5.09,0,0,1,51,8.41Z"/><path class="cls-5" d="M48.43,11.67a.84.84,0,0,0-.6.42,1,1,0,0,0,.6,1.39h4.38a2,2,0,0,0,.2.39,3.42,3.42,0,0,0,.11-2.24s-2.78,0-3,0H49A2.88,2.88,0,0,0,48.43,11.67Z"/><g id="wuS9yb-8" data-name="wuS9yb"><path class="cls-5" d="M67.49,30.75V25.24h2.23a1.59,1.59,0,0,1,1.18.49c.4.41.81.81,1.21,1.21a.46.46,0,0,0,.3.15.44.44,0,0,0,.36-.15c.41-.4.81-.81,1.22-1.22a1.59,1.59,0,0,1,.81-.45,2.07,2.07,0,0,1,.35,0h2.24v10c-.1,0-2.64,0-2.9,0,0,0,0-.12,0-.18V30.21h0l-.11.1c-.45.44-.9.89-1.34,1.34a.73.73,0,0,1-.45.23.72.72,0,0,1-.63-.2l-1.38-1.38-.11-.1,0,0v5l-.12,0h-2a3.49,3.49,0,0,1-.85-.12,2.56,2.56,0,0,1-1.36-.94c-.25-.33-.48-.66-.7-1-.68-1-1.34-2-2-3.06a6.62,6.62,0,0,0-.46-.62A.84.84,0,0,0,62,29.2a.75.75,0,0,0-.42.27c-.16.21-.32.41-.47.63-.61.94-1.23,1.87-1.83,2.82a5,5,0,0,1-1.63,1.56,5.12,5.12,0,0,1-2.5.76,4.94,4.94,0,0,1-2.45-.48,3.81,3.81,0,0,1-.52-.29A5.45,5.45,0,0,1,50.07,32c-.07-.16-.12-.34-.19-.53,1-.15,2-.27,3-.42l.06.12a1.78,1.78,0,0,0,1.06.9A2.46,2.46,0,0,0,55.82,32a2,2,0,0,0,.82-.71q1.44-2.25,2.9-4.48a4.82,4.82,0,0,1,.72-.9,2.74,2.74,0,0,1,3.84-.05,5.46,5.46,0,0,1,.72.87l1.6,2.42c.32.49.64,1,1,1.46a.44.44,0,0,1,.08.11Z"/><path class="cls-5" d="M58,26.24,56.4,28.7l-.12-.1a2.14,2.14,0,0,0-2.9,0,2.43,2.43,0,0,0-.4.51c0,.06-.07.09-.14.09h-3a4.61,4.61,0,0,1,.6-1.61A5,5,0,0,1,58,26.24Z"/><path class="cls-5" d="M61.69,31.79v-.88a.76.76,0,0,1,0-.15.15.15,0,0,1,.24-.11l.09.06c.33.27.67.53,1,.8a.55.55,0,0,1,.14.17.29.29,0,0,1-.09.35c-.11.1-.23.19-.35.28l-.68.55c-.08.06-.16.13-.26.08s-.09-.16-.09-.25Z"/></g><path class="cls-5" d="M51,26a5.58,5.58,0,0,0-1.51,2.46,2.41,2.41,0,0,0-1.87-.37A2.25,2.25,0,0,0,46,30.39,2.12,2.12,0,0,0,47.7,32.3a2.19,2.19,0,0,0,2.2-.8A5,5,0,0,0,51.51,34a4.87,4.87,0,0,1-3.14,1.28A5,5,0,0,1,46.74,35a5.08,5.08,0,0,1-2.85-2.13A4.55,4.55,0,0,1,43.15,31a5.25,5.25,0,0,1,1.5-4.46A5.09,5.09,0,0,1,51,26Z"/><path class="cls-5" d="M48.43,29.22a.87.87,0,0,0-.6.42,1,1,0,0,0,.6,1.39h4.38a2,2,0,0,0,.2.39,3.42,3.42,0,0,0,.11-2.24s-2.78,0-3,0H49A2.88,2.88,0,0,0,48.43,29.22Z"/><g id="wuS9yb-9" data-name="wuS9yb"><path class="cls-5" d="M67.49,46.45V40.94h2.23a1.59,1.59,0,0,1,1.18.49c.4.41.81.81,1.21,1.21a.46.46,0,0,0,.3.15.44.44,0,0,0,.36-.15c.41-.4.81-.81,1.22-1.22A1.52,1.52,0,0,1,74.8,41a2.07,2.07,0,0,1,.35,0h2.24v10c-.1,0-2.64.05-2.9,0,0-.05,0-.12,0-.18V45.91h0l-.11.1c-.45.44-.9.89-1.34,1.34a.73.73,0,0,1-.45.23.72.72,0,0,1-.63-.2L70.54,46l-.11-.1,0,0v5l-.12,0h-2a3.49,3.49,0,0,1-.85-.12,2.56,2.56,0,0,1-1.36-.94c-.25-.33-.48-.66-.7-1-.68-1-1.34-2-2-3.06a6.62,6.62,0,0,0-.46-.62A.84.84,0,0,0,62,44.9a.75.75,0,0,0-.42.27c-.16.21-.32.41-.47.63-.61.94-1.23,1.87-1.83,2.81a4.89,4.89,0,0,1-1.63,1.57,5.12,5.12,0,0,1-2.5.76,4.94,4.94,0,0,1-2.45-.48,5.29,5.29,0,0,1-.52-.29,5.45,5.45,0,0,1-2.07-2.43c-.07-.16-.12-.34-.19-.53,1-.15,2-.27,3-.42l.06.12a1.78,1.78,0,0,0,1.06.9,2.42,2.42,0,0,0,1.83-.08,1.92,1.92,0,0,0,.82-.7q1.44-2.25,2.9-4.48a4.82,4.82,0,0,1,.72-.9,2.75,2.75,0,0,1,3.84-.06,6,6,0,0,1,.72.88l1.6,2.42,1,1.45a.83.83,0,0,1,.08.12Z"/><path class="cls-5" d="M58,41.94,56.4,44.39l-.12-.09a2.13,2.13,0,0,0-2.9,0,2.43,2.43,0,0,0-.4.51c0,.06-.07.09-.14.09h-3a4.61,4.61,0,0,1,.6-1.61A5,5,0,0,1,58,41.94Z"/><path class="cls-5" d="M61.69,47.49v-.88a.76.76,0,0,1,0-.15.15.15,0,0,1,.24-.11l.09.06c.33.27.67.53,1,.8a.55.55,0,0,1,.14.17.29.29,0,0,1-.09.35c-.11.1-.23.19-.35.28l-.68.55c-.08.06-.16.13-.26.08s-.09-.16-.09-.25Z"/></g><path class="cls-5" d="M51,41.66a5.58,5.58,0,0,0-1.51,2.46,2.41,2.41,0,0,0-1.87-.37A2.24,2.24,0,0,0,46,46.09,2.13,2.13,0,0,0,47.7,48a2.19,2.19,0,0,0,2.2-.8,5,5,0,0,0,1.61,2.5A4.87,4.87,0,0,1,48.37,51a5,5,0,0,1-1.63-.24,5.08,5.08,0,0,1-2.85-2.13,4.6,4.6,0,0,1-.74-2,5.25,5.25,0,0,1,1.5-4.46A5.09,5.09,0,0,1,51,41.66Z"/><path class="cls-5" d="M48.43,44.92a.84.84,0,0,0-.6.42,1,1,0,0,0,.6,1.39h4.38a2,2,0,0,0,.2.39,3.42,3.42,0,0,0,.11-2.24s-2.78,0-3,0H49A2.88,2.88,0,0,0,48.43,44.92Z"/><g id="wuS9yb-10" data-name="wuS9yb"><path class="cls-5" d="M67.49,62.15V56.64h2.23a1.59,1.59,0,0,1,1.18.49c.4.41.81.81,1.21,1.21a.46.46,0,0,0,.3.15.44.44,0,0,0,.36-.15L74,57.12a1.52,1.52,0,0,1,.81-.45,2.07,2.07,0,0,1,.35,0h2.24v10c-.1,0-2.64,0-2.9,0,0-.06,0-.12,0-.18V61.61h0l-.11.09L73,63a.73.73,0,0,1-.45.23.7.7,0,0,1-.63-.21l-1.38-1.37-.11-.1,0,0v5l-.12,0h-2a3.49,3.49,0,0,1-.85-.12,2.56,2.56,0,0,1-1.36-.94c-.25-.33-.48-.66-.7-1-.68-1-1.34-2-2-3.06a6.62,6.62,0,0,0-.46-.62A.84.84,0,0,0,62,60.6a.75.75,0,0,0-.42.27c-.16.21-.32.41-.47.63-.61.93-1.23,1.87-1.83,2.81a4.89,4.89,0,0,1-1.63,1.57,5.12,5.12,0,0,1-2.5.76,4.94,4.94,0,0,1-2.45-.48,5.29,5.29,0,0,1-.52-.29,5.45,5.45,0,0,1-2.07-2.43c-.07-.16-.12-.34-.19-.53,1-.15,2-.27,3-.42l.06.12a1.78,1.78,0,0,0,1.06.9,2.47,2.47,0,0,0,1.83-.08,1.88,1.88,0,0,0,.82-.71q1.44-2.23,2.9-4.47a4.82,4.82,0,0,1,.72-.9,2.75,2.75,0,0,1,3.84-.06,6,6,0,0,1,.72.88l1.6,2.42,1,1.45a.83.83,0,0,1,.08.12Z"/><path class="cls-5" d="M58,57.64,56.4,60.09,56.28,60a2.13,2.13,0,0,0-2.9,0,2.43,2.43,0,0,0-.4.51c0,.06-.07.09-.14.09h-3a4.54,4.54,0,0,1,.6-1.61A5,5,0,0,1,58,57.64Z"/><path class="cls-5" d="M61.69,63.19v-.88a.76.76,0,0,1,0-.15.15.15,0,0,1,.24-.11l.09.06c.33.27.67.53,1,.8a.55.55,0,0,1,.14.17.29.29,0,0,1-.09.35c-.11.1-.23.19-.35.28l-.68.55c-.08.06-.16.13-.26.08s-.09-.16-.09-.25Z"/></g><path class="cls-5" d="M51,57.36a5.58,5.58,0,0,0-1.51,2.46,2.41,2.41,0,0,0-1.87-.37A2.24,2.24,0,0,0,46,61.79,2.13,2.13,0,0,0,47.7,63.7a2.19,2.19,0,0,0,2.2-.8,5,5,0,0,0,1.61,2.5,4.83,4.83,0,0,1-3.14,1.27,4.73,4.73,0,0,1-1.63-.23,5.08,5.08,0,0,1-2.85-2.13,4.6,4.6,0,0,1-.74-2,5.25,5.25,0,0,1,1.5-4.46A5.09,5.09,0,0,1,51,57.36Z"/><path class="cls-5" d="M48.43,60.62a.84.84,0,0,0-.6.42,1,1,0,0,0,.6,1.39h4.38a2,2,0,0,0,.2.39,3.42,3.42,0,0,0,.11-2.24s-2.78,0-3,0H49A2.88,2.88,0,0,0,48.43,60.62Z"/><g id="wuS9yb-11" data-name="wuS9yb"><path class="cls-5" d="M67.49,77.85V72.34h.14c.7,0,1.39,0,2.09,0a1.59,1.59,0,0,1,1.18.49c.4.4.81.8,1.21,1.21a.51.51,0,0,0,.3.15.44.44,0,0,0,.36-.15L74,72.82a1.52,1.52,0,0,1,.81-.45,2.07,2.07,0,0,1,.35,0c.71,0,1.41,0,2.12,0h.12v10c-.1,0-2.64,0-2.9,0,0-.06,0-.12,0-.18V77.31h0l-.11.09L73,78.74a.73.73,0,0,1-.45.23.7.7,0,0,1-.63-.21l-1.38-1.37-.11-.1h0v5l-.12,0h-2a3.07,3.07,0,0,1-.85-.13,2.49,2.49,0,0,1-1.36-.93c-.25-.33-.48-.66-.7-1-.68-1-1.34-2-2-3.06a6.62,6.62,0,0,0-.46-.62A.84.84,0,0,0,62,76.3a.75.75,0,0,0-.42.27c-.16.21-.32.41-.47.63-.61.93-1.23,1.87-1.83,2.81a4.89,4.89,0,0,1-1.63,1.57,5.12,5.12,0,0,1-2.5.76,4.94,4.94,0,0,1-2.45-.48,5.29,5.29,0,0,1-.52-.29,5.5,5.5,0,0,1-2.07-2.43c-.07-.16-.12-.34-.19-.53,1-.15,2-.27,3-.42l.06.12a1.78,1.78,0,0,0,1.06.9,2.47,2.47,0,0,0,1.83-.08,1.88,1.88,0,0,0,.82-.71q1.44-2.23,2.9-4.47a4.82,4.82,0,0,1,.72-.9A2.75,2.75,0,0,1,64.1,73a5.53,5.53,0,0,1,.72.88l1.6,2.42,1,1.45a.83.83,0,0,1,.08.12Z"/><path class="cls-5" d="M58,73.34,56.4,75.79l-.12-.1a2.14,2.14,0,0,0-2.9,0,2.43,2.43,0,0,0-.4.51c0,.06-.07.09-.14.09h-3a4.54,4.54,0,0,1,.6-1.61A5,5,0,0,1,58,73.34Z"/><path class="cls-5" d="M61.69,78.89V78a.76.76,0,0,1,0-.15.15.15,0,0,1,.24-.11l.09.06c.33.26.67.53,1,.8a.39.39,0,0,1,.14.17.29.29,0,0,1-.09.35c-.11.1-.23.19-.35.28L62,80c-.08.06-.16.13-.26.08s-.09-.16-.09-.25Z"/></g><path class="cls-5" d="M51,73.06a5.59,5.59,0,0,0-1.51,2.45,2.49,2.49,0,0,0-1.87-.36A2.24,2.24,0,0,0,46,77.49,2.13,2.13,0,0,0,47.7,79.4a2.19,2.19,0,0,0,2.2-.8,5,5,0,0,0,1.61,2.5,4.89,4.89,0,0,1-3.14,1.27,4.51,4.51,0,0,1-1.63-.24A5,5,0,0,1,43.89,80a4.65,4.65,0,0,1-.74-2,5.25,5.25,0,0,1,1.5-4.46A5.09,5.09,0,0,1,51,73.06Z"/><path class="cls-5" d="M48.43,76.32a.84.84,0,0,0-.6.42,1,1,0,0,0,.6,1.39h4.38a2,2,0,0,0,.2.39,3.42,3.42,0,0,0,.11-2.24s-2.78,0-3,0H49A2.88,2.88,0,0,0,48.43,76.32Z"/><g id="wuS9yb-12" data-name="wuS9yb"><path class="cls-5" d="M67.49,93.55V88h.14c.7,0,1.39,0,2.09,0a1.59,1.59,0,0,1,1.18.49l1.21,1.21a.51.51,0,0,0,.3.15.44.44,0,0,0,.36-.15L74,88.52a1.52,1.52,0,0,1,.81-.45,2.07,2.07,0,0,1,.35,0c.71,0,1.41,0,2.12,0h.12V98c-.1,0-2.64,0-2.9,0,0-.06,0-.12,0-.18V93l0,0-.11.1L73,94.44a.73.73,0,0,1-.45.23.7.7,0,0,1-.63-.21l-1.38-1.37-.11-.1h0v5l-.12,0h-2a3.07,3.07,0,0,1-.85-.13A2.49,2.49,0,0,1,66.05,97c-.25-.33-.48-.66-.7-1-.68-1-1.34-2-2-3.06a6.74,6.74,0,0,0-.46-.63A.85.85,0,0,0,62,92a.7.7,0,0,0-.42.27c-.16.21-.32.41-.47.63-.61.93-1.23,1.87-1.83,2.81a4.89,4.89,0,0,1-1.63,1.57,5.12,5.12,0,0,1-2.5.76,4.94,4.94,0,0,1-2.45-.48,5.29,5.29,0,0,1-.52-.29,5.5,5.5,0,0,1-2.07-2.43c-.07-.17-.12-.34-.19-.53,1-.15,2-.27,3-.42l.06.12a1.78,1.78,0,0,0,1.06.9,2.47,2.47,0,0,0,1.83-.08,1.88,1.88,0,0,0,.82-.71q1.44-2.24,2.9-4.47a4.82,4.82,0,0,1,.72-.9,2.75,2.75,0,0,1,3.84-.06,5.53,5.53,0,0,1,.72.88L66.42,92l1,1.45a.83.83,0,0,1,.08.12Z"/><path class="cls-5" d="M58,89,56.4,91.49l-.12-.1a2.14,2.14,0,0,0-2.9,0,2.43,2.43,0,0,0-.4.51c0,.06-.07.09-.14.09h-3a4.54,4.54,0,0,1,.6-1.61A5,5,0,0,1,58,89Z"/><path class="cls-5" d="M61.69,94.59v-.88a.76.76,0,0,1,0-.15c0-.13.12-.18.24-.11a.47.47,0,0,1,.09.06c.33.26.67.53,1,.8a.39.39,0,0,1,.14.17.29.29,0,0,1-.09.35c-.11.1-.23.19-.35.28l-.68.55c-.08.06-.16.13-.26.08s-.09-.16-.09-.25Z"/></g><path class="cls-5" d="M51,88.76a5.59,5.59,0,0,0-1.51,2.45,2.52,2.52,0,0,0-1.87-.37A2.27,2.27,0,0,0,46,93.19,2.13,2.13,0,0,0,47.7,95.1a2.19,2.19,0,0,0,2.2-.8,5,5,0,0,0,1.61,2.5,4.89,4.89,0,0,1-3.14,1.27,4.74,4.74,0,0,1-1.63-.24,5,5,0,0,1-2.85-2.12,4.65,4.65,0,0,1-.74-1.95,5.25,5.25,0,0,1,1.5-4.46A5.09,5.09,0,0,1,51,88.76Z"/><path class="cls-5" d="M48.43,92a.84.84,0,0,0-.6.42,1,1,0,0,0,.6,1.39h4.38a2,2,0,0,0,.2.39A3.42,3.42,0,0,0,53.12,92s-2.78,0-3,0H49A2.88,2.88,0,0,0,48.43,92Z"/><g id="wuS9yb-13" data-name="wuS9yb"><path class="cls-5" d="M28.33,13.2V7.69h2.24a1.6,1.6,0,0,1,1.18.49c.4.41.81.81,1.21,1.21a.44.44,0,0,0,.3.15.44.44,0,0,0,.36-.15l1.22-1.22a1.49,1.49,0,0,1,.81-.45,2,2,0,0,1,.34,0c.71,0,1.42,0,2.13,0h.12v10c-.1,0-2.64.05-2.9,0a1,1,0,0,1,0-.18V12.66h0a.52.52,0,0,0-.11.1l-1.35,1.34a.68.68,0,0,1-.44.23.72.72,0,0,1-.64-.21c-.46-.45-.91-.91-1.37-1.37l-.11-.1,0,0v5l-.11,0h-2a3.42,3.42,0,0,1-.85-.12,2.56,2.56,0,0,1-1.36-.94c-.25-.33-.48-.66-.71-1l-2-3.06a6.62,6.62,0,0,0-.46-.62.84.84,0,0,0-.92-.29.78.78,0,0,0-.43.27c-.16.21-.32.41-.46.63l-1.84,2.81a4.77,4.77,0,0,1-1.62,1.57,5.15,5.15,0,0,1-2.5.76,4.92,4.92,0,0,1-2.45-.48,4.35,4.35,0,0,1-.52-.29,5.38,5.38,0,0,1-2.07-2.43c-.07-.16-.12-.34-.19-.53,1-.15,2-.27,3-.42a.75.75,0,0,1,.07.12,1.76,1.76,0,0,0,1.06.9,2.42,2.42,0,0,0,1.83-.08,1.88,1.88,0,0,0,.82-.71q1.44-2.23,2.9-4.47a5.21,5.21,0,0,1,.71-.9,2.75,2.75,0,0,1,3.84-.06,5.5,5.5,0,0,1,.73.88l1.6,2.42.95,1.45a.83.83,0,0,1,.08.12Z"/><path class="cls-5" d="M18.88,8.69l-1.64,2.45-.11-.09a2.13,2.13,0,0,0-2.9,0,2.48,2.48,0,0,0-.41.51.14.14,0,0,1-.14.09h-3a4.35,4.35,0,0,1,.6-1.61,5,5,0,0,1,7.56-1.37Z"/><path class="cls-5" d="M22.54,14.24v-.88a.76.76,0,0,1,0-.15c0-.13.12-.17.24-.11a.47.47,0,0,1,.09.06l1,.8a.55.55,0,0,1,.14.17.31.31,0,0,1-.09.35l-.35.28-.68.55c-.08.06-.16.13-.26.08s-.09-.16-.09-.25Z"/></g><path class="cls-5" d="M11.86,8.41a5.49,5.49,0,0,0-1.51,2.46,2.44,2.44,0,0,0-1.87-.37,2.24,2.24,0,0,0-1.59,2.34,2.13,2.13,0,0,0,1.66,1.91,2.19,2.19,0,0,0,2.2-.8,5,5,0,0,0,1.61,2.5,4.87,4.87,0,0,1-3.14,1.27,4.73,4.73,0,0,1-1.63-.23,5,5,0,0,1-2.85-2.13A4.61,4.61,0,0,1,4,13.41,5.26,5.26,0,0,1,5.5,9,5.09,5.09,0,0,1,11.86,8.41Z"/><path class="cls-5" d="M9.28,11.67a.84.84,0,0,0-.6.42,1,1,0,0,0,.59,1.39h4.38a2.29,2.29,0,0,0,.21.39A3.52,3.52,0,0,0,14,11.63s-2.78,0-3,0H9.87A2.88,2.88,0,0,0,9.28,11.67Z"/><g id="wuS9yb-14" data-name="wuS9yb"><path class="cls-5" d="M28.33,30.75V25.24h2.24a1.6,1.6,0,0,1,1.18.49c.4.41.81.81,1.21,1.21a.44.44,0,0,0,.3.15.44.44,0,0,0,.36-.15l1.22-1.22a1.55,1.55,0,0,1,.81-.45,2,2,0,0,1,.34,0h2.25v10c-.1,0-2.64,0-2.9,0a1,1,0,0,1,0-.18V30.21h0a.52.52,0,0,0-.11.1l-1.35,1.34a.68.68,0,0,1-.44.23.75.75,0,0,1-.64-.2l-1.37-1.38-.11-.1,0,0v5l-.11,0h-2a3.42,3.42,0,0,1-.85-.12,2.56,2.56,0,0,1-1.36-.94c-.25-.33-.48-.66-.71-1l-2-3.06a6.62,6.62,0,0,0-.46-.62.84.84,0,0,0-.92-.29.78.78,0,0,0-.43.27c-.16.21-.32.41-.46.63-.61.94-1.23,1.87-1.84,2.82a4.84,4.84,0,0,1-1.62,1.56,5.15,5.15,0,0,1-2.5.76,4.92,4.92,0,0,1-2.45-.48,3.29,3.29,0,0,1-.52-.29A5.38,5.38,0,0,1,10.92,32c-.07-.16-.12-.34-.19-.53,1-.15,2-.27,3-.42l.07.12a1.76,1.76,0,0,0,1.06.9A2.46,2.46,0,0,0,16.67,32a2,2,0,0,0,.82-.71q1.44-2.25,2.9-4.48a5.21,5.21,0,0,1,.71-.9,2.74,2.74,0,0,1,3.84-.05,5,5,0,0,1,.73.87l1.6,2.42c.32.49.64,1,.95,1.46a.44.44,0,0,1,.08.11Z"/><path class="cls-5" d="M18.88,26.24,17.24,28.7l-.11-.1a2.14,2.14,0,0,0-2.9,0,2.48,2.48,0,0,0-.41.51.14.14,0,0,1-.14.09h-3a4.42,4.42,0,0,1,.6-1.61,5,5,0,0,1,7.56-1.37Z"/><path class="cls-5" d="M22.54,31.79v-.88a.76.76,0,0,1,0-.15c0-.13.12-.17.24-.11a.47.47,0,0,1,.09.06l1,.8a.55.55,0,0,1,.14.17.31.31,0,0,1-.09.35l-.35.28-.68.55c-.08.06-.16.13-.26.08s-.09-.16-.09-.25Z"/></g><path class="cls-5" d="M11.86,26a5.49,5.49,0,0,0-1.51,2.46,2.44,2.44,0,0,0-1.87-.37,2.25,2.25,0,0,0-1.59,2.34A2.12,2.12,0,0,0,8.55,32.3a2.19,2.19,0,0,0,2.2-.8A5,5,0,0,0,12.36,34a4.9,4.9,0,0,1-3.14,1.28A5,5,0,0,1,7.59,35a5,5,0,0,1-2.85-2.13A4.56,4.56,0,0,1,4,31,5.26,5.26,0,0,1,5.5,26.5,5.09,5.09,0,0,1,11.86,26Z"/><path class="cls-5" d="M9.28,29.22a.87.87,0,0,0-.6.42A1,1,0,0,0,9.27,31h4.38a2.29,2.29,0,0,0,.21.39A3.52,3.52,0,0,0,14,29.18s-2.78,0-3,0H9.87A2.88,2.88,0,0,0,9.28,29.22Z"/><g id="wuS9yb-15" data-name="wuS9yb"><path class="cls-5" d="M28.33,46.45V40.94h2.24a1.6,1.6,0,0,1,1.18.49c.4.41.81.81,1.21,1.21a.44.44,0,0,0,.3.15.44.44,0,0,0,.36-.15l1.22-1.22a1.49,1.49,0,0,1,.81-.45,2,2,0,0,1,.34,0h2.25v10c-.1,0-2.64.05-2.9,0a1,1,0,0,1,0-.18V45.91h0a.52.52,0,0,0-.11.1l-1.35,1.34a.68.68,0,0,1-.44.23.75.75,0,0,1-.64-.2L31.39,46l-.11-.1,0,0v5l-.11,0h-2a3.42,3.42,0,0,1-.85-.12,2.56,2.56,0,0,1-1.36-.94c-.25-.33-.48-.66-.71-1l-2-3.06a6.62,6.62,0,0,0-.46-.62.84.84,0,0,0-.92-.29.78.78,0,0,0-.43.27c-.16.21-.32.41-.46.63l-1.84,2.81a4.77,4.77,0,0,1-1.62,1.57,5.15,5.15,0,0,1-2.5.76,4.92,4.92,0,0,1-2.45-.48,4.35,4.35,0,0,1-.52-.29,5.38,5.38,0,0,1-2.07-2.43c-.07-.16-.12-.34-.19-.53,1-.15,2-.27,3-.42a.75.75,0,0,1,.07.12,1.76,1.76,0,0,0,1.06.9,2.42,2.42,0,0,0,1.83-.08,1.92,1.92,0,0,0,.82-.7q1.44-2.25,2.9-4.48a5.21,5.21,0,0,1,.71-.9,2.75,2.75,0,0,1,3.84-.06,5.5,5.5,0,0,1,.73.88l1.6,2.42.95,1.45.08.12Z"/><path class="cls-5" d="M18.88,41.94l-1.64,2.45-.11-.09a2.13,2.13,0,0,0-2.9,0,2.48,2.48,0,0,0-.41.51.14.14,0,0,1-.14.09h-3a4.42,4.42,0,0,1,.6-1.61,5,5,0,0,1,7.56-1.37Z"/><path class="cls-5" d="M22.54,47.49v-.88a.76.76,0,0,1,0-.15c0-.13.12-.17.24-.11l.09.06,1,.8a.55.55,0,0,1,.14.17.31.31,0,0,1-.09.35l-.35.28-.68.55c-.08.06-.16.13-.26.08s-.09-.16-.09-.25Z"/></g><path class="cls-5" d="M11.86,41.66a5.49,5.49,0,0,0-1.51,2.46,2.44,2.44,0,0,0-1.87-.37,2.24,2.24,0,0,0-1.59,2.34A2.13,2.13,0,0,0,8.55,48a2.19,2.19,0,0,0,2.2-.8,5,5,0,0,0,1.61,2.5A4.9,4.9,0,0,1,9.22,51a5,5,0,0,1-1.63-.24,5,5,0,0,1-2.85-2.13,4.61,4.61,0,0,1-.75-2A5.26,5.26,0,0,1,5.5,42.2,5.09,5.09,0,0,1,11.86,41.66Z"/><path class="cls-5" d="M9.28,44.92a.84.84,0,0,0-.6.42,1,1,0,0,0,.59,1.39h4.38a2.29,2.29,0,0,0,.21.39A3.52,3.52,0,0,0,14,44.88s-2.78,0-3,0H9.87A2.88,2.88,0,0,0,9.28,44.92Z"/><g id="wuS9yb-16" data-name="wuS9yb"><path class="cls-5" d="M28.33,62.15V56.64h2.24a1.6,1.6,0,0,1,1.18.49L33,58.34a.44.44,0,0,0,.3.15.44.44,0,0,0,.36-.15l1.22-1.22a1.49,1.49,0,0,1,.81-.45,2,2,0,0,1,.34,0h2.25v10c-.1,0-2.64,0-2.9,0a1.09,1.09,0,0,1,0-.18V61.61h0l-.11.09L33.84,63a.68.68,0,0,1-.44.23.72.72,0,0,1-.64-.21l-1.37-1.37-.11-.1,0,0v5l-.11,0h-2a3.42,3.42,0,0,1-.85-.12,2.56,2.56,0,0,1-1.36-.94c-.25-.33-.48-.66-.71-1l-2-3.06a6.62,6.62,0,0,0-.46-.62.84.84,0,0,0-.92-.29.78.78,0,0,0-.43.27c-.16.21-.32.41-.46.63l-1.84,2.81a4.77,4.77,0,0,1-1.62,1.57,5.15,5.15,0,0,1-2.5.76,4.92,4.92,0,0,1-2.45-.48,4.35,4.35,0,0,1-.52-.29,5.38,5.38,0,0,1-2.07-2.43c-.07-.16-.12-.34-.19-.53,1-.15,2-.27,3-.42a.75.75,0,0,1,.07.12,1.76,1.76,0,0,0,1.06.9,2.47,2.47,0,0,0,1.83-.08,1.88,1.88,0,0,0,.82-.71q1.44-2.23,2.9-4.47a5.21,5.21,0,0,1,.71-.9,2.75,2.75,0,0,1,3.84-.06,5.5,5.5,0,0,1,.73.88l1.6,2.42L28.22,62l.08.12Z"/><path class="cls-5" d="M18.88,57.64l-1.64,2.45L17.13,60a2.13,2.13,0,0,0-2.9,0,2.48,2.48,0,0,0-.41.51.14.14,0,0,1-.14.09h-3a4.35,4.35,0,0,1,.6-1.61,5,5,0,0,1,7.56-1.37Z"/><path class="cls-5" d="M22.54,63.19v-.88a.76.76,0,0,1,0-.15c0-.13.12-.17.24-.11l.09.06,1,.8a.55.55,0,0,1,.14.17.31.31,0,0,1-.09.35l-.35.28-.68.55c-.08.06-.16.13-.26.08s-.09-.16-.09-.25Z"/></g><path class="cls-5" d="M11.86,57.36a5.49,5.49,0,0,0-1.51,2.46,2.44,2.44,0,0,0-1.87-.37,2.24,2.24,0,0,0-1.59,2.34A2.13,2.13,0,0,0,8.55,63.7a2.19,2.19,0,0,0,2.2-.8,5,5,0,0,0,1.61,2.5,4.87,4.87,0,0,1-3.14,1.27,4.73,4.73,0,0,1-1.63-.23,5,5,0,0,1-2.85-2.13,4.61,4.61,0,0,1-.75-2A5.26,5.26,0,0,1,5.5,57.9,5.09,5.09,0,0,1,11.86,57.36Z"/><path class="cls-5" d="M9.28,60.62a.84.84,0,0,0-.6.42,1,1,0,0,0,.59,1.39h4.38a2.29,2.29,0,0,0,.21.39A3.52,3.52,0,0,0,14,60.58s-2.78,0-3,0H9.87A2.88,2.88,0,0,0,9.28,60.62Z"/><g id="wuS9yb-17" data-name="wuS9yb"><path class="cls-5" d="M28.33,77.85V72.34h.15c.7,0,1.39,0,2.09,0a1.6,1.6,0,0,1,1.18.49c.4.4.81.8,1.21,1.21a.48.48,0,0,0,.3.15.44.44,0,0,0,.36-.15c.4-.41.81-.81,1.22-1.22a1.49,1.49,0,0,1,.81-.45,2,2,0,0,1,.34,0c.71,0,1.42,0,2.13,0h.12v10c-.1,0-2.64,0-2.9,0a1.09,1.09,0,0,1,0-.18V77.31h0l-.11.09-1.35,1.35a.68.68,0,0,1-.44.23.72.72,0,0,1-.64-.21c-.46-.45-.91-.91-1.37-1.37l-.11-.1h0v5l-.11,0h-2a3,3,0,0,1-.85-.13,2.49,2.49,0,0,1-1.36-.93c-.25-.33-.48-.66-.71-1l-2-3.06a6.62,6.62,0,0,0-.46-.62.84.84,0,0,0-.92-.29.78.78,0,0,0-.43.27c-.16.21-.32.41-.46.63L20.08,80a4.77,4.77,0,0,1-1.62,1.57,5.15,5.15,0,0,1-2.5.76,4.92,4.92,0,0,1-2.45-.48,4.35,4.35,0,0,1-.52-.29,5.44,5.44,0,0,1-2.07-2.43c-.07-.16-.12-.34-.19-.53,1-.15,2-.27,3-.42a.75.75,0,0,1,.07.12,1.76,1.76,0,0,0,1.06.9,2.47,2.47,0,0,0,1.83-.08,1.88,1.88,0,0,0,.82-.71q1.44-2.23,2.9-4.47a5.21,5.21,0,0,1,.71-.9A2.75,2.75,0,0,1,24.94,73a5.09,5.09,0,0,1,.73.88l1.6,2.42.95,1.45a.83.83,0,0,1,.08.12Z"/><path class="cls-5" d="M18.88,73.34l-1.64,2.45-.11-.1a2.14,2.14,0,0,0-2.9,0,2.48,2.48,0,0,0-.41.51.14.14,0,0,1-.14.09h-3a4.35,4.35,0,0,1,.6-1.61,5,5,0,0,1,7.56-1.37Z"/><path class="cls-5" d="M22.54,78.89V78a.76.76,0,0,1,0-.15c0-.13.12-.17.24-.11l.09.06,1,.8a.39.39,0,0,1,.14.17.31.31,0,0,1-.09.35l-.35.28-.68.55c-.08.06-.16.13-.26.08s-.09-.16-.09-.25Z"/></g><path class="cls-5" d="M11.86,73.06a5.49,5.49,0,0,0-1.51,2.45,2.52,2.52,0,0,0-1.87-.36,2.24,2.24,0,0,0-1.59,2.34A2.13,2.13,0,0,0,8.55,79.4a2.19,2.19,0,0,0,2.2-.8,5,5,0,0,0,1.61,2.5,4.93,4.93,0,0,1-3.14,1.27,4.51,4.51,0,0,1-1.63-.24A5,5,0,0,1,4.74,80a4.66,4.66,0,0,1-.75-2A5.26,5.26,0,0,1,5.5,73.6,5.09,5.09,0,0,1,11.86,73.06Z"/><path class="cls-5" d="M9.28,76.32a.84.84,0,0,0-.6.42,1,1,0,0,0,.59,1.39h4.38a2.29,2.29,0,0,0,.21.39A3.52,3.52,0,0,0,14,76.28s-2.78,0-3,0H9.87A2.88,2.88,0,0,0,9.28,76.32Z"/><g id="wuS9yb-18" data-name="wuS9yb"><path class="cls-5" d="M28.33,93.55V88h.15c.7,0,1.39,0,2.09,0a1.6,1.6,0,0,1,1.18.49c.4.4.81.8,1.21,1.21a.48.48,0,0,0,.3.15.44.44,0,0,0,.36-.15l1.22-1.22a1.49,1.49,0,0,1,.81-.45A2,2,0,0,1,36,88q1.07,0,2.13,0h.12V98c-.1,0-2.64,0-2.9,0a1.09,1.09,0,0,1,0-.18V93l0,0-.11.1-1.35,1.35a.68.68,0,0,1-.44.23.72.72,0,0,1-.64-.21c-.46-.45-.91-.91-1.37-1.37l-.11-.1h0v5l-.11,0h-2a3,3,0,0,1-.85-.13A2.49,2.49,0,0,1,26.9,97c-.25-.33-.48-.66-.71-1l-2-3.06a6.74,6.74,0,0,0-.46-.63.85.85,0,0,0-.92-.28.73.73,0,0,0-.43.27c-.16.21-.32.41-.46.63l-1.84,2.81a4.77,4.77,0,0,1-1.62,1.57A5.15,5.15,0,0,1,16,98a4.92,4.92,0,0,1-2.45-.48,4.35,4.35,0,0,1-.52-.29,5.44,5.44,0,0,1-2.07-2.43c-.07-.17-.12-.34-.19-.53,1-.15,2-.27,3-.42a.75.75,0,0,1,.07.12,1.76,1.76,0,0,0,1.06.9,2.47,2.47,0,0,0,1.83-.08,1.88,1.88,0,0,0,.82-.71q1.44-2.24,2.9-4.47a5.21,5.21,0,0,1,.71-.9,2.75,2.75,0,0,1,3.84-.06,5.09,5.09,0,0,1,.73.88L27.27,92l.95,1.45a.83.83,0,0,1,.08.12Z"/><path class="cls-5" d="M18.88,89l-1.64,2.45-.11-.1a2.14,2.14,0,0,0-2.9,0,2.48,2.48,0,0,0-.41.51.14.14,0,0,1-.14.09h-3a4.35,4.35,0,0,1,.6-1.61A5,5,0,0,1,18.88,89Z"/><path class="cls-5" d="M22.54,94.59v-.88a.76.76,0,0,1,0-.15.15.15,0,0,1,.24-.11.47.47,0,0,1,.09.06l1,.8a.39.39,0,0,1,.14.17.32.32,0,0,1-.09.35l-.35.28-.68.55c-.08.06-.16.13-.26.08s-.09-.16-.09-.25Z"/></g><path class="cls-5" d="M11.86,88.76a5.49,5.49,0,0,0-1.51,2.45,2.54,2.54,0,0,0-1.87-.37,2.27,2.27,0,0,0-1.59,2.35A2.13,2.13,0,0,0,8.55,95.1a2.19,2.19,0,0,0,2.2-.8,5,5,0,0,0,1.61,2.5,4.93,4.93,0,0,1-3.14,1.27,4.74,4.74,0,0,1-1.63-.24,5,5,0,0,1-2.85-2.12A4.66,4.66,0,0,1,4,93.76,5.26,5.26,0,0,1,5.5,89.3,5.09,5.09,0,0,1,11.86,88.76Z"/><path class="cls-5" d="M9.28,92a.84.84,0,0,0-.6.42,1,1,0,0,0,.59,1.39h4.38a2.29,2.29,0,0,0,.21.39A3.52,3.52,0,0,0,14,92s-2.78,0-3,0H9.87A2.88,2.88,0,0,0,9.28,92Z"/><g id="wuS9yb-19" data-name="wuS9yb"><path class="cls-5" d="M106.64,109.23v-5.51h2.23a1.67,1.67,0,0,1,1.19.5l1.2,1.21a.51.51,0,0,0,.3.15.44.44,0,0,0,.36-.15l1.22-1.22a1.52,1.52,0,0,1,.81-.45,2.07,2.07,0,0,1,.35,0h2.13l.11,0v10c-.1,0-2.64,0-2.9,0,0-.06,0-.12,0-.18v-4.83l0,0-.11.1-1.34,1.35a.73.73,0,0,1-.45.23.71.71,0,0,1-.63-.21l-1.38-1.37-.1-.1h0v5h-2.15a3.07,3.07,0,0,1-.85-.13,2.49,2.49,0,0,1-1.36-.93c-.24-.33-.48-.66-.7-1l-2-3.06c-.14-.21-.29-.43-.45-.63a.86.86,0,0,0-.93-.28.73.73,0,0,0-.42.27c-.16.21-.32.41-.46.63-.62.93-1.24,1.87-1.84,2.81A4.89,4.89,0,0,1,96.76,113a5.11,5.11,0,0,1-2.49.76,5,5,0,0,1-2.46-.48,5.29,5.29,0,0,1-.52-.29,5.5,5.5,0,0,1-2.07-2.43c-.07-.17-.12-.34-.19-.53,1-.15,2-.27,3-.42l.06.12a1.78,1.78,0,0,0,1.06.9,2.46,2.46,0,0,0,1.83-.08,1.82,1.82,0,0,0,.82-.71l2.9-4.47a5.27,5.27,0,0,1,.72-.9,2.75,2.75,0,0,1,3.84-.06,5.53,5.53,0,0,1,.72.88l1.6,2.42,1,1.45a.83.83,0,0,0,.08.12Z"/><path class="cls-5" d="M97.18,104.72l-1.63,2.45-.11-.1a2.15,2.15,0,0,0-2.91,0,2.43,2.43,0,0,0-.4.51c0,.06-.07.09-.14.09H89a4.34,4.34,0,0,1,.59-1.61,5,5,0,0,1,7.56-1.37Z"/><path class="cls-5" d="M100.84,110.27v-.88s0-.1,0-.15.12-.18.24-.11a.24.24,0,0,1,.09.06l1,.8a.45.45,0,0,1,.13.17.29.29,0,0,1-.09.35c-.11.1-.23.19-.35.28l-.68.55c-.07.06-.15.13-.26.08s-.08-.16-.09-.25Z"/></g><path class="cls-5" d="M90.17,104.44a5.57,5.57,0,0,0-1.52,2.45,2.52,2.52,0,0,0-1.87-.37,2.27,2.27,0,0,0-1.59,2.35,2.13,2.13,0,0,0,1.67,1.91,2.19,2.19,0,0,0,2.2-.8,5,5,0,0,0,1.61,2.5,5,5,0,0,1-3.15,1.27,4.78,4.78,0,0,1-1.63-.24A5,5,0,0,1,83,111.39a4.65,4.65,0,0,1-.74-2A5.25,5.25,0,0,1,83.8,105,5.09,5.09,0,0,1,90.17,104.44Z"/><path class="cls-5" d="M87.59,107.7a.84.84,0,0,0-.6.42,1,1,0,0,0,.59,1.39H92a2,2,0,0,0,.2.39,3.34,3.34,0,0,0,.11-2.24s-2.77,0-3,0H88.17A2.74,2.74,0,0,0,87.59,107.7Z"/><g id="wuS9yb-20" data-name="wuS9yb"><path class="cls-5" d="M67.49,109.23v-5.51h2.23a1.63,1.63,0,0,1,1.18.5l1.21,1.21a.51.51,0,0,0,.3.15.44.44,0,0,0,.36-.15L74,104.2a1.52,1.52,0,0,1,.81-.45,2.07,2.07,0,0,1,.35,0h2.12l.12,0v10c-.1,0-2.64,0-2.9,0,0-.06,0-.12,0-.18v-4.83l0,0-.11.1L73,110.12a.73.73,0,0,1-.45.23.7.7,0,0,1-.63-.21l-1.38-1.37-.11-.1h0v5H68.26a3.07,3.07,0,0,1-.85-.13,2.49,2.49,0,0,1-1.36-.93c-.25-.33-.48-.66-.7-1-.68-1-1.34-2-2-3.06a6.74,6.74,0,0,0-.46-.63.85.85,0,0,0-.92-.28.7.7,0,0,0-.42.27c-.16.21-.32.41-.47.63-.61.93-1.23,1.87-1.83,2.81A4.89,4.89,0,0,1,57.61,113a5.12,5.12,0,0,1-2.5.76,4.94,4.94,0,0,1-2.45-.48,5.29,5.29,0,0,1-.52-.29,5.5,5.5,0,0,1-2.07-2.43c-.07-.17-.12-.34-.19-.53,1-.15,2-.27,3-.42l.06.12a1.78,1.78,0,0,0,1.06.9,2.47,2.47,0,0,0,1.83-.08,1.88,1.88,0,0,0,.82-.71q1.44-2.23,2.9-4.47a4.82,4.82,0,0,1,.72-.9,2.75,2.75,0,0,1,3.84-.06,5.53,5.53,0,0,1,.72.88l1.6,2.42,1,1.45a.83.83,0,0,1,.08.12Z"/><path class="cls-5" d="M58,104.72l-1.63,2.45-.12-.1a2.14,2.14,0,0,0-2.9,0,2.43,2.43,0,0,0-.4.51c0,.06-.07.09-.14.09h-3a4.54,4.54,0,0,1,.6-1.61A5,5,0,0,1,58,104.72Z"/><path class="cls-5" d="M61.69,110.27v-.88a.76.76,0,0,1,0-.15c0-.13.12-.18.24-.11a.24.24,0,0,1,.09.06c.33.26.67.53,1,.8a.39.39,0,0,1,.14.17.29.29,0,0,1-.09.35c-.11.1-.23.19-.35.28l-.68.55c-.08.06-.16.13-.26.08s-.09-.16-.09-.25Z"/></g><path class="cls-5" d="M51,104.44a5.59,5.59,0,0,0-1.51,2.45,2.52,2.52,0,0,0-1.87-.37A2.27,2.27,0,0,0,46,108.87a2.13,2.13,0,0,0,1.66,1.91,2.19,2.19,0,0,0,2.2-.8,5,5,0,0,0,1.61,2.5,4.89,4.89,0,0,1-3.14,1.27,4.74,4.74,0,0,1-1.63-.24,5,5,0,0,1-2.85-2.12,4.65,4.65,0,0,1-.74-2,5.25,5.25,0,0,1,1.5-4.46A5.08,5.08,0,0,1,51,104.44Z"/><path class="cls-5" d="M48.43,107.7a.84.84,0,0,0-.6.42,1,1,0,0,0,.6,1.39h4.38a2,2,0,0,0,.2.39,3.42,3.42,0,0,0,.11-2.24s-2.78,0-3,0H49A2.88,2.88,0,0,0,48.43,107.7Z"/><g id="wuS9yb-21" data-name="wuS9yb"><path class="cls-5" d="M28.33,109.23v-5.51h2.24a1.65,1.65,0,0,1,1.18.5L33,105.42a.48.48,0,0,0,.3.15.44.44,0,0,0,.36-.15l1.22-1.22a1.49,1.49,0,0,1,.81-.45,2,2,0,0,1,.34,0h2.13l.12,0v10c-.1,0-2.64,0-2.9,0a1.09,1.09,0,0,1,0-.18v-4.83l0,0-.11.1-1.35,1.35a.68.68,0,0,1-.44.23.72.72,0,0,1-.64-.21l-1.37-1.37-.11-.1h0v5H29.11a3,3,0,0,1-.85-.13,2.49,2.49,0,0,1-1.36-.93c-.25-.33-.48-.66-.71-1l-2-3.06a6.74,6.74,0,0,0-.46-.63.85.85,0,0,0-.92-.28.73.73,0,0,0-.43.27c-.16.21-.32.41-.46.63l-1.84,2.81A4.77,4.77,0,0,1,18.46,113a5.15,5.15,0,0,1-2.5.76,4.92,4.92,0,0,1-2.45-.48A4.35,4.35,0,0,1,13,113a5.44,5.44,0,0,1-2.07-2.43c-.07-.17-.12-.34-.19-.53,1-.15,2-.27,3-.42a.75.75,0,0,1,.07.12,1.76,1.76,0,0,0,1.06.9,2.47,2.47,0,0,0,1.83-.08,1.88,1.88,0,0,0,.82-.71q1.44-2.23,2.9-4.47a5.21,5.21,0,0,1,.71-.9,2.75,2.75,0,0,1,3.84-.06,5.09,5.09,0,0,1,.73.88l1.6,2.42.95,1.45.08.12Z"/><path class="cls-5" d="M18.88,104.72l-1.64,2.45-.11-.1a2.14,2.14,0,0,0-2.9,0,2.48,2.48,0,0,0-.41.51.14.14,0,0,1-.14.09h-3a4.35,4.35,0,0,1,.6-1.61,5,5,0,0,1,7.56-1.37Z"/><path class="cls-5" d="M22.54,110.27v-.88a.76.76,0,0,1,0-.15.15.15,0,0,1,.24-.11.24.24,0,0,1,.09.06l1,.8a.39.39,0,0,1,.14.17.32.32,0,0,1-.09.35l-.35.28-.68.55c-.08.06-.16.13-.26.08s-.09-.16-.09-.25Z"/></g><path class="cls-5" d="M11.86,104.44a5.49,5.49,0,0,0-1.51,2.45,2.54,2.54,0,0,0-1.87-.37,2.27,2.27,0,0,0-1.59,2.35,2.13,2.13,0,0,0,1.66,1.91,2.19,2.19,0,0,0,2.2-.8,5,5,0,0,0,1.61,2.5,4.93,4.93,0,0,1-3.14,1.27,4.74,4.74,0,0,1-1.63-.24,5,5,0,0,1-2.85-2.12,4.66,4.66,0,0,1-.75-2A5.26,5.26,0,0,1,5.5,105,5.08,5.08,0,0,1,11.86,104.44Z"/><path class="cls-5" d="M9.28,107.7a.84.84,0,0,0-.6.42,1,1,0,0,0,.59,1.39h4.38a2.29,2.29,0,0,0,.21.39,3.52,3.52,0,0,0,.11-2.24s-2.78,0-3,0H9.87A2.88,2.88,0,0,0,9.28,107.7Z"/></g></g><path class="cls-6" d="M24.75,46.23A5.13,5.13,0,0,1,25,44.52a3.76,3.76,0,0,1,.66-1.19,3,3,0,0,1,.95-.72,4.4,4.4,0,0,1,1.09-.33l1-.18c.39-.06.87-.12,1.46-.16s1.3-.08,2.14-.11,1.87,0,3.07,0a20.06,20.06,0,0,1,6.44.88A11.17,11.17,0,0,1,46,45a8.5,8.5,0,0,1,2.23,3.39,12.09,12.09,0,0,1,.66,4,11,11,0,0,1-1.07,4.92,8.39,8.39,0,0,1-3.52,3.57c.43.72.9,1.56,1.42,2.52l1.61,3Q48.14,68,49,69.73c.54,1.14,1.06,2.25,1.54,3.33H42.3c-.14-.33-.41-1-.79-1.87s-.83-1.9-1.33-3-1-2.11-1.55-3.13-1-1.81-1.35-2.38a8.25,8.25,0,0,1-1.22.09H34.75c-.17,0-.41,0-.71,0l-.92,0-.86,0a2.41,2.41,0,0,1-.51-.07V73.06h-7Zm7,10a2.29,2.29,0,0,1,.36,0l.66.09c.29,0,.66,0,1.1.06s1,0,1.65,0a11.51,11.51,0,0,0,3-.34,4.94,4.94,0,0,0,1.84-.9,2.85,2.85,0,0,0,.9-1.3,4.91,4.91,0,0,0,.24-1.51A5,5,0,0,0,41.31,51a3,3,0,0,0-.88-1.37,5,5,0,0,0-1.91-1,10.94,10.94,0,0,0-3.3-.41c-1,0-1.79,0-2.38.07a10.29,10.29,0,0,0-1.09.11Z"/><path class="cls-6" d="M60.62,51l-5.19,4.23a7.87,7.87,0,0,1-.84-.52,6.24,6.24,0,0,1-1-.85,5.91,5.91,0,0,1-.83-1.15,2.83,2.83,0,0,1-.34-1.39,3.71,3.71,0,0,1,.81-2.54,17.09,17.09,0,0,1,2.32-2.09l2.53-2c.54-.42,1-.78,1.5-1.1A8.19,8.19,0,0,1,61,42.84a7.35,7.35,0,0,1,1.4-.45,6.86,6.86,0,0,1,1.56-.16,8,8,0,0,1,1.29.11,10.73,10.73,0,0,1,1.14.27c.33.11.6.2.81.29l.41.18v30H60.62Z"/><path class="cls-6" d="M75,65.51a5.46,5.46,0,0,0,1,.47,14.24,14.24,0,0,0,1.63.58,18.3,18.3,0,0,0,2.12.52,13,13,0,0,0,2.43.23,9.79,9.79,0,0,0,2.7-.32,4.46,4.46,0,0,0,1.69-.85,2.93,2.93,0,0,0,.88-1.24,4.19,4.19,0,0,0,.26-1.46A4.53,4.53,0,0,0,87.41,62a2.72,2.72,0,0,0-.92-1.28,5.54,5.54,0,0,0-1.95-.92,12.5,12.5,0,0,0-3.33-.36q-.85,0-1.86.09c-.67.06-1.34.14-2,.25s-1.26.22-1.82.34a11.53,11.53,0,0,0-1.31.35l.43-14a4.8,4.8,0,0,1,1.09-3.21,4.19,4.19,0,0,1,3.16-1.06H90a3.8,3.8,0,0,1,2.74.81,3.26,3.26,0,0,1,.82,2.43,6.73,6.73,0,0,1-.35,2.18A9.93,9.93,0,0,1,92.67,49H81l-.13,4.5a10.07,10.07,0,0,1,1.31-.14c.55,0,1.23,0,2,0a13.6,13.6,0,0,1,5,.8,8.69,8.69,0,0,1,3.26,2.18,8.49,8.49,0,0,1,1.81,3.17,12.57,12.57,0,0,1,.55,3.73A11.45,11.45,0,0,1,94,67.51a9.52,9.52,0,0,1-2.27,3.35A10.75,10.75,0,0,1,88,73a14.67,14.67,0,0,1-4.94.78,24.15,24.15,0,0,1-4.52-.38,22.48,22.48,0,0,1-3.31-.88,13.14,13.14,0,0,1-2.08-.92,5.35,5.35,0,0,1-.86-.56Z"/><rect class="cls-7" x="0.5" y="0.5" width="120.29" height="120.29"/></svg>